<svg width="392" height="68" viewBox="0 0 392 68" fill="none" xmlns="http://www.w3.org/2000/svg">
<g filter="url(#filter0_d_20_13)">
<path d="M4.35938 57.7109V57.5156C4.4375 57.4375 4.64583 57.3333 4.98438 57.2031C5.32292 57.0469 5.72656 56.8906 6.19531 56.7344C6.66406 56.5781 7.15885 56.4219 7.67969 56.2656C8.20052 56.1094 8.69531 55.9661 9.16406 55.8359C9.63281 55.7057 10.0234 55.5885 10.3359 55.4844C10.6745 55.3802 10.8698 55.3151 10.9219 55.2891C11.3906 54.638 11.7422 53.974 11.9766 53.2969C12.2109 52.5938 12.3802 51.8906 12.4844 51.1875C12.5885 50.4583 12.6536 49.7292 12.6797 49C12.7318 48.2448 12.7969 47.4766 12.875 46.6953C13.0573 46.0964 13.2005 45.5234 13.3047 44.9766C13.4349 44.4297 13.5 43.8568 13.5 43.2578C13.5 42.8151 13.3958 42.4245 13.1875 42.0859C12.9792 41.7474 12.875 41.3698 12.875 40.9531C12.875 40.276 12.9792 39.599 13.1875 38.9219C13.3958 38.2188 13.5 37.5677 13.5 36.9688C13.5 36.7604 13.487 36.5911 13.4609 36.4609C13.4349 36.3047 13.3958 36.1615 13.3438 36.0312C13.3177 35.901 13.2917 35.7708 13.2656 35.6406C13.2396 35.5104 13.2266 35.3411 13.2266 35.1328C13.2266 34.8724 13.2526 34.651 13.3047 34.4688C13.3828 34.2604 13.4609 34.0781 13.5391 33.9219C13.6432 33.7396 13.7214 33.5703 13.7734 33.4141C13.8516 33.2318 13.8906 33.0365 13.8906 32.8281L12.875 28.8438C12.875 28.4531 12.9792 28.1276 13.1875 27.8672C13.3958 27.5807 13.5 27.2161 13.5 26.7734L13.2266 25.6016V23.1016C13.2266 23.0234 13.2005 22.9193 13.1484 22.7891C13.0964 22.6328 13.0312 22.4766 12.9531 22.3203C12.875 22.1641 12.8099 22.0208 12.7578 21.8906C12.7057 21.7604 12.6797 21.6693 12.6797 21.6172C12.6797 20.9401 12.7448 20.3411 12.875 19.8203C13.0052 19.2995 13.0703 18.7786 13.0703 18.2578L12.875 12.0469C12.7448 11.7865 12.6016 11.5781 12.4453 11.4219C12.2891 11.2656 12.1198 11.1354 11.9375 11.0312C11.7552 10.9271 11.5469 10.8229 11.3125 10.7188C11.1042 10.5885 10.8828 10.4193 10.6484 10.2109C10.2057 9.5599 9.61979 9.11719 8.89062 8.88281C8.16146 8.64844 7.44531 8.46615 6.74219 8.33594C6.03906 8.17969 5.42708 7.98438 4.90625 7.75C4.41146 7.51562 4.16406 7.07292 4.16406 6.42188C4.16406 5.95312 4.34635 5.60156 4.71094 5.36719C5.10156 5.10677 5.55729 4.92448 6.07812 4.82031C6.59896 4.6901 7.11979 4.61198 7.64062 4.58594C8.16146 4.5599 8.57812 4.54688 8.89062 4.54688H10.2969C10.7656 4.54688 11.2734 4.5599 11.8203 4.58594C12.3672 4.58594 12.875 4.61198 13.3438 4.66406C13.8385 4.6901 14.2552 4.74219 14.5938 4.82031C14.9323 4.8724 15.1276 4.9375 15.1797 5.01562L27.7969 4.54688L31 4.74219L32.6016 4.54688C33.5391 4.9375 34.4635 5.25 35.375 5.48438C36.2865 5.71875 37.1589 5.99219 37.9922 6.30469C38.8516 6.61719 39.6589 7.02083 40.4141 7.51562C41.1953 7.98438 41.8984 8.66146 42.5234 9.54688C43.0964 10.3802 43.5781 11.1094 43.9688 11.7344C44.3854 12.3333 44.724 12.9453 44.9844 13.5703C45.2448 14.1693 45.4271 14.8203 45.5312 15.5234C45.6615 16.2266 45.7266 17.0729 45.7266 18.0625C45.7266 18.8177 45.6354 19.6641 45.4531 20.6016C45.2708 21.513 44.9974 22.3464 44.6328 23.1016C44.3464 23.5443 44.0469 23.9089 43.7344 24.1953C43.4479 24.4818 43.1354 24.7422 42.7969 24.9766C42.4583 25.2109 42.0938 25.4323 41.7031 25.6406C41.3385 25.849 40.9479 26.0833 40.5312 26.3438L40.1016 27.1641C39.9193 27.3984 39.5807 27.5677 39.0859 27.6719C38.6172 27.776 38.1354 27.8932 37.6406 28.0234C37.1458 28.1536 36.7031 28.3359 36.3125 28.5703C35.9219 28.8047 35.7266 29.1693 35.7266 29.6641C35.7266 29.8984 35.9609 30.1068 36.4297 30.2891C36.8984 30.4714 37.4323 30.6406 38.0312 30.7969C38.6562 30.9531 39.2552 31.0964 39.8281 31.2266C40.4271 31.3568 40.8568 31.474 41.1172 31.5781C41.8724 31.9688 42.5365 32.3724 43.1094 32.7891C43.7083 33.1797 44.3464 33.5833 45.0234 34L46.3125 34.8594C46.6771 35.5625 47.1068 36.2786 47.6016 37.0078C48.0964 37.737 48.5651 38.4922 49.0078 39.2734C49.4766 40.0286 49.8672 40.8229 50.1797 41.6562C50.4922 42.4635 50.6484 43.3099 50.6484 44.1953C50.6484 45.1589 50.6094 46.0703 50.5312 46.9297C50.4792 47.7891 50.2708 48.5443 49.9062 49.1953C49.776 49.4297 49.5286 49.7682 49.1641 50.2109C48.7995 50.6276 48.3698 51.1094 47.875 51.6562C47.4062 52.1771 46.8854 52.724 46.3125 53.2969C45.7656 53.8698 45.2318 54.4036 44.7109 54.8984C44.1901 55.3672 43.6953 55.7839 43.2266 56.1484C42.7839 56.487 42.4193 56.6953 42.1328 56.7734C41.2214 56.7734 40.5964 56.8385 40.2578 56.9688C39.9193 57.0729 39.6849 57.125 39.5547 57.125C38.1745 57.5677 36.9245 57.9323 35.8047 58.2188C34.6849 58.5052 33.4349 58.7005 32.0547 58.8047L30.2969 59.3906C29.5938 59.1302 28.8776 59 28.1484 59C27.263 59 26.4688 59.1302 25.7656 59.3906C24.2552 59.2604 22.7708 59.1432 21.3125 59.0391C19.8542 58.9349 18.3307 58.8828 16.7422 58.8828C15.4922 58.8828 14.2161 59 12.9141 59.2344C11.638 59.4948 10.2969 59.625 8.89062 59.625C8.76042 59.625 8.44792 59.5859 7.95312 59.5078C7.48438 59.4557 6.97656 59.3516 6.42969 59.1953C5.90885 59.0391 5.42708 58.8438 4.98438 58.6094C4.56771 58.349 4.35938 58.0495 4.35938 57.7109ZM20.7266 47.1641L21.2734 49C21.3516 50.0156 21.4036 50.8099 21.4297 51.3828C21.4557 51.9297 21.5208 52.3724 21.625 52.7109C21.7552 53.0234 21.9766 53.2969 22.2891 53.5312C22.6016 53.7396 23.0964 54.013 23.7734 54.3516C24.0339 54.4818 24.2422 54.599 24.3984 54.7031C24.5547 54.8073 24.724 54.9115 24.9062 55.0156C25.4531 55.25 25.974 55.5234 26.4688 55.8359C26.9896 56.1484 27.5885 56.3047 28.2656 56.3047C28.7604 56.3047 29.151 56.2266 29.4375 56.0703C29.75 55.9141 30.1146 55.8359 30.5312 55.8359L32.3281 56.0312C32.6406 56.0312 32.9792 55.9531 33.3438 55.7969C33.7344 55.6406 34.112 55.4453 34.4766 55.2109C34.8411 54.9766 35.1797 54.7292 35.4922 54.4688C35.8307 54.2083 36.1042 53.9609 36.3125 53.7266C36.4427 53.6745 36.625 53.5443 36.8594 53.3359C37.1198 53.1016 37.3802 52.8542 37.6406 52.5938C37.901 52.3333 38.1354 52.0859 38.3438 51.8516C38.5781 51.5911 38.7604 51.4089 38.8906 51.3047C38.9948 50.9401 39.151 50.5885 39.3594 50.25C39.5938 49.9115 39.8021 49.5729 39.9844 49.2344C40.1927 48.8698 40.375 48.5052 40.5312 48.1406C40.6875 47.75 40.7656 47.3333 40.7656 46.8906C40.7656 45.7448 40.7135 44.599 40.6094 43.4531C40.5312 42.2812 40.349 41.1615 40.0625 40.0938C39.776 39 39.3594 37.9714 38.8125 37.0078C38.2917 36.0182 37.5755 35.1458 36.6641 34.3906C35.8307 33.7917 35.0104 33.3099 34.2031 32.9453C33.4219 32.5547 32.5234 32.2943 31.5078 32.1641H29.5156C28.4479 32.0599 27.4844 31.9036 26.625 31.6953C25.7656 31.4609 24.8932 31.3438 24.0078 31.3438L21.7422 31.5781C21.6901 31.6823 21.612 31.8385 21.5078 32.0469C21.4297 32.2292 21.3385 32.4375 21.2344 32.6719C21.1562 32.8802 21.0651 33.0755 20.9609 33.2578C20.8828 33.4401 20.8047 33.5703 20.7266 33.6484C20.7266 34.0651 20.7656 34.4036 20.8438 34.6641C20.9479 34.8984 21 35.1719 21 35.4844L20.4531 40.9531C20.4531 41.6562 20.5443 42.4115 20.7266 43.2188C20.9089 44.026 21 44.8724 21 45.7578L20.7266 47.1641ZM21.5078 29.2734L22.0156 29.9375L24.2422 29.1953C25.1536 29.0911 26.1042 29 27.0938 28.9219C28.1094 28.8438 29.0859 28.8047 30.0234 28.8047C30.5182 28.8047 30.8568 28.8047 31.0391 28.8047C31.2214 28.8047 31.3776 28.8177 31.5078 28.8438C32.263 28.2188 32.9401 27.5156 33.5391 26.7344C34.1641 25.9271 34.7109 25.0938 35.1797 24.2344C35.6745 23.375 36.1172 22.4896 36.5078 21.5781C36.8984 20.6667 37.263 19.7812 37.6016 18.9219V18.2578L37.0547 17.2422C36.7943 16.3047 36.4688 15.3672 36.0781 14.4297C35.6875 13.4922 35.1927 12.6328 34.5938 11.8516C34.0208 11.0703 33.3307 10.4193 32.5234 9.89844C31.7422 9.35156 30.8177 9.02604 29.75 8.92188C29.6979 8.92188 29.5807 8.90885 29.3984 8.88281C29.2422 8.85677 29.0729 8.84375 28.8906 8.84375C28.7083 8.81771 28.5391 8.79167 28.3828 8.76562C28.2266 8.73958 28.1224 8.72656 28.0703 8.72656C27.7318 8.67448 27.4062 8.57031 27.0938 8.41406C26.8073 8.25781 26.5208 8.08854 26.2344 7.90625C25.9479 7.72396 25.6354 7.56771 25.2969 7.4375C24.9844 7.30729 24.6458 7.24219 24.2812 7.24219C24.099 7.24219 23.8255 7.33333 23.4609 7.51562C23.1224 7.69792 22.7708 7.93229 22.4062 8.21875C22.0677 8.47917 21.7552 8.7526 21.4688 9.03906C21.2083 9.32552 21.0521 9.58594 21 9.82031V11.4219L21.2734 14.5469C21.2734 14.9635 21.2214 15.4062 21.1172 15.875C21.0391 16.3177 20.9479 16.7734 20.8438 17.2422C20.7656 17.6849 20.6745 18.1276 20.5703 18.5703C20.4922 18.987 20.4531 19.3776 20.4531 19.7422C20.4531 21.4349 20.5964 23.0755 20.8828 24.6641C21.1693 26.2526 21.3776 27.7891 21.5078 29.2734ZM61.5469 48.5312C61.5469 48.4531 61.5208 48.2448 61.4688 47.9062C61.4427 47.5677 61.4036 47.2031 61.3516 46.8125C61.3255 46.4219 61.2734 46.0312 61.1953 45.6406C61.1432 45.25 61.1042 44.9505 61.0781 44.7422V44.2734L61.5469 42.8672V37.5938C61.4427 37.3854 61.3776 37.2422 61.3516 37.1641C61.3516 37.0599 61.3516 36.9557 61.3516 36.8516V35.9531C61.2214 34.7812 61 33.6615 60.6875 32.5938C60.375 31.5 60.0365 30.3932 59.6719 29.2734C59.3854 28.9609 59.0339 28.7005 58.6172 28.4922C58.2266 28.2839 57.9401 27.9974 57.7578 27.6328C57.5755 27.2682 57.3151 26.9818 56.9766 26.7734C56.6641 26.5651 56.3516 26.3828 56.0391 26.2266C55.7266 26.0703 55.4531 25.9271 55.2188 25.7969C54.9844 25.6406 54.8672 25.4453 54.8672 25.2109C54.8672 24.6641 55.0885 24.3255 55.5312 24.1953C56 24.0651 56.4948 24 57.0156 24H58.2266C58.2786 24 58.3958 23.974 58.5781 23.9219C58.7865 23.8438 58.9167 23.8047 58.9688 23.8047C59.0469 23.7786 59.1901 23.7526 59.3984 23.7266C59.6328 23.7005 59.8802 23.6745 60.1406 23.6484C60.401 23.6224 60.6354 23.6094 60.8438 23.6094C61.0781 23.5833 61.2474 23.5703 61.3516 23.5703H61.8203C61.9505 23.5703 62.0677 23.5703 62.1719 23.5703C62.3021 23.5443 62.4062 23.5312 62.4844 23.5312C62.6667 23.5312 62.901 23.5443 63.1875 23.5703C63.5 23.5703 63.6823 23.5703 63.7344 23.5703L66.8203 23.8047C66.8984 23.8047 67.1068 23.7917 67.4453 23.7656C67.8099 23.7135 68.2005 23.6615 68.6172 23.6094C69.0339 23.5312 69.4115 23.4661 69.75 23.4141C70.1146 23.362 70.3359 23.3359 70.4141 23.3359H70.4922C71.0911 23.3359 71.5859 23.5443 71.9766 23.9609C72.3672 24.3516 72.5625 24.8073 72.5625 25.3281C72.5625 25.7708 72.3932 26.1224 72.0547 26.3828C71.7422 26.6432 71.3516 26.8646 70.8828 27.0469C70.4401 27.2292 69.9714 27.3984 69.4766 27.5547C68.9818 27.6849 68.5651 27.8542 68.2266 28.0625C68.1484 28.1667 68.0443 28.2969 67.9141 28.4531C67.7839 28.6094 67.6406 28.7656 67.4844 28.9219C67.3542 29.0781 67.237 29.2214 67.1328 29.3516C67.0547 29.4557 67.0156 29.5208 67.0156 29.5469C67.0156 29.5469 67.0026 29.625 66.9766 29.7812C66.9505 29.9115 66.9245 30.0677 66.8984 30.25C66.8724 30.4062 66.8464 30.5625 66.8203 30.7188C66.8203 30.849 66.8203 30.9271 66.8203 30.9531L66.5469 31.8906V39.2734L66.8203 40.2109V43.8047C66.8724 44.2734 66.9635 44.7031 67.0938 45.0938C67.224 45.4844 67.2891 45.901 67.2891 46.3438L67.0156 49C67.0677 49.0521 67.1198 49.1432 67.1719 49.2734C67.224 49.4036 67.263 49.4688 67.2891 49.4688C67.3411 49.5469 67.4323 49.6641 67.5625 49.8203C67.7188 49.9766 67.888 50.1458 68.0703 50.3281C68.2526 50.4844 68.4219 50.6406 68.5781 50.7969C68.7344 50.9531 68.8516 51.0703 68.9297 51.1484C68.9557 51.1484 69.0339 51.1875 69.1641 51.2656C69.3203 51.3438 69.4245 51.3958 69.4766 51.4219C69.5286 51.474 69.6589 51.5781 69.8672 51.7344C70.1016 51.8906 70.349 52.0599 70.6094 52.2422C70.8698 52.4245 71.1172 52.6068 71.3516 52.7891C71.5859 52.9453 71.7422 53.0365 71.8203 53.0625C72.2891 53.375 72.7318 53.5964 73.1484 53.7266C73.5651 53.8568 73.9818 53.9609 74.3984 54.0391C74.8411 54.0911 75.2969 54.1302 75.7656 54.1562C76.2344 54.1562 76.7422 54.1953 77.2891 54.2734C77.6536 54.3255 78.0052 54.4167 78.3438 54.5469C78.6823 54.6771 79.0339 54.7422 79.3984 54.7422L80.8828 54.4688L82.7578 54.7422C83.4349 54.5078 83.9818 54.2214 84.3984 53.8828C84.8151 53.5443 85.3099 53.1146 85.8828 52.5938C86.2474 52.2552 86.4297 51.8255 86.4297 51.3047C86.4297 51.1224 86.4427 50.9401 86.4688 50.7578C86.5208 50.5755 86.5729 50.3021 86.625 49.9375C86.7812 49.6771 86.8984 49.4167 86.9766 49.1562C87.0547 48.8958 87.1198 48.6484 87.1719 48.4141C87.224 48.1536 87.2891 47.8932 87.3672 47.6328C87.4453 47.3724 87.5755 47.125 87.7578 46.8906V43.4531C87.7578 42.75 87.875 42.0859 88.1094 41.4609C88.3698 40.8099 88.5 40.1068 88.5 39.3516C88.5 39.0651 88.487 38.8047 88.4609 38.5703C88.4609 38.3099 88.4349 37.9974 88.3828 37.6328C88.3828 37.0599 88.3698 36.5391 88.3438 36.0703C88.3177 35.5755 88.2917 35.0807 88.2656 34.5859C88.2396 34.0651 88.2135 33.5052 88.1875 32.9062C88.1615 32.2812 88.1354 31.5391 88.1094 30.6797C87.9792 30.3411 87.849 29.9635 87.7188 29.5469C87.6146 29.1302 87.3802 28.8177 87.0156 28.6094C86.9896 28.5833 86.9115 28.5312 86.7812 28.4531C86.651 28.375 86.5078 28.2969 86.3516 28.2188C86.2214 28.1406 86.0781 28.0755 85.9219 28.0234C85.7917 27.9453 85.6875 27.8802 85.6094 27.8281C85.2969 27.6719 84.8542 27.5417 84.2812 27.4375C83.7344 27.3073 83.1875 27.151 82.6406 26.9688C82.0938 26.7604 81.612 26.526 81.1953 26.2656C80.8047 25.9792 80.6094 25.6016 80.6094 25.1328C80.6094 24.638 80.7266 24.2474 80.9609 23.9609C81.1953 23.6745 81.4948 23.4661 81.8594 23.3359C82.25 23.2057 82.6667 23.1276 83.1094 23.1016C83.5521 23.0755 83.9818 23.0625 84.3984 23.0625H86.0781L87.2891 23.3359H93.0312C93.0833 23.362 93.2266 23.401 93.4609 23.4531C93.6953 23.5052 93.8776 23.5443 94.0078 23.5703C94.112 23.5964 94.3333 23.6354 94.6719 23.6875C95.0104 23.7135 95.362 23.7526 95.7266 23.8047C96.1172 23.8568 96.4818 23.9089 96.8203 23.9609C97.1589 23.987 97.3932 24 97.5234 24C97.7839 24.1042 97.9271 24.2474 97.9531 24.4297C98.0052 24.612 98.0312 24.8073 98.0312 25.0156V25.1328C98.0312 25.3932 97.9792 25.6016 97.875 25.7578C97.7969 25.888 97.6927 26.0182 97.5625 26.1484C97.4323 26.2526 97.276 26.3698 97.0938 26.5C96.9115 26.6042 96.7292 26.7344 96.5469 26.8906C96.4688 26.9688 96.2995 27.138 96.0391 27.3984C95.8047 27.6328 95.5443 27.8932 95.2578 28.1797C94.9974 28.4661 94.737 28.7396 94.4766 29C94.2422 29.2604 94.0859 29.4427 94.0078 29.5469C93.6953 29.8333 93.3438 30.224 92.9531 30.7188C92.5625 31.1875 92.3411 31.6432 92.2891 32.0859L91.5469 38.8047C91.3646 39.0911 91.2734 39.4297 91.2734 39.8203L91.3516 40.9531C91.3255 41.0052 91.2995 41.1354 91.2734 41.3438C91.2474 41.5521 91.2214 41.7734 91.1953 42.0078C91.1953 42.2422 91.1823 42.4766 91.1562 42.7109C91.1302 42.9193 91.1042 43.0495 91.0781 43.1016C91.026 44.1693 91 45.1458 91 46.0312C91 46.8906 90.9479 47.724 90.8438 48.5312C90.7396 49.3125 90.5312 50.0938 90.2188 50.875C89.9062 51.6302 89.4115 52.4505 88.7344 53.3359L87.7578 54.2734C87.6797 54.3516 87.5495 54.4948 87.3672 54.7031C87.1849 54.9115 86.9896 55.1328 86.7812 55.3672C86.5729 55.6016 86.3646 55.8229 86.1562 56.0312C85.9479 56.2135 85.7917 56.3438 85.6875 56.4219C85.4792 56.4219 85.2188 56.4479 84.9062 56.5C84.6198 56.526 84.4505 56.5651 84.3984 56.6172C84.3464 56.6693 84.2552 56.7734 84.125 56.9297C83.9948 57.0599 83.8516 57.2161 83.6953 57.3984C83.5391 57.5547 83.3958 57.6979 83.2656 57.8281C83.1354 57.9583 83.0443 58.0365 82.9922 58.0625C82.9401 58.0885 82.849 58.1406 82.7188 58.2188C82.6146 58.2969 82.4844 58.375 82.3281 58.4531C82.1719 58.5312 82.0156 58.6094 81.8594 58.6875C81.7292 58.7396 81.625 58.7786 81.5469 58.8047C81.5208 58.8307 81.4297 58.8568 81.2734 58.8828C81.1432 58.9089 81 58.9349 80.8438 58.9609C80.6875 58.9609 80.5312 58.974 80.375 59C80.2448 59 80.1667 59 80.1406 59C80.0885 59.026 79.9583 59.0651 79.75 59.1172C79.5417 59.1953 79.3203 59.2734 79.0859 59.3516C78.8516 59.4557 78.6172 59.5339 78.3828 59.5859C78.1745 59.6641 78.0443 59.7161 77.9922 59.7422C77.8099 59.7682 77.6276 59.7812 77.4453 59.7812C77.2891 59.8073 77.1328 59.8203 76.9766 59.8203C76.8203 59.8203 76.7031 59.8203 76.625 59.8203C75.7917 59.8203 75.0885 59.7031 74.5156 59.4688C73.9427 59.2604 73.2917 59.1042 72.5625 59H71.0781C70.5573 58.9479 70.0234 58.8307 69.4766 58.6484C68.9297 58.4661 68.4349 58.2708 67.9922 58.0625C67.8359 57.9844 67.6276 57.8932 67.3672 57.7891C67.1068 57.6589 66.8464 57.5286 66.5859 57.3984C66.3516 57.2682 66.1302 57.1641 65.9219 57.0859C65.7396 56.9818 65.6354 56.9167 65.6094 56.8906C65.5833 56.8646 65.5052 56.7734 65.375 56.6172C65.2708 56.4609 65.1536 56.2917 65.0234 56.1094C64.8932 55.901 64.763 55.7188 64.6328 55.5625C64.5286 55.3802 64.4766 55.263 64.4766 55.2109C64.0599 54.7422 63.6432 54.2995 63.2266 53.8828C62.8359 53.4661 62.5234 52.9583 62.2891 52.3594L61.5469 48.5312ZM118.422 58.5312C118.292 58.5312 118.135 58.5312 117.953 58.5312C117.771 58.5312 117.589 58.5312 117.406 58.5312C117.25 58.5312 117.107 58.5443 116.977 58.5703C116.846 58.5703 116.768 58.5833 116.742 58.6094C116.326 58.6354 115.896 58.7266 115.453 58.8828C115.036 59.0391 114.607 59.1172 114.164 59.1172H113.773C113.721 59.1172 113.604 59.0911 113.422 59.0391C113.24 58.987 113.044 58.9349 112.836 58.8828C112.628 58.8047 112.419 58.7396 112.211 58.6875C112.003 58.6354 111.846 58.6094 111.742 58.6094C111.742 58.5573 111.625 58.5052 111.391 58.4531C111.182 58.375 111.052 58.3359 111 58.3359C110.948 58.3099 110.844 58.2969 110.688 58.2969C110.557 58.2708 110.401 58.2448 110.219 58.2188C110.036 58.1927 109.867 58.1797 109.711 58.1797C109.581 58.1536 109.516 58.1406 109.516 58.1406C109.281 58.0104 109.164 57.776 109.164 57.4375C109.164 57.3333 109.177 57.2422 109.203 57.1641C109.229 57.0859 109.242 57.0208 109.242 56.9688C109.242 56.526 109.372 56.1615 109.633 55.875C109.919 55.5885 110.258 55.3672 110.648 55.2109C111.039 55.0286 111.456 54.8854 111.898 54.7812C112.341 54.651 112.719 54.5469 113.031 54.4688C113.604 54.4167 113.995 54.3125 114.203 54.1562C114.438 54 114.555 53.5703 114.555 52.8672C114.555 52.6068 114.516 52.3464 114.438 52.0859C114.359 51.8255 114.32 51.5391 114.32 51.2266C114.32 50.7318 114.438 50.263 114.672 49.8203C114.932 49.3516 115.062 48.8568 115.062 48.3359C115.062 48.1536 115.023 47.9974 114.945 47.8672C114.867 47.7109 114.776 47.5677 114.672 47.4375C114.594 47.3073 114.516 47.1771 114.438 47.0469C114.359 46.8906 114.32 46.7083 114.32 46.5C114.32 46.2917 114.359 46.0703 114.438 45.8359C114.516 45.6016 114.555 45.3542 114.555 45.0938V45.0156C114.529 44.9635 114.516 44.9375 114.516 44.9375C114.438 44.651 114.333 44.3255 114.203 43.9609C114.099 43.5964 113.982 43.2188 113.852 42.8281C113.721 42.4375 113.578 42.0599 113.422 41.6953C113.292 41.3307 113.161 40.9922 113.031 40.6797C112.797 40.237 112.497 39.8464 112.133 39.5078C111.794 39.1693 111.508 38.8177 111.273 38.4531C110.779 37.6979 110.323 36.9557 109.906 36.2266C109.49 35.4714 109.021 34.7682 108.5 34.1172C108.448 34.0911 108.37 34.026 108.266 33.9219C108.161 33.8177 108.057 33.7135 107.953 33.6094C107.849 33.4792 107.745 33.375 107.641 33.2969C107.562 33.1927 107.51 33.1276 107.484 33.1016C107.458 33.0495 107.432 32.9453 107.406 32.7891C107.38 32.6328 107.354 32.4766 107.328 32.3203C107.328 32.138 107.315 31.9818 107.289 31.8516C107.263 31.6953 107.237 31.6042 107.211 31.5781C107.107 31.5 107.003 31.4089 106.898 31.3047L106.469 30.875C106.391 30.7969 106.208 30.6536 105.922 30.4453C105.635 30.2109 105.323 29.9635 104.984 29.7031C104.672 29.4167 104.359 29.1562 104.047 28.9219C103.76 28.6615 103.552 28.4661 103.422 28.3359C103.37 28.2839 103.214 28.1667 102.953 27.9844C102.693 27.8021 102.51 27.6458 102.406 27.5156C102.094 27.3073 101.768 27.151 101.43 27.0469C101.117 26.9427 100.818 26.8255 100.531 26.6953C100.271 26.5651 100.049 26.3958 99.8672 26.1875C99.7109 25.9531 99.6328 25.6016 99.6328 25.1328C99.6328 24.8203 99.724 24.5729 99.9062 24.3906C100.115 24.2083 100.362 24.0781 100.648 24C100.935 23.9219 101.247 23.8828 101.586 23.8828C101.951 23.8568 102.276 23.8438 102.562 23.8438H103.422C103.526 23.8438 103.695 23.8568 103.93 23.8828C104.164 23.8828 104.411 23.8958 104.672 23.9219C104.932 23.9479 105.167 23.974 105.375 24C105.609 24 105.753 24 105.805 24C105.831 24.0521 105.935 24.1172 106.117 24.1953C106.299 24.2474 106.417 24.2734 106.469 24.2734C106.495 24.2734 106.586 24.2604 106.742 24.2344C106.924 24.2083 107.107 24.1823 107.289 24.1562C107.497 24.1302 107.68 24.1042 107.836 24.0781C108.018 24.0521 108.122 24.026 108.148 24H108.891C109.411 24 109.893 24.0911 110.336 24.2734C110.805 24.4557 111.273 24.5469 111.742 24.5469L113.812 24.2734C114.047 24.2734 114.294 24.2995 114.555 24.3516C114.841 24.3776 115.089 24.4427 115.297 24.5469C115.531 24.651 115.714 24.7943 115.844 24.9766C116 25.1589 116.078 25.3932 116.078 25.6797C116.078 25.8359 115.935 26.0833 115.648 26.4219C115.388 26.7604 115.102 27.125 114.789 27.5156C114.477 27.8802 114.177 28.2318 113.891 28.5703C113.63 28.9089 113.5 29.1693 113.5 29.3516C113.5 29.5859 113.552 29.8203 113.656 30.0547C113.786 30.263 113.93 30.4844 114.086 30.7188C114.242 30.9271 114.398 31.1354 114.555 31.3438C114.737 31.526 114.88 31.7083 114.984 31.8906L116.273 34.1172C116.273 34.1693 116.286 34.2865 116.312 34.4688C116.339 34.651 116.365 34.8594 116.391 35.0938C116.417 35.3281 116.43 35.5625 116.43 35.7969C116.456 36.0052 116.469 36.1484 116.469 36.2266L117.328 37.1641C117.484 37.4245 117.589 37.6849 117.641 37.9453C117.719 38.1797 117.784 38.401 117.836 38.6094C117.914 38.8177 117.992 39.013 118.07 39.1953C118.174 39.3516 118.344 39.4818 118.578 39.5859C118.63 39.638 118.734 39.7161 118.891 39.8203C119.047 39.8984 119.203 39.9896 119.359 40.0938C119.516 40.1979 119.659 40.2891 119.789 40.3672C119.919 40.4193 120.01 40.4583 120.062 40.4844H121C121 39.9375 121.065 39.4688 121.195 39.0781C121.352 38.6875 121.534 38.3229 121.742 37.9844C121.951 37.6198 122.185 37.2812 122.445 36.9688C122.732 36.6302 123.018 36.2656 123.305 35.875C123.435 35.6927 123.578 35.3802 123.734 34.9375C123.917 34.4948 124.086 34.026 124.242 33.5312C124.398 33.0104 124.529 32.5156 124.633 32.0469C124.737 31.5521 124.789 31.1615 124.789 30.875C124.789 30.1719 124.633 29.5599 124.32 29.0391C124.008 28.4922 123.669 27.9193 123.305 27.3203C123.253 27.2422 123.201 27.112 123.148 26.9297C123.096 26.7474 123.07 26.6302 123.07 26.5781C123.07 26.1354 123.148 25.7969 123.305 25.5625C123.487 25.3021 123.747 25.0677 124.086 24.8594C124.268 24.7031 124.424 24.599 124.555 24.5469C124.711 24.4948 124.88 24.4688 125.062 24.4688L126.117 24.5469C126.143 24.5469 126.208 24.5339 126.312 24.5078C126.443 24.4818 126.573 24.4557 126.703 24.4297C126.833 24.3776 126.964 24.3385 127.094 24.3125C127.224 24.2865 127.302 24.2734 127.328 24.2734C127.38 24.2734 127.562 24.3125 127.875 24.3906C128.214 24.4427 128.461 24.4948 128.617 24.5469C128.643 24.5469 128.695 24.5599 128.773 24.5859C128.878 24.612 128.995 24.651 129.125 24.7031L129.594 24.8594C129.958 24.9115 130.336 24.9505 130.727 24.9766C131.117 25.0026 131.495 25.0156 131.859 25.0156C132.224 25.0156 132.576 25.0026 132.914 24.9766C133.253 24.9505 133.604 24.9115 133.969 24.8594C134.047 24.9635 134.164 25.0677 134.32 25.1719C134.503 25.276 134.672 25.3932 134.828 25.5234C135.01 25.6276 135.154 25.7578 135.258 25.9141C135.388 26.0443 135.453 26.1875 135.453 26.3438C135.401 26.3958 135.349 26.4609 135.297 26.5391C135.193 26.6953 135.128 26.7995 135.102 26.8516L134.906 27.0469C134.828 27.099 134.633 27.2031 134.32 27.3594C134.034 27.4896 133.721 27.6458 133.383 27.8281C133.044 27.9844 132.732 28.1406 132.445 28.2969C132.159 28.4531 131.99 28.5573 131.938 28.6094C131.911 28.6094 131.846 28.6615 131.742 28.7656C131.638 28.8698 131.521 28.987 131.391 29.1172C131.286 29.2214 131.169 29.3255 131.039 29.4297C130.935 29.5339 130.87 29.5859 130.844 29.5859C130.844 29.638 130.779 29.7031 130.648 29.7812C130.544 29.8594 130.414 29.9375 130.258 30.0156C130.128 30.0938 129.997 30.1719 129.867 30.25C129.737 30.3021 129.646 30.3281 129.594 30.3281C129.307 30.5885 129.086 30.862 128.93 31.1484C128.799 31.4089 128.604 31.6562 128.344 31.8906C128.318 31.9427 128.161 32.0599 127.875 32.2422C127.589 32.4245 127.406 32.5417 127.328 32.5938C127.328 32.6198 127.263 32.776 127.133 33.0625C127.029 33.349 126.938 33.5443 126.859 33.6484C126.807 33.7005 126.755 33.8698 126.703 34.1562C126.677 34.4167 126.638 34.5599 126.586 34.5859C126.56 34.638 126.482 34.7292 126.352 34.8594C126.247 34.9896 126.117 35.1328 125.961 35.2891C125.831 35.4193 125.701 35.5495 125.57 35.6797C125.466 35.7839 125.388 35.849 125.336 35.875C125.049 36.2396 124.88 36.6693 124.828 37.1641C124.802 37.6589 124.737 38.0885 124.633 38.4531C124.607 38.5052 124.555 38.5964 124.477 38.7266C124.424 38.8568 124.346 39 124.242 39.1562C124.164 39.3125 124.086 39.4688 124.008 39.625C123.93 39.7552 123.852 39.8333 123.773 39.8594C123.773 39.9115 123.721 40.0026 123.617 40.1328C123.539 40.237 123.448 40.3672 123.344 40.5234C123.24 40.6536 123.135 40.7839 123.031 40.9141C122.927 41.0443 122.862 41.1224 122.836 41.1484C122.784 41.2005 122.732 41.3438 122.68 41.5781C122.628 41.7865 122.602 41.9167 122.602 41.9688C122.576 42.1771 122.562 42.3854 122.562 42.5938C122.562 42.776 122.562 42.9453 122.562 43.1016V44.0781C122.562 44.3646 122.549 44.638 122.523 44.8984C122.497 45.1328 122.419 45.4193 122.289 45.7578C122.211 45.888 122.133 46.0052 122.055 46.1094C122.003 46.2135 121.951 46.3047 121.898 46.3828C121.846 46.4349 121.82 46.474 121.82 46.5C121.69 46.8125 121.612 47.099 121.586 47.3594C121.586 47.6198 121.586 47.8932 121.586 48.1797V48.7266C121.612 48.8828 121.638 49.1172 121.664 49.4297C121.69 49.7422 121.716 50.0677 121.742 50.4062C121.768 50.7448 121.781 51.0573 121.781 51.3438C121.807 51.6042 121.82 51.7734 121.82 51.8516C121.846 51.8776 121.885 51.9818 121.938 52.1641C121.99 52.3203 122.042 52.4375 122.094 52.5156C122.12 52.5938 122.185 52.724 122.289 52.9062C122.393 53.0885 122.51 53.2839 122.641 53.4922C122.771 53.7005 122.901 53.8958 123.031 54.0781C123.161 54.2604 123.253 54.3906 123.305 54.4688C123.487 54.7292 123.721 54.9505 124.008 55.1328C124.32 55.2891 124.607 55.4453 124.867 55.6016C125.154 55.7578 125.401 55.9401 125.609 56.1484C125.818 56.3568 125.922 56.6302 125.922 56.9688C125.922 57.4115 125.844 57.75 125.688 57.9844C125.557 58.2188 125.375 58.401 125.141 58.5312C124.906 58.6615 124.62 58.7656 124.281 58.8438C123.969 58.9219 123.643 59.013 123.305 59.1172L122.836 59.3516L121.82 59.1172C121.742 59.0911 121.599 59.0521 121.391 59C121.208 58.9479 121 58.8958 120.766 58.8438C120.557 58.7656 120.362 58.7135 120.18 58.6875C119.997 58.6354 119.88 58.6094 119.828 58.6094C119.802 58.5573 119.607 58.5312 119.242 58.5312C118.878 58.5312 118.604 58.5312 118.422 58.5312ZM166.625 57.3203C166.625 56.5911 166.846 56.0443 167.289 55.6797C167.732 55.2891 168.292 55.0938 168.969 55.0938L171.547 55.4062C172.198 55.4062 172.849 55.276 173.5 55.0156C174.177 54.7552 174.802 54.4167 175.375 54C175.974 53.5573 176.482 53.0495 176.898 52.4766C177.315 51.9036 177.602 51.3047 177.758 50.6797V48.6094C177.888 47.4635 178.07 46.3828 178.305 45.3672C178.539 44.3255 178.656 43.2578 178.656 42.1641L178.109 40.4844V31.5C178.057 31.1875 178.018 30.888 177.992 30.6016C177.992 30.2891 177.992 29.9375 177.992 29.5469V22.4375C178.096 22.151 178.161 21.8125 178.188 21.4219C178.214 21.0052 178.227 20.5625 178.227 20.0938C178.227 19.599 178.201 19.1823 178.148 18.8438C178.122 18.4792 178.109 18.1406 178.109 17.8281L178.383 17.4375V12.9062C178.174 12.4635 178.031 12.0729 177.953 11.7344C177.875 11.3698 177.771 11.0703 177.641 10.8359C177.51 10.5755 177.315 10.3802 177.055 10.25C176.82 10.1198 176.43 10.0547 175.883 10.0547L173.734 10.6016C173.057 10.6016 172.38 10.4974 171.703 10.2891C171.052 10.0547 170.349 9.80729 169.594 9.54688C168.318 9.625 167.25 9.71615 166.391 9.82031C165.531 9.89844 164.75 10.0286 164.047 10.2109C163.344 10.3932 162.654 10.6276 161.977 10.9141C161.299 11.2005 160.505 11.5911 159.594 12.0859C159.255 12.5286 158.943 13.0625 158.656 13.6875C158.37 14.3125 158.057 14.9245 157.719 15.5234C157.406 16.0964 157.042 16.5911 156.625 17.0078C156.208 17.4245 155.714 17.6328 155.141 17.6328C154.984 17.6328 154.802 17.6328 154.594 17.6328C154.385 17.6328 154.19 17.6198 154.008 17.5938C153.852 17.5417 153.708 17.4766 153.578 17.3984C153.448 17.3203 153.383 17.2161 153.383 17.0859C153.383 16.6432 153.409 16.2656 153.461 15.9531C153.539 15.6146 153.63 15.3021 153.734 15.0156C153.839 14.7292 153.93 14.4427 154.008 14.1562C154.112 13.8438 154.19 13.4922 154.242 13.1016V10.6016L154.867 9.11719C154.945 8.9349 155.01 8.66146 155.062 8.29688C155.141 7.90625 155.206 7.5026 155.258 7.08594C155.336 6.66927 155.414 6.2526 155.492 5.83594C155.57 5.41927 155.648 5.08073 155.727 4.82031C155.805 4.42969 155.896 4.02604 156 3.60938C156.104 3.19271 156.247 2.8151 156.43 2.47656C156.612 2.11198 156.833 1.8125 157.094 1.57812C157.38 1.34375 157.745 1.22656 158.188 1.22656C158.682 1.22656 159.216 1.42188 159.789 1.8125C160.362 2.20312 160.935 2.65885 161.508 3.17969C162.107 3.67448 162.68 4.15625 163.227 4.625C163.799 5.09375 164.32 5.40625 164.789 5.5625C165.023 5.61458 165.427 5.69271 166 5.79688C166.599 5.875 167.224 5.96615 167.875 6.07031C168.552 6.17448 169.177 6.26562 169.75 6.34375C170.323 6.39583 170.727 6.42188 170.961 6.42188C171.352 6.42188 171.703 6.39583 172.016 6.34375C172.328 6.26562 172.628 6.1875 172.914 6.10938C173.201 6.00521 173.5 5.92708 173.812 5.875C174.151 5.79688 174.542 5.75781 174.984 5.75781H175.961C176.534 5.75781 176.872 5.77083 176.977 5.79688C177.081 5.84896 177.276 5.95312 177.562 6.10938C177.875 6.26562 178.057 6.36979 178.109 6.42188H178.305C178.747 6.42188 179.164 6.38281 179.555 6.30469C179.971 6.20052 180.388 6.09635 180.805 5.99219C181.221 5.88802 181.638 5.79688 182.055 5.71875C182.471 5.61458 182.914 5.5625 183.383 5.5625C183.93 5.5625 184.438 5.64062 184.906 5.79688C185.375 5.95312 185.818 6.03125 186.234 6.03125H187.445C188.513 6.03125 189.555 6.00521 190.57 5.95312C191.612 5.875 192.667 5.79688 193.734 5.71875C194.828 5.64062 195.935 5.5625 197.055 5.48438C198.201 5.40625 199.411 5.35417 200.688 5.32812C201.052 5.32812 201.365 5.38021 201.625 5.48438C201.885 5.5625 202.159 5.60156 202.445 5.60156C202.784 5.60156 203.057 5.52344 203.266 5.36719C203.5 5.1849 203.708 4.98958 203.891 4.78125C204.073 4.54688 204.242 4.32552 204.398 4.11719C204.581 3.88281 204.789 3.70052 205.023 3.57031C205.362 3.4401 205.674 3.28385 205.961 3.10156C206.273 2.89323 206.56 2.69792 206.82 2.51562C207.107 2.30729 207.38 2.13802 207.641 2.00781C207.927 1.8776 208.24 1.8125 208.578 1.8125C208.865 1.8125 209.112 1.98177 209.32 2.32031C209.555 2.63281 209.763 2.89323 209.945 3.10156C209.945 3.15365 209.958 3.19271 209.984 3.21875C209.984 3.24479 209.997 3.25781 210.023 3.25781C209.971 3.41406 209.945 3.6224 209.945 3.88281C209.945 4.11719 209.945 4.3776 209.945 4.66406V8.53125C209.945 8.86979 209.945 9.14323 209.945 9.35156C209.945 9.5599 209.971 9.72917 210.023 9.85938L210.336 14.0781C210.336 14.1562 210.323 14.2995 210.297 14.5078C210.297 14.7161 210.284 14.9375 210.258 15.1719C210.258 15.3802 210.245 15.5885 210.219 15.7969C210.219 15.9792 210.219 16.0964 210.219 16.1484C210.036 16.4609 209.698 16.6172 209.203 16.6172C208.734 16.6172 208.318 16.4479 207.953 16.1094C207.589 15.7448 207.237 15.3281 206.898 14.8594C206.586 14.3906 206.273 13.9349 205.961 13.4922C205.674 13.0234 205.362 12.6719 205.023 12.4375C204.503 12.0208 203.995 11.6693 203.5 11.3828C203.031 11.0964 202.589 10.6797 202.172 10.1328L200.766 10.2891L191.547 9.54688L190.219 9.85938L188.266 9.54688H187.562L186.977 10.1328C186.977 10.1068 186.964 10.237 186.938 10.5234C186.911 10.8099 186.872 11.1615 186.82 11.5781C186.794 11.9948 186.768 12.4115 186.742 12.8281C186.716 13.2448 186.703 13.5833 186.703 13.8438L186.977 17.9062V25.6797L186.43 28.6094L186.977 33.375C186.977 33.6615 186.964 33.8828 186.938 34.0391C186.911 34.1953 186.833 34.4297 186.703 34.7422C186.703 35.0547 186.703 35.5625 186.703 36.2656C186.729 36.9688 186.742 37.763 186.742 38.6484C186.742 39.4818 186.729 40.224 186.703 40.875C186.703 41.526 186.703 42.0078 186.703 42.3203L186.43 44.2734C186.43 44.5859 186.443 45.0286 186.469 45.6016C186.495 46.1484 186.534 46.7604 186.586 47.4375C186.638 48.1146 186.716 48.8177 186.82 49.5469C186.924 50.25 187.068 50.901 187.25 51.5C187.432 52.099 187.641 52.6198 187.875 53.0625C188.135 53.4792 188.435 53.7266 188.773 53.8047L193.852 55.0938H194.75L195.805 54.8594C196.117 54.8594 196.378 54.9505 196.586 55.1328C196.82 55.2891 197.003 55.4974 197.133 55.7578C197.289 56.0182 197.393 56.2917 197.445 56.5781C197.523 56.8385 197.562 57.0859 197.562 57.3203C197.562 57.763 197.471 58.1146 197.289 58.375C197.107 58.6094 196.872 58.7917 196.586 58.9219C196.299 59.0521 195.974 59.1302 195.609 59.1562C195.271 59.1823 194.932 59.1953 194.594 59.1953C194.307 59.1953 194.047 59.1562 193.812 59.0781C193.578 59 193.318 58.8568 193.031 58.6484C192.797 58.5182 192.523 58.401 192.211 58.2969C191.898 58.1927 191.586 58.1406 191.273 58.1406L189.32 58.6484C188.799 58.6484 188.174 58.5573 187.445 58.375C186.716 58.1927 185.974 58.0365 185.219 57.9062C185.193 57.9062 185.076 57.9323 184.867 57.9844C184.659 58.0104 184.424 58.0625 184.164 58.1406C183.904 58.1927 183.656 58.2448 183.422 58.2969C183.214 58.3229 183.083 58.3359 183.031 58.3359H179.516C178.917 58.362 178.383 58.4792 177.914 58.6875C177.445 58.8958 176.924 59 176.352 59C176.169 58.9479 175.909 58.8828 175.57 58.8047C175.232 58.7005 175.036 58.6484 174.984 58.6484C174.62 58.6484 174.281 58.7005 173.969 58.8047C173.682 58.8828 173.357 58.974 172.992 59.0781C172.497 59.1823 172.016 59.2865 171.547 59.3906C171.104 59.4948 170.609 59.5469 170.062 59.5469H169.477C169.112 59.5469 168.773 59.5208 168.461 59.4688C168.148 59.4167 167.758 59.3255 167.289 59.1953C167.289 59.1432 167.224 58.8958 167.094 58.4531C166.964 57.9844 166.807 57.6068 166.625 57.3203ZM209.867 57.8672C209.867 57.3464 210.036 56.9948 210.375 56.8125C210.714 56.6042 211.13 56.4609 211.625 56.3828C212.12 56.3047 212.628 56.2396 213.148 56.1875C213.669 56.1354 214.112 55.9922 214.477 55.7578C214.503 55.7318 214.529 55.6927 214.555 55.6406C214.633 55.5625 214.672 55.5104 214.672 55.4844C214.75 55.3802 214.854 55.2109 214.984 54.9766C215.141 54.7422 215.284 54.5078 215.414 54.2734C215.57 54.013 215.714 53.7786 215.844 53.5703C215.974 53.3359 216.052 53.1797 216.078 53.1016C216.208 52.8932 216.286 52.6849 216.312 52.4766C216.339 52.2422 216.352 51.8906 216.352 51.4219C216.352 51.1354 216.326 50.901 216.273 50.7188C216.221 50.5365 216.169 50.3672 216.117 50.2109C216.065 50.0547 216.013 49.8984 215.961 49.7422C215.909 49.5599 215.883 49.3516 215.883 49.1172L216.625 45.2109C216.625 45.1068 216.599 44.9375 216.547 44.7031C216.521 44.4427 216.456 44 216.352 43.375V41.5C216.299 41.4219 216.208 41.2135 216.078 40.875C215.948 40.5104 215.883 40.224 215.883 40.0156C216.091 39.3646 216.221 38.7266 216.273 38.1016C216.326 37.4505 216.352 36.7865 216.352 36.1094V34.8203L216.078 33.6094C216.026 33.2969 216 32.9844 216 32.6719C216 32.3333 216 32.0078 216 31.6953C216 31.4089 216 31.1094 216 30.7969C216 30.4844 216.026 30.1589 216.078 29.8203C216.026 29.5339 215.857 29.2604 215.57 29C215.284 28.7135 215.076 28.5052 214.945 28.375C214.424 28.0104 213.865 27.8151 213.266 27.7891C212.693 27.763 212.146 27.724 211.625 27.6719C211.13 27.6198 210.714 27.4635 210.375 27.2031C210.036 26.9167 209.867 26.3438 209.867 25.4844C209.867 24.9635 210.089 24.625 210.531 24.4688C210.974 24.2865 211.404 24.1693 211.82 24.1172H214.047C215.245 24.1172 216.417 24.1042 217.562 24.0781C218.734 24.0521 219.906 23.974 221.078 23.8438C221.26 23.7135 221.482 23.6354 221.742 23.6094C222.003 23.5833 222.276 23.5703 222.562 23.5703H225.141C225.193 23.5703 225.284 23.5833 225.414 23.6094C225.57 23.6354 225.727 23.6745 225.883 23.7266C226.039 23.7526 226.182 23.7786 226.312 23.8047C226.443 23.8307 226.521 23.8438 226.547 23.8438C226.911 23.8438 227.289 23.8828 227.68 23.9609C228.07 24.013 228.266 24.1432 228.266 24.3516C228.292 24.4818 228.318 24.612 228.344 24.7422C228.37 24.8464 228.383 24.9635 228.383 25.0938C228.383 25.25 228.37 25.4193 228.344 25.6016C228.318 25.7578 228.292 25.901 228.266 26.0312C228.214 26.1615 228.083 26.2917 227.875 26.4219C227.693 26.526 227.484 26.6302 227.25 26.7344C227.016 26.8385 226.781 26.9297 226.547 27.0078C226.312 27.0599 226.156 27.112 226.078 27.1641L224.672 28.375C224.464 28.5052 224.203 28.5964 223.891 28.6484C223.578 28.7005 223.357 28.8568 223.227 29.1172C223.201 29.1693 223.122 29.3125 222.992 29.5469C222.888 29.7812 222.81 29.9635 222.758 30.0938C222.732 30.1458 222.693 30.276 222.641 30.4844C222.615 30.5885 222.589 30.6797 222.562 30.7578V34.3516C222.562 34.4036 222.589 34.5469 222.641 34.7812C222.693 34.9896 222.732 35.25 222.758 35.5625C222.758 35.6146 222.732 35.7318 222.68 35.9141C222.628 36.0964 222.562 36.2917 222.484 36.5C222.432 36.7083 222.38 36.9036 222.328 37.0859C222.302 37.2682 222.289 37.3854 222.289 37.4375V40.7578L222.016 45.2109L222.758 48.6484V49.8203C222.758 49.8724 222.719 50.0417 222.641 50.3281C222.589 50.6146 222.562 50.8229 222.562 50.9531C222.562 51.0312 222.602 51.1745 222.68 51.3828C222.784 51.5651 222.888 51.7604 222.992 51.9688C223.122 52.1771 223.24 52.3724 223.344 52.5547C223.448 52.737 223.5 52.8542 223.5 52.9062C223.578 53.1406 223.63 53.4271 223.656 53.7656C223.708 54.0781 223.773 54.3906 223.852 54.7031C223.956 54.9896 224.099 55.237 224.281 55.4453C224.49 55.6536 224.776 55.7578 225.141 55.7578C225.427 55.7578 225.674 55.7188 225.883 55.6406C226.091 55.5365 226.312 55.4844 226.547 55.4844C226.729 55.4844 226.964 55.5104 227.25 55.5625C227.562 55.6146 227.862 55.7057 228.148 55.8359C228.435 55.9401 228.682 56.0964 228.891 56.3047C229.099 56.487 229.203 56.7083 229.203 56.9688C229.203 57.3854 229.099 57.737 228.891 58.0234C228.708 58.2839 228.461 58.5052 228.148 58.6875C227.862 58.8438 227.536 58.9479 227.172 59C226.807 59.0781 226.469 59.1172 226.156 59.1172L221.898 58.8828H220.805C220.753 58.8828 220.596 58.9219 220.336 59C220.076 59.0781 219.919 59.1172 219.867 59.1172H215.883L214.203 59.3516H212.992C212.706 59.3516 212.38 59.3385 212.016 59.3125C211.677 59.3125 211.339 59.2604 211 59.1562C210.688 59.0781 210.414 58.9349 210.18 58.7266C209.971 58.5182 209.867 58.2318 209.867 57.8672ZM246.703 58.2969C246.417 58.2969 246.208 58.3229 246.078 58.375C245.948 58.401 245.701 58.4401 245.336 58.4922L242.641 57.2812L241.469 56.3438L240.062 55.6797C239.802 55.4974 239.581 55.3021 239.398 55.0938C239.242 54.8854 239.099 54.6641 238.969 54.4297C238.839 54.1953 238.695 53.9609 238.539 53.7266C238.383 53.4922 238.201 53.2578 237.992 53.0234C237.94 52.9193 237.862 52.6979 237.758 52.3594C237.654 52.0208 237.536 51.6693 237.406 51.3047C237.276 50.9401 237.146 50.6016 237.016 50.2891C236.885 49.9505 236.794 49.7161 236.742 49.5859C236.742 49.5078 236.677 49.3516 236.547 49.1172C236.443 48.8828 236.326 48.6354 236.195 48.375C236.065 48.1146 235.935 47.8672 235.805 47.6328C235.701 47.3984 235.635 47.2422 235.609 47.1641C235.557 47.112 235.505 46.9167 235.453 46.5781C235.427 46.2135 235.388 45.9141 235.336 45.6797C235.154 45.0286 234.997 44.3776 234.867 43.7266C234.737 43.0495 234.672 42.3724 234.672 41.6953L234.789 40.0547C234.789 39.638 234.776 39.3255 234.75 39.1172C234.75 38.9089 234.724 38.6354 234.672 38.2969C234.62 38.1146 234.594 37.9323 234.594 37.75C234.594 37.5677 234.594 37.3724 234.594 37.1641C234.594 36.9557 234.594 36.7344 234.594 36.5C234.594 36.2656 234.62 36.0052 234.672 35.7188C234.698 35.6927 234.75 35.6406 234.828 35.5625C234.906 35.4583 234.984 35.3542 235.062 35.25C235.141 35.1198 235.206 35.0156 235.258 34.9375C235.336 34.8333 235.388 34.7552 235.414 34.7031C235.44 34.7031 235.466 34.651 235.492 34.5469C235.544 34.4167 235.596 34.2865 235.648 34.1562C235.701 34.026 235.74 33.9089 235.766 33.8047C235.818 33.6745 235.857 33.5964 235.883 33.5703C235.883 33.4922 235.987 33.349 236.195 33.1406C236.43 32.9323 236.612 32.6849 236.742 32.3984C236.768 32.3203 236.846 32.151 236.977 31.8906C237.107 31.6042 237.237 31.3047 237.367 30.9922C237.523 30.6797 237.654 30.3932 237.758 30.1328C237.888 29.8464 237.966 29.6641 237.992 29.5859C237.992 29.5599 238.005 29.5339 238.031 29.5078C238.057 29.4557 238.083 29.4036 238.109 29.3516C238.135 29.2995 238.174 29.2344 238.227 29.1562L238.266 29.1172C238.266 29.1172 238.292 29.0911 238.344 29.0391L238.461 28.9219C238.487 28.7917 238.591 28.5964 238.773 28.3359C238.956 28.0495 239.047 27.8542 239.047 27.75C239.646 27.75 240.206 27.5938 240.727 27.2812C241.273 26.9427 241.846 26.5391 242.445 26.0703C242.497 26.0443 242.589 25.9531 242.719 25.7969C242.849 25.6146 242.979 25.4323 243.109 25.25C243.266 25.0677 243.409 24.8984 243.539 24.7422C243.669 24.5599 243.747 24.4427 243.773 24.3906C243.826 24.3646 243.917 24.2865 244.047 24.1562L244.242 23.9609C244.372 23.9609 244.542 23.974 244.75 24C244.958 24.026 245.336 24.1042 245.883 24.2344C246.091 24.2344 246.286 24.1823 246.469 24.0781C246.677 23.974 246.885 23.8568 247.094 23.7266C247.328 23.5964 247.576 23.4792 247.836 23.375C248.096 23.2708 248.396 23.2188 248.734 23.2188C248.839 23.2188 248.969 23.2188 249.125 23.2188C249.307 23.2188 249.424 23.2448 249.477 23.2969C249.503 23.2969 249.568 23.3099 249.672 23.3359C249.802 23.362 249.932 23.388 250.062 23.4141C250.193 23.4141 250.31 23.4271 250.414 23.4531C250.518 23.4792 250.583 23.4922 250.609 23.4922C250.635 23.4922 250.727 23.4792 250.883 23.4531C251.039 23.401 251.195 23.349 251.352 23.2969C251.534 23.2448 251.69 23.1927 251.82 23.1406C251.977 23.0885 252.068 23.0495 252.094 23.0234C252.615 22.8932 253.031 22.8151 253.344 22.7891C253.682 22.763 254.125 22.75 254.672 22.75C254.802 22.75 255.01 22.763 255.297 22.7891C255.609 22.8151 255.779 22.8281 255.805 22.8281C255.883 22.8802 255.961 22.9193 256.039 22.9453C256.195 22.9974 256.273 23.0234 256.273 23.0234H257.641C257.693 23.0234 257.771 23.0625 257.875 23.1406C257.979 23.1927 258.057 23.2448 258.109 23.2969H259.125C259.177 23.2708 259.294 23.2448 259.477 23.2188C259.659 23.1927 259.854 23.1667 260.062 23.1406C260.271 23.1146 260.453 23.0885 260.609 23.0625C260.792 23.0365 260.909 23.0234 260.961 23.0234C260.961 23.0495 261.013 23.0885 261.117 23.1406C261.247 23.1927 261.391 23.2578 261.547 23.3359C261.703 23.4141 261.859 23.4922 262.016 23.5703C262.172 23.6224 262.289 23.6615 262.367 23.6875C262.367 23.7396 262.393 23.7917 262.445 23.8438C262.523 23.8958 262.589 23.9349 262.641 23.9609C262.641 24.013 262.693 24.1432 262.797 24.3516C262.927 24.5599 263.005 24.6641 263.031 24.6641C263.214 24.6901 263.435 24.7812 263.695 24.9375C263.956 25.0677 264.151 25.3021 264.281 25.6406C264.281 26.0573 264.203 26.4219 264.047 26.7344C263.995 26.9688 263.93 27.2161 263.852 27.4766C263.773 27.737 263.734 28.0495 263.734 28.4141C263.786 28.4661 263.904 28.6224 264.086 28.8828C264.294 29.1432 264.424 29.3125 264.477 29.3906C264.581 29.625 264.646 29.8854 264.672 30.1719C264.724 30.4323 264.75 30.7057 264.75 30.9922C264.75 31.2005 264.724 31.487 264.672 31.8516C264.62 32.2161 264.542 32.5807 264.438 32.9453C264.333 33.2839 264.177 33.5833 263.969 33.8438C263.786 34.1042 263.565 34.2344 263.305 34.2344C263.018 34.2344 262.706 34.0911 262.367 33.8047C262.055 33.5182 261.729 33.1536 261.391 32.7109C261.052 32.2422 260.701 31.7344 260.336 31.1875C259.971 30.6146 259.62 30.0677 259.281 29.5469C258.943 29.026 258.617 28.5573 258.305 28.1406C257.992 27.724 257.706 27.4115 257.445 27.2031C257.341 27.151 257.068 27.099 256.625 27.0469C256.208 26.9688 255.779 26.9297 255.336 26.9297C255.023 26.9297 254.711 26.8646 254.398 26.7344C254.112 26.6042 253.812 26.474 253.5 26.3438C253.214 26.2135 252.914 26.0964 252.602 25.9922C252.315 25.862 252.016 25.7969 251.703 25.7969L250.805 26.5391C250.544 26.7474 250.245 26.9167 249.906 27.0469C249.568 27.151 249.216 27.2422 248.852 27.3203C248.487 27.3984 248.135 27.4896 247.797 27.5938C247.458 27.6719 247.159 27.776 246.898 27.9062C246.247 28.349 245.648 28.8438 245.102 29.3906C244.581 29.9375 243.956 30.3802 243.227 30.7188V33.2969C242.836 33.7396 242.576 34.1432 242.445 34.5078C242.341 34.8724 242.185 35.3411 241.977 35.9141C241.951 35.9661 241.911 36.0573 241.859 36.1875C241.807 36.2917 241.742 36.4089 241.664 36.5391C241.612 36.6693 241.56 36.7865 241.508 36.8906C241.482 36.9948 241.469 37.0599 241.469 37.0859C241.469 37.138 241.508 37.2943 241.586 37.5547C241.664 37.8151 241.716 37.9714 241.742 38.0234L241.273 41.1875C241.273 41.5521 241.326 41.8646 241.43 42.125C241.534 42.3854 241.638 42.6589 241.742 42.9453C241.951 43.8307 242.133 44.6771 242.289 45.4844C242.445 46.2917 242.81 47.0729 243.383 47.8281C243.409 47.8802 243.5 47.9974 243.656 48.1797C243.839 48.3359 244.021 48.5182 244.203 48.7266C244.411 48.9089 244.594 49.0911 244.75 49.2734C244.932 49.4297 245.036 49.5339 245.062 49.5859C245.089 49.612 245.102 49.7031 245.102 49.8594C245.128 49.9896 245.154 50.1458 245.18 50.3281C245.206 50.5104 245.219 50.6927 245.219 50.875C245.245 51.0312 245.258 51.1354 245.258 51.1875C245.31 51.2656 245.453 51.4219 245.688 51.6562C245.922 51.8646 246.104 52.0339 246.234 52.1641C246.234 52.1641 246.299 52.2031 246.43 52.2812C246.586 52.3333 246.742 52.3984 246.898 52.4766C247.055 52.5286 247.198 52.5938 247.328 52.6719C247.458 52.75 247.536 52.8021 247.562 52.8281C247.823 53.0104 248.07 53.2318 248.305 53.4922C248.565 53.7266 248.812 53.9609 249.047 54.1953C249.307 54.4297 249.568 54.638 249.828 54.8203C250.115 55.0026 250.44 55.1068 250.805 55.1328H252.289L253.266 55.6797H253.93L256.625 55.1328L258.109 55.4453C258.526 55.3151 258.943 55.1979 259.359 55.0938C259.802 54.9635 260.18 54.8203 260.492 54.6641C260.518 54.6641 260.583 54.5599 260.688 54.3516C260.818 54.1432 261 53.6354 261.234 52.8281C261.234 52.776 261.247 52.6719 261.273 52.5156C261.299 52.3594 261.312 52.1901 261.312 52.0078C261.339 51.8255 261.365 51.6562 261.391 51.5C261.417 51.3438 261.43 51.2396 261.43 51.1875C261.56 50.5885 261.742 50.0026 261.977 49.4297C262.211 48.8307 262.432 48.2318 262.641 47.6328C262.745 47.2682 262.81 46.9688 262.836 46.7344C262.862 46.5 262.914 46.3047 262.992 46.1484C263.07 45.9661 263.201 45.8229 263.383 45.7188C263.565 45.5885 263.839 45.4583 264.203 45.3281C264.229 45.3021 264.307 45.263 264.438 45.2109C264.568 45.1589 264.698 45.1068 264.828 45.0547C264.984 45.0026 265.115 44.9635 265.219 44.9375C265.349 44.8854 265.44 44.8594 265.492 44.8594H265.531C265.688 44.8594 265.883 44.9245 266.117 45.0547C266.352 45.1589 266.573 45.2891 266.781 45.4453C266.99 45.6016 267.172 45.7708 267.328 45.9531C267.484 46.1354 267.562 46.3047 267.562 46.4609V49.9766C267.667 50.1589 267.719 50.3672 267.719 50.6016C267.745 50.8359 267.758 51.1745 267.758 51.6172C267.758 52.2682 267.536 52.8932 267.094 53.4922C266.651 54.0911 266.117 54.638 265.492 55.1328C264.867 55.6016 264.203 56.0312 263.5 56.4219C262.797 56.7865 262.198 57.0729 261.703 57.2812C261.651 57.3333 261.482 57.3854 261.195 57.4375C260.935 57.4635 260.792 57.4766 260.766 57.4766C260.245 57.6849 259.737 57.9844 259.242 58.375C258.773 58.7396 258.24 59.013 257.641 59.1953C257.589 59.1953 257.458 59.2083 257.25 59.2344C257.042 59.2604 256.794 59.2734 256.508 59.2734C256.247 59.2995 255.987 59.3255 255.727 59.3516C255.466 59.3776 255.271 59.3906 255.141 59.3906C255.062 59.3906 254.893 59.3906 254.633 59.3906C254.398 59.3906 254.125 59.3906 253.812 59.3906C253.526 59.4167 253.227 59.4297 252.914 59.4297C252.602 59.4297 252.354 59.4297 252.172 59.4297C252.042 59.4297 251.859 59.4297 251.625 59.4297C251.417 59.4297 251.195 59.4167 250.961 59.3906C250.753 59.3906 250.57 59.3906 250.414 59.3906C250.258 59.3906 250.167 59.3906 250.141 59.3906C249.62 59.2865 249.112 59.1693 248.617 59.0391C248.148 58.9089 247.706 58.7135 247.289 58.4531L246.703 58.2969ZM299.398 58.8047C299.19 58.8047 298.995 58.8177 298.812 58.8438C298.656 58.8698 298.474 58.8958 298.266 58.9219C297.979 58.974 297.706 59.013 297.445 59.0391C297.185 59.0651 296.911 59.0781 296.625 59.0781L295.219 59C294.854 58.8958 294.581 58.7266 294.398 58.4922C294.216 58.2318 294.086 57.9453 294.008 57.6328C293.93 57.3203 293.891 57.0078 293.891 56.6953C293.891 56.3568 293.878 56.0443 293.852 55.7578C293.826 55.6276 293.786 55.3932 293.734 55.0547C293.682 54.7161 293.63 54.3646 293.578 54C293.552 53.6354 293.513 53.2839 293.461 52.9453C293.435 52.6068 293.409 52.3724 293.383 52.2422C293.148 51.9297 292.979 51.6302 292.875 51.3438C292.771 51.0312 292.628 50.7188 292.445 50.4062L291.703 49.6641C291.703 49.638 291.677 49.5078 291.625 49.2734C291.573 49.013 291.534 48.8568 291.508 48.8047C291.404 48.5182 291.182 48.1016 290.844 47.5547C290.505 46.9818 290.115 46.4219 289.672 45.875C289.255 45.3281 288.812 44.8594 288.344 44.4688C287.875 44.0521 287.458 43.8438 287.094 43.8438C287.016 43.8958 286.911 43.9609 286.781 44.0391C286.651 44.0911 286.508 44.1562 286.352 44.2344C286.221 44.3125 286.091 44.3906 285.961 44.4688C285.831 44.5469 285.74 44.599 285.688 44.625C285.583 44.651 285.479 44.7552 285.375 44.9375C285.271 45.0938 285.219 45.2109 285.219 45.2891C285.167 45.7578 285.128 46.2396 285.102 46.7344C285.076 47.2292 285.062 47.737 285.062 48.2578L285.219 51.8516C285.219 51.8776 285.18 51.9818 285.102 52.1641C285.049 52.3464 285.023 52.5286 285.023 52.7109C285.023 52.737 285.049 52.8281 285.102 52.9844C285.128 53.0625 285.167 53.1276 285.219 53.1797V54.1172C285.271 54.4036 285.362 54.5859 285.492 54.6641C285.648 54.7161 285.779 54.8594 285.883 55.0938L286.352 55.9531C286.378 56.0052 286.456 56.0833 286.586 56.1875C286.716 56.2917 286.846 56.4089 286.977 56.5391C287.133 56.6693 287.263 56.7995 287.367 56.9297C287.497 57.0339 287.562 57.099 287.562 57.125V57.5938C287.562 57.8021 287.497 57.9714 287.367 58.1016C287.263 58.2057 287.12 58.2969 286.938 58.375C286.781 58.4271 286.599 58.4922 286.391 58.5703C286.208 58.6224 286.039 58.7005 285.883 58.8047H282.641C282.51 58.9349 282.367 59.013 282.211 59.0391C282.081 59.0651 281.938 59.0781 281.781 59.0781C281.339 59.0781 280.935 59.026 280.57 58.9219C280.232 58.7917 279.815 58.7266 279.32 58.7266L275.805 59.0781C275.727 59.0781 275.622 59.0781 275.492 59.0781C275.388 59.0781 275.284 59.0651 275.18 59.0391C275.049 59.0391 274.919 59.026 274.789 59C274.763 59 274.685 58.974 274.555 58.9219C274.451 58.8698 274.32 58.8047 274.164 58.7266C274.034 58.6484 273.891 58.5703 273.734 58.4922C273.578 58.4141 273.461 58.362 273.383 58.3359C273.253 58.2578 273.174 58.1927 273.148 58.1406C273.122 58.0625 273.109 57.9714 273.109 57.8672C273.109 57.5807 273.24 57.3594 273.5 57.2031C273.76 57.0469 274.06 56.9167 274.398 56.8125C274.737 56.7083 275.076 56.6172 275.414 56.5391C275.753 56.4609 276 56.3568 276.156 56.2266C276.859 55.6536 277.445 54.9635 277.914 54.1562C278.383 53.349 278.656 52.4896 278.734 51.5781V50.2109C278.734 50.0026 278.734 49.7943 278.734 49.5859C278.76 49.3776 278.826 49.1823 278.93 49C278.878 48.5573 278.852 48.1146 278.852 47.6719C278.852 47.2292 278.852 46.7865 278.852 46.3438C278.852 45.901 278.852 45.4583 278.852 45.0156C278.852 44.5469 278.878 44.0911 278.93 43.6484C278.982 43.5964 279.06 43.4531 279.164 43.2188C279.268 42.9583 279.346 42.763 279.398 42.6328L279.125 41.2266L279.398 38.6484V37.1641C279.398 37.0599 279.385 36.8776 279.359 36.6172C279.359 36.3568 279.346 36.0833 279.32 35.7969C279.294 35.4844 279.268 35.1979 279.242 34.9375C279.242 34.6771 279.229 34.4818 279.203 34.3516C279.151 34.2995 279.073 34.1953 278.969 34.0391C278.865 33.8568 278.786 33.7266 278.734 33.6484L278.461 33.1797V31.3438C278.331 31.1615 278.214 31.0052 278.109 30.875C278.005 30.7448 277.901 30.6276 277.797 30.5234C277.693 30.3932 277.615 30.2891 277.562 30.2109C277.354 29.9766 277.042 29.7422 276.625 29.5078C276.234 29.2734 275.831 29.0391 275.414 28.8047C274.997 28.5443 274.633 28.2708 274.32 27.9844C274.008 27.6979 273.852 27.3854 273.852 27.0469C273.852 26.9427 273.917 26.8516 274.047 26.7734C274.177 26.6693 274.32 26.5781 274.477 26.5C274.659 26.4219 274.828 26.3698 274.984 26.3438C275.167 26.2917 275.31 26.2526 275.414 26.2266C275.831 26.1745 276.221 26.1354 276.586 26.1094C276.951 26.0833 277.354 26.0703 277.797 26.0703H278.812C278.943 26.1224 279.073 26.1484 279.203 26.1484C279.333 26.1484 279.49 26.1484 279.672 26.1484C279.88 26.1484 280.062 26.1484 280.219 26.1484C280.401 26.1224 280.596 26.0833 280.805 26.0312C281.977 26.2656 283.161 26.3698 284.359 26.3438C285.583 26.3177 286.82 26.3698 288.07 26.5C288.279 26.6302 288.422 26.8385 288.5 27.125C288.578 27.3854 288.656 27.6198 288.734 27.8281C288.656 27.8802 288.552 27.9714 288.422 28.1016C288.292 28.2318 288.148 28.375 287.992 28.5312C287.836 28.6875 287.693 28.8307 287.562 28.9609C287.432 29.0911 287.341 29.1953 287.289 29.2734L286.625 30.6016C286.573 30.6536 286.482 30.7448 286.352 30.875C286.221 30.9792 286.156 31.0573 286.156 31.1094C286.13 31.1615 286.104 31.2526 286.078 31.3828C286.052 31.513 286.026 31.6562 286 31.8125C286 31.9688 285.987 32.125 285.961 32.2812C285.935 32.4115 285.909 32.4896 285.883 32.5156L285.023 33.4531C284.997 33.5833 284.984 33.7005 284.984 33.8047C284.958 33.9089 284.945 34.026 284.945 34.1562C284.945 34.2865 284.945 34.4167 284.945 34.5469C284.945 34.7031 284.958 34.8854 284.984 35.0938C285.01 35.276 285.089 35.4323 285.219 35.5625L285.297 37.0859L285.219 38.6094C285.089 38.7135 285.01 38.8307 284.984 38.9609C284.958 39.0911 284.945 39.2214 284.945 39.3516C284.945 39.6901 285.036 39.9635 285.219 40.1719C285.401 40.3542 285.557 40.5885 285.688 40.875C285.74 40.9271 285.792 41.0443 285.844 41.2266C285.922 41.4089 286.052 41.526 286.234 41.5781C286.521 41.5781 286.729 41.474 286.859 41.2656C287.016 41.0573 287.094 40.7708 287.094 40.4062C287.458 40.1979 287.732 39.9635 287.914 39.7031C288.096 39.4167 288.24 39.1302 288.344 38.8438C288.474 38.5312 288.591 38.2188 288.695 37.9062C288.799 37.5677 288.943 37.2292 289.125 36.8906C289.177 36.8125 289.242 36.7083 289.32 36.5781C289.424 36.4479 289.516 36.3177 289.594 36.1875C289.698 36.0312 289.789 35.901 289.867 35.7969C289.971 35.6667 290.036 35.5885 290.062 35.5625L291.508 33.8438C291.534 33.8177 291.573 33.6484 291.625 33.3359C291.677 32.9974 291.703 32.8151 291.703 32.7891C291.807 32.5026 291.938 32.2292 292.094 31.9688C292.276 31.6823 292.393 31.3958 292.445 31.1094V29.4688C292.549 29.3385 292.758 29.1953 293.07 29.0391C293.383 28.8828 293.552 28.7396 293.578 28.6094V27.8281C293.656 27.5677 293.812 27.3464 294.047 27.1641C294.281 26.9557 294.542 26.7865 294.828 26.6562C295.141 26.5 295.453 26.3958 295.766 26.3438C296.104 26.2656 296.391 26.2266 296.625 26.2266C296.911 26.2266 297.172 26.2396 297.406 26.2656C297.641 26.2917 297.901 26.3177 298.188 26.3438C298.37 26.3958 298.552 26.4349 298.734 26.4609C298.917 26.487 299.099 26.5 299.281 26.5H299.867C299.945 26.474 300.076 26.4089 300.258 26.3047C300.44 26.2005 300.622 26.1094 300.805 26.0312C301.013 25.9271 301.195 25.8359 301.352 25.7578C301.508 25.6536 301.625 25.5885 301.703 25.5625H305.688C305.844 25.5625 306.065 25.5885 306.352 25.6406C306.638 25.6667 306.924 25.7188 307.211 25.7969C307.497 25.875 307.745 25.9792 307.953 26.1094C308.161 26.2396 308.266 26.3958 308.266 26.5781C308.266 26.7344 308.214 26.9297 308.109 27.1641C308.005 27.3984 307.875 27.6328 307.719 27.8672C307.589 28.0755 307.432 28.2708 307.25 28.4531C307.094 28.6094 306.951 28.7266 306.82 28.8047L305.688 29.0781C305.661 29.0781 305.57 29.1042 305.414 29.1562C305.284 29.1823 305.128 29.2214 304.945 29.2734C304.789 29.2995 304.62 29.3385 304.438 29.3906C304.281 29.4167 304.164 29.4427 304.086 29.4688C303.799 29.5729 303.513 29.7292 303.227 29.9375C302.94 30.1198 302.68 30.2109 302.445 30.2109L301.352 29.9375C301.273 29.9375 301.052 29.9896 300.688 30.0938C300.323 30.1719 299.919 30.276 299.477 30.4062C299.06 30.5365 298.656 30.6667 298.266 30.7969C297.901 30.9271 297.667 31.0312 297.562 31.1094C297.51 31.1354 297.419 31.2135 297.289 31.3438C297.185 31.4479 297.068 31.5651 296.938 31.6953C296.807 31.8255 296.677 31.9557 296.547 32.0859C296.443 32.2161 296.378 32.2943 296.352 32.3203L295.688 32.7891C295.635 32.7891 295.479 32.8151 295.219 32.8672C294.958 32.8932 294.802 32.9323 294.75 32.9844C294.516 33.0885 294.294 33.3099 294.086 33.6484C293.904 33.9609 293.734 34.3255 293.578 34.7422C293.448 35.1328 293.331 35.5365 293.227 35.9531C293.148 36.3438 293.109 36.6562 293.109 36.8906C293.109 37.2552 293.122 37.6328 293.148 38.0234C293.201 38.4141 293.344 38.7656 293.578 39.0781L295.414 41.1094C295.414 41.1875 295.427 41.3177 295.453 41.5C295.479 41.6823 295.505 41.8776 295.531 42.0859C295.557 42.2682 295.583 42.4505 295.609 42.6328C295.635 42.7891 295.661 42.9062 295.688 42.9844L296.156 43.6484V44.8203C296.182 45.1068 296.299 45.3672 296.508 45.6016C296.742 45.8099 296.99 46.0052 297.25 46.1875C297.51 46.3438 297.771 46.5 298.031 46.6562C298.292 46.8125 298.5 46.9688 298.656 47.125C298.708 47.1771 298.799 47.3464 298.93 47.6328C299.06 47.8932 299.125 48.0495 299.125 48.1016C299.177 48.1536 299.268 48.2708 299.398 48.4531C299.529 48.6354 299.594 48.7526 299.594 48.8047C299.62 48.8307 299.685 48.9349 299.789 49.1172C299.893 49.2995 299.997 49.4948 300.102 49.7031C300.206 49.9115 300.297 50.1068 300.375 50.2891C300.479 50.4714 300.544 50.5755 300.57 50.6016C300.622 50.7318 300.753 50.875 300.961 51.0312C301.169 51.1615 301.391 51.2917 301.625 51.4219C301.755 51.526 301.885 51.6302 302.016 51.7344C302.146 51.8125 302.263 51.9167 302.367 52.0469C302.445 52.099 302.536 52.2292 302.641 52.4375C302.771 52.6198 302.862 52.7109 302.914 52.7109C302.966 52.7891 303.057 52.9062 303.188 53.0625C303.344 53.2188 303.513 53.388 303.695 53.5703C303.878 53.7266 304.047 53.8828 304.203 54.0391C304.359 54.1953 304.477 54.2995 304.555 54.3516C304.737 54.5599 304.997 54.7292 305.336 54.8594C305.674 54.9635 306.026 55.0807 306.391 55.2109C306.755 55.3151 307.12 55.4323 307.484 55.5625C307.849 55.6667 308.174 55.7969 308.461 55.9531C308.591 56.0833 308.656 56.1745 308.656 56.2266C308.76 56.3828 308.93 56.5911 309.164 56.8516C309.424 57.112 309.672 57.3854 309.906 57.6719C310.167 57.9323 310.388 58.1927 310.57 58.4531C310.753 58.6875 310.844 58.8698 310.844 59C310.844 59.3646 310.688 59.612 310.375 59.7422C310.062 59.8724 309.763 59.9375 309.477 59.9375C309.112 59.9375 308.773 59.8854 308.461 59.7812C308.174 59.7031 307.862 59.6641 307.523 59.6641C307.185 59.6641 306.82 59.7292 306.43 59.8594C306.247 59.9375 306.052 60.0026 305.844 60.0547C305.661 60.1068 305.362 60.1328 304.945 60.1328C304.919 60.1328 304.841 60.1068 304.711 60.0547C304.581 60.0286 304.438 59.9896 304.281 59.9375C304.125 59.8854 303.969 59.8333 303.812 59.7812C303.682 59.7292 303.604 59.6901 303.578 59.6641C303.552 59.6641 303.461 59.651 303.305 59.625C303.148 59.625 302.966 59.612 302.758 59.5859C302.576 59.5859 302.406 59.5729 302.25 59.5469C302.094 59.5208 302.003 59.4948 301.977 59.4688C301.69 59.3906 301.456 59.3125 301.273 59.2344C301.117 59.1562 300.948 59.0781 300.766 59C300.609 58.9479 300.427 58.9089 300.219 58.8828C300.01 58.8307 299.737 58.8047 299.398 58.8047ZM314.867 57.3203C314.867 56.7734 314.997 56.3438 315.258 56.0312C315.518 55.6927 315.831 55.4193 316.195 55.2109C316.586 55.0026 317.003 54.8073 317.445 54.625C317.888 54.4167 318.292 54.1693 318.656 53.8828C319.047 53.5964 319.372 53.2188 319.633 52.75C319.893 52.2812 320.023 51.6562 320.023 50.875C320.023 50.6667 320.023 50.4714 320.023 50.2891C320.023 50.0807 319.997 49.8724 319.945 49.6641C319.867 49.1953 319.828 48.7005 319.828 48.1797C319.828 47.763 319.867 47.3333 319.945 46.8906C319.997 46.6823 320.023 46.5 320.023 46.3438C320.023 46.1615 320.023 45.9661 320.023 45.7578C320.023 45.4714 320.01 45.2109 319.984 44.9766C319.958 44.7422 319.919 44.4818 319.867 44.1953C319.841 43.9089 319.815 43.6094 319.789 43.2969C319.763 42.9844 319.75 42.6719 319.75 42.3594C319.75 42.0729 319.763 41.7995 319.789 41.5391C319.815 41.2526 319.841 40.9661 319.867 40.6797C319.919 40.3932 319.971 40.1198 320.023 39.8594C320.076 39.5729 320.102 39.2865 320.102 39C320.102 38.5312 320.049 38.0625 319.945 37.5938C319.867 37.099 319.776 36.6172 319.672 36.1484C319.568 35.7578 319.477 35.3542 319.398 34.9375C319.346 34.4948 319.32 34.0651 319.32 33.6484C319.32 33.4922 319.333 33.349 319.359 33.2188C319.385 33.0625 319.424 32.9193 319.477 32.7891C319.555 32.5286 319.594 32.2552 319.594 31.9688C319.594 31.9427 319.581 31.9297 319.555 31.9297C319.555 31.9036 319.555 31.8646 319.555 31.8125V31.6953C319.529 31.6172 319.477 31.513 319.398 31.3828C319.346 31.2266 319.281 31.0833 319.203 30.9531C319.125 30.7969 319.047 30.6536 318.969 30.5234C318.917 30.3932 318.878 30.3151 318.852 30.2891C318.747 30.1849 318.565 30.0026 318.305 29.7422C318.044 29.4557 317.771 29.1693 317.484 28.8828C317.198 28.5703 316.911 28.2839 316.625 28.0234C316.365 27.763 316.182 27.5938 316.078 27.5156C316.052 27.4635 316 27.3854 315.922 27.2812C315.87 27.1771 315.844 27.099 315.844 27.0469C315.844 26.526 316.039 26.0443 316.43 25.6016C316.82 25.1589 317.224 24.8724 317.641 24.7422C317.823 24.6641 318.057 24.5729 318.344 24.4688C318.656 24.3646 318.956 24.2734 319.242 24.1953C319.555 24.0911 319.828 24 320.062 23.9219C320.297 23.8438 320.44 23.8047 320.492 23.8047C320.544 23.8047 320.674 23.7917 320.883 23.7656C321.091 23.7396 321.247 23.7266 321.352 23.7266C321.716 23.7266 322.055 23.7656 322.367 23.8438C322.706 23.9219 323.044 24 323.383 24.0781C323.591 24.1042 323.812 24.1432 324.047 24.1953C324.281 24.2474 324.516 24.2734 324.75 24.2734C324.984 24.2734 325.193 24.2604 325.375 24.2344C325.557 24.2083 325.753 24.1693 325.961 24.1172C326.143 24.0911 326.326 24.0651 326.508 24.0391C326.69 24.013 326.885 24 327.094 24C327.589 24 328.044 24.0781 328.461 24.2344C328.878 24.3906 329.307 24.4688 329.75 24.4688C329.776 24.4688 329.867 24.4818 330.023 24.5078C330.18 24.5078 330.349 24.5078 330.531 24.5078C330.74 24.5078 330.935 24.5208 331.117 24.5469C331.326 24.5469 331.495 24.5469 331.625 24.5469C332.875 24.5469 334.112 24.4688 335.336 24.3125C336.586 24.1562 337.836 24.0521 339.086 24C339.216 23.8958 339.32 23.8438 339.398 23.8438C339.503 23.8177 339.646 23.8047 339.828 23.8047C340.505 24.0911 341.013 24.4688 341.352 24.9375C341.69 25.4062 341.938 25.9531 342.094 26.5781C342.094 26.6302 342.094 26.7344 342.094 26.8906C342.12 27.0469 342.146 27.2161 342.172 27.3984C342.198 27.5807 342.224 27.75 342.25 27.9062C342.276 28.0625 342.302 28.1536 342.328 28.1797C342.328 28.2057 342.341 28.2578 342.367 28.3359C342.393 28.388 342.419 28.5312 342.445 28.7656C342.471 28.974 342.497 29.2734 342.523 29.6641C342.549 30.0547 342.576 30.5755 342.602 31.2266C342.602 31.5651 342.419 31.8385 342.055 32.0469C341.716 32.2552 341.404 32.3594 341.117 32.3594C340.831 32.3594 340.596 32.3333 340.414 32.2812C340.232 32.2292 340.062 32.151 339.906 32.0469C339.75 31.9427 339.594 31.8255 339.438 31.6953C339.281 31.5391 339.086 31.3828 338.852 31.2266C338.826 31.2266 338.747 31.2005 338.617 31.1484C338.513 31.0703 338.435 31.0052 338.383 30.9531C338.357 30.9531 338.24 30.9401 338.031 30.9141C337.823 30.862 337.693 30.8099 337.641 30.7578C337.12 30.5495 336.703 30.263 336.391 29.8984C336.104 29.5078 335.753 29.0911 335.336 28.6484C335.206 28.6484 334.997 28.6484 334.711 28.6484C334.451 28.6224 334.151 28.5964 333.812 28.5703C333.5 28.5443 333.201 28.5182 332.914 28.4922C332.628 28.4661 332.432 28.4271 332.328 28.375C332.276 28.375 332.12 28.3099 331.859 28.1797C331.599 28.0495 331.43 27.9844 331.352 27.9844C331.326 27.9323 331.169 27.9062 330.883 27.9062C330.622 27.9062 330.427 27.9062 330.297 27.9062C329.776 27.9062 329.333 27.9974 328.969 28.1797C328.604 28.362 328.292 28.6094 328.031 28.9219C327.771 29.2344 327.549 29.599 327.367 30.0156C327.211 30.4062 327.081 30.8099 326.977 31.2266C326.977 31.2786 326.938 31.4349 326.859 31.6953C326.807 31.9557 326.755 32.138 326.703 32.2422C326.703 32.2943 326.716 32.3724 326.742 32.4766C326.794 32.5547 326.872 32.8411 326.977 33.3359C326.977 34.1432 326.859 34.9505 326.625 35.7578C326.417 36.5391 326.312 37.3464 326.312 38.1797C326.312 38.4141 326.391 38.5964 326.547 38.7266C326.703 38.8568 326.885 38.9479 327.094 39C327.328 39.0521 327.562 39.0911 327.797 39.1172C328.057 39.1172 328.279 39.1172 328.461 39.1172H329.359C329.49 39.1172 329.659 39.1042 329.867 39.0781C330.102 39.0521 330.323 39.026 330.531 39C330.74 38.974 330.922 38.9479 331.078 38.9219C331.26 38.8958 331.352 38.8698 331.352 38.8438C331.378 38.8438 331.456 38.8047 331.586 38.7266C331.716 38.6224 331.846 38.5182 331.977 38.4141C332.133 38.2839 332.289 38.1536 332.445 38.0234C332.602 37.8932 332.719 37.7891 332.797 37.7109C332.875 37.6328 332.966 37.5417 333.07 37.4375C333.201 37.3333 333.318 37.2292 333.422 37.125C333.552 36.9948 333.656 36.8776 333.734 36.7734C333.839 36.6693 333.904 36.6042 333.93 36.5781C334.164 36.2656 334.281 35.9271 334.281 35.5625C334.307 35.1979 334.333 34.8724 334.359 34.5859C334.411 34.2734 334.529 34.026 334.711 33.8438C334.893 33.6354 335.271 33.5312 335.844 33.5312C336.599 33.5312 337.133 33.7656 337.445 34.2344C337.758 34.7031 337.914 35.3021 337.914 36.0312C337.914 36.474 337.862 36.8255 337.758 37.0859C337.654 37.3464 337.536 37.5807 337.406 37.7891C337.302 37.9974 337.198 38.2188 337.094 38.4531C337.016 38.6875 336.977 38.987 336.977 39.3516C336.977 39.6901 337.042 39.9766 337.172 40.2109C337.302 40.4193 337.393 40.6667 337.445 40.9531L337.641 43.5312C337.667 43.5573 337.693 43.6354 337.719 43.7656C337.771 43.8958 337.823 44.0521 337.875 44.2344C337.927 44.3906 337.979 44.5599 338.031 44.7422C338.083 44.8984 338.109 45.0286 338.109 45.1328C338.083 45.263 338.057 45.4193 338.031 45.6016C338.031 45.7839 338.018 45.9661 337.992 46.1484C337.966 46.3568 337.94 46.5651 337.914 46.7734C337.888 46.8516 337.823 46.9557 337.719 47.0859C337.615 47.1901 337.484 47.3073 337.328 47.4375C337.198 47.5417 337.055 47.6458 336.898 47.75C336.742 47.8542 336.612 47.9062 336.508 47.9062C336.404 47.9062 336.273 47.9062 336.117 47.9062C335.961 47.8802 335.87 47.8151 335.844 47.7109C335.792 47.6589 335.74 47.5026 335.688 47.2422C335.635 46.9818 335.609 46.8255 335.609 46.7734C335.479 46.5391 335.31 46.2526 335.102 45.9141C334.893 45.5755 334.659 45.224 334.398 44.8594C334.138 44.4688 333.852 44.0911 333.539 43.7266C333.227 43.362 332.914 43.0495 332.602 42.7891C332.315 42.5807 332.003 42.4635 331.664 42.4375C331.352 42.3854 331.091 42.3594 330.883 42.3594L329.359 42.8672C329.307 42.8672 329.177 42.8281 328.969 42.75C328.786 42.6719 328.656 42.6328 328.578 42.6328H328.422C328.37 42.6328 328.331 42.6328 328.305 42.6328C328.279 42.6068 328.24 42.5938 328.188 42.5938C328.057 42.5938 327.888 42.6719 327.68 42.8281C327.471 42.9844 327.263 43.1797 327.055 43.4141C326.872 43.6224 326.703 43.8438 326.547 44.0781C326.391 44.3125 326.312 44.5078 326.312 44.6641C326.312 44.7161 326.299 44.8854 326.273 45.1719C326.247 45.4323 326.234 45.6536 326.234 45.8359C326.234 45.888 326.234 45.9661 326.234 46.0703C326.234 46.1745 326.247 46.2786 326.273 46.3828C326.273 46.487 326.286 46.6172 326.312 46.7734C326.312 46.9818 326.352 47.3594 326.43 47.9062C326.508 48.4271 326.599 48.987 326.703 49.5859C326.807 50.1589 326.898 50.7188 326.977 51.2656C327.081 51.7865 327.146 52.151 327.172 52.3594C327.536 52.75 327.797 53.1146 327.953 53.4531C328.109 53.7656 328.253 54.0521 328.383 54.3125C328.539 54.5729 328.747 54.7812 329.008 54.9375C329.294 55.0677 329.737 55.1328 330.336 55.1328C330.987 55.1328 331.625 55.0677 332.25 54.9375C332.901 54.8073 333.552 54.7161 334.203 54.6641H335.141C335.193 54.6641 335.336 54.599 335.57 54.4688C335.831 54.3385 335.987 54.2474 336.039 54.1953L336.977 54C337.081 53.9479 337.211 53.9089 337.367 53.8828C337.549 53.8307 337.641 53.7786 337.641 53.7266C337.719 53.6745 337.914 53.5312 338.227 53.2969C338.539 53.0365 338.747 52.8932 338.852 52.8672C339.112 52.6589 339.385 52.5417 339.672 52.5156C339.958 52.4635 340.206 52.3333 340.414 52.125C340.727 51.8646 341.026 51.5781 341.312 51.2656C341.625 50.9271 341.938 50.6146 342.25 50.3281C342.562 50.0417 342.901 49.8073 343.266 49.625C343.656 49.4427 344.086 49.3516 344.555 49.3516H345.375C345.583 49.4818 345.714 49.6641 345.766 49.8984C345.818 50.1328 345.844 50.3672 345.844 50.6016C345.844 51.7995 345.518 52.9323 344.867 54C344.867 54.026 344.815 54.1042 344.711 54.2344C344.633 54.3646 344.529 54.5078 344.398 54.6641C344.294 54.8203 344.19 54.9766 344.086 55.1328C344.008 55.263 343.956 55.3542 343.93 55.4062C343.904 55.4323 343.878 55.5104 343.852 55.6406C343.826 55.7708 343.799 55.9141 343.773 56.0703C343.773 56.2266 343.76 56.3828 343.734 56.5391C343.708 56.6693 343.682 56.7474 343.656 56.7734C343.656 56.8255 343.63 56.9036 343.578 57.0078C343.552 57.112 343.513 57.1901 343.461 57.2422C343.409 57.3203 343.305 57.4375 343.148 57.5938C343.018 57.75 342.862 57.9193 342.68 58.1016C342.497 58.2578 342.328 58.4141 342.172 58.5703C342.016 58.7266 341.911 58.8307 341.859 58.8828H341.508C341.039 58.8828 340.57 58.9219 340.102 59C339.555 59.0781 339.008 59.1172 338.461 59.1172C337.914 59.1172 337.419 59.0391 336.977 58.8828C336.534 58.7005 335.987 58.6094 335.336 58.6094C335.206 58.6094 334.997 58.6224 334.711 58.6484C334.424 58.6484 334.255 58.6484 334.203 58.6484L332.367 58.9219C331.794 59.026 331.208 59.0781 330.609 59.0781C330.01 59.1042 329.411 59.1172 328.812 59.1172H325.961C325.544 59.1172 325.18 59.0781 324.867 59C324.555 58.9219 324.216 58.8828 323.852 58.8828C323.591 58.8828 323.331 58.9609 323.07 59.1172C322.836 59.2734 322.602 59.3516 322.367 59.3516L320.219 58.8828C320.193 58.8828 320.089 58.9089 319.906 58.9609C319.724 58.987 319.516 59.026 319.281 59.0781C319.047 59.1302 318.799 59.1823 318.539 59.2344C318.279 59.2865 318.07 59.3255 317.914 59.3516C317.602 59.3516 317.263 59.3125 316.898 59.2344C316.56 59.1562 316.234 59.0391 315.922 58.8828C315.635 58.7005 315.388 58.4922 315.18 58.2578C314.971 57.9974 314.867 57.6849 314.867 57.3203ZM368.656 58.5312C368.37 58.5312 368.135 58.5703 367.953 58.6484C367.771 58.7266 367.589 58.8177 367.406 58.9219C367.25 59 367.081 59.0781 366.898 59.1562C366.716 59.2344 366.495 59.2734 366.234 59.2734C365.948 59.2734 365.661 59.2214 365.375 59.1172C365.115 59.0391 364.828 59 364.516 59C363.917 59.1042 363.37 59.2083 362.875 59.3125C362.38 59.4167 361.872 59.4688 361.352 59.4688H360.531C360.427 59.3385 360.362 59.2214 360.336 59.1172C360.336 59.0391 360.336 58.9349 360.336 58.8047C360.336 58.5703 360.375 58.3229 360.453 58.0625C360.531 57.776 360.635 57.5417 360.766 57.3594C360.792 57.3333 360.844 57.2812 360.922 57.2031C361.026 57.099 361.13 57.0078 361.234 56.9297C361.339 56.8255 361.443 56.7344 361.547 56.6562C361.651 56.5521 361.729 56.474 361.781 56.4219C362.094 56.1615 362.393 55.9922 362.68 55.9141C362.966 55.8359 363.253 55.7708 363.539 55.7188C363.852 55.6667 364.164 55.5625 364.477 55.4062C364.789 55.25 365.128 54.9635 365.492 54.5469C365.518 54.4948 365.57 54.4167 365.648 54.3125C365.727 54.1823 365.766 54.1042 365.766 54.0781V50.5625C365.557 50.0417 365.388 49.4818 365.258 48.8828C365.128 48.2839 365.062 47.7109 365.062 47.1641V46.7734L365.492 45.2891C365.492 45.263 365.466 45.1979 365.414 45.0938C365.388 44.9896 365.336 44.8724 365.258 44.7422C365.206 44.612 365.154 44.4948 365.102 44.3906C365.076 44.2604 365.062 44.1693 365.062 44.1172V43.375L365.336 41.3047C365.336 41.0703 365.284 40.875 365.18 40.7188C365.102 40.5365 365.062 40.3411 365.062 40.1328L365.766 38.7266C365.766 38.6745 365.688 38.5182 365.531 38.2578C365.375 37.9974 365.245 37.8411 365.141 37.7891V33.5312L364.789 32.7891V28.5312C364.789 28.2708 364.646 28.1016 364.359 28.0234C364.099 27.9193 363.773 27.8542 363.383 27.8281C363.018 27.776 362.628 27.75 362.211 27.75C361.82 27.75 361.508 27.7109 361.273 27.6328C361.221 27.6068 361.013 27.5156 360.648 27.3594C360.284 27.1771 359.958 27.0859 359.672 27.0859C359.359 27.0859 359.099 27.151 358.891 27.2812C358.708 27.4115 358.526 27.5677 358.344 27.75C358.161 27.9062 357.966 28.0625 357.758 28.2188C357.549 28.375 357.302 28.4792 357.016 28.5312C356.964 28.5573 356.833 28.5833 356.625 28.6094C356.417 28.6354 356.195 28.6615 355.961 28.6875C355.727 28.6875 355.505 28.7005 355.297 28.7266C355.089 28.7526 354.971 28.7786 354.945 28.8047C354.893 28.8047 354.828 28.8177 354.75 28.8438C354.672 28.8698 354.594 28.8958 354.516 28.9219L354.203 29C354.099 29.1042 353.917 29.2734 353.656 29.5078C353.422 29.7422 353.292 29.8854 353.266 29.9375C353.214 30.0156 353.161 30.1849 353.109 30.4453C353.057 30.7057 353.031 30.849 353.031 30.875L352.523 31.4219L352.211 31.5C352.133 31.526 352.055 31.5521 351.977 31.5781C351.898 31.6042 351.846 31.6172 351.82 31.6172C351.742 31.6693 351.625 31.7734 351.469 31.9297C351.312 32.0859 351.13 32.2552 350.922 32.4375C350.74 32.5938 350.57 32.75 350.414 32.9062C350.258 33.0625 350.141 33.1797 350.062 33.2578C349.828 33.2578 349.62 33.1797 349.438 33.0234C349.281 32.8672 349.138 32.724 349.008 32.5938V30.875C349.008 30.4323 349.021 29.8594 349.047 29.1562C349.099 28.4271 349.203 27.724 349.359 27.0469C349.542 26.3438 349.815 25.7448 350.18 25.25C350.57 24.7292 351.117 24.4688 351.82 24.4688L354.398 24.8203C354.581 24.8203 354.815 24.8073 355.102 24.7812C355.388 24.7552 355.557 24.7422 355.609 24.7422C355.661 24.7422 355.818 24.7161 356.078 24.6641C356.339 24.5859 356.885 24.5469 357.719 24.5469C358.37 24.4688 359.021 24.3776 359.672 24.2734C360.323 24.1432 360.974 24.0781 361.625 24.0781C361.99 24.0781 362.341 24.1302 362.68 24.2344C363.018 24.3125 363.383 24.3516 363.773 24.3516L366.156 24.0781H366.703C366.885 24.0781 367.055 24.1042 367.211 24.1562C367.367 24.2083 367.51 24.3385 367.641 24.5469H370.492C370.518 24.5469 370.661 24.5208 370.922 24.4688C371.208 24.3906 371.378 24.3255 371.43 24.2734H371.898C372.055 24.2995 372.289 24.3385 372.602 24.3906C372.914 24.4167 373.214 24.4427 373.5 24.4688C373.812 24.4948 374.086 24.5208 374.32 24.5469C374.555 24.5469 374.698 24.5469 374.75 24.5469L375.219 24.7422C375.271 24.7682 375.323 24.7812 375.375 24.7812C375.427 24.8073 375.479 24.8203 375.531 24.8203C375.948 24.8203 376.299 24.6901 376.586 24.4297C376.898 24.1432 377.211 23.9349 377.523 23.8047C377.732 23.7526 378.018 23.6615 378.383 23.5312C378.747 23.401 378.956 23.3359 379.008 23.3359H382.523C382.576 23.388 382.693 23.4401 382.875 23.4922C383.057 23.5443 383.188 23.5703 383.266 23.5703H384.945C384.971 23.5703 385.023 23.6224 385.102 23.7266C385.206 23.8047 385.31 23.9089 385.414 24.0391C385.544 24.1693 385.661 24.2995 385.766 24.4297C385.896 24.5599 385.987 24.6641 386.039 24.7422C386.482 25.2891 386.794 25.7839 386.977 26.2266C387.159 26.6693 387.25 27.2812 387.25 28.0625C387.25 28.1146 387.211 28.2318 387.133 28.4141C387.081 28.5964 387.029 28.7266 386.977 28.8047V32.5938C386.977 32.6979 386.924 32.763 386.82 32.7891C386.716 32.7891 386.625 32.7891 386.547 32.7891C386.391 32.7891 386.273 32.7891 386.195 32.7891C386.117 32.763 385.987 32.6979 385.805 32.5938L383.93 31.4219C383.852 31.3438 383.682 31.2005 383.422 30.9922C383.188 30.7839 382.927 30.5625 382.641 30.3281C382.354 30.0938 382.081 29.8724 381.82 29.6641C381.56 29.4557 381.391 29.3255 381.312 29.2734C381.312 29.2214 381.208 29.1302 381 29C380.792 28.8698 380.661 28.8047 380.609 28.8047L379.672 28.0625C379.594 28.0104 379.464 27.9453 379.281 27.8672C379.099 27.7891 378.917 27.7109 378.734 27.6328C378.578 27.5547 378.422 27.4896 378.266 27.4375C378.135 27.3854 378.057 27.3594 378.031 27.3594H374.281C374.229 27.3854 374.164 27.4245 374.086 27.4766C373.93 27.5807 373.839 27.6328 373.812 27.6328C373.682 27.7109 373.487 27.8151 373.227 27.9453C372.992 28.0755 372.745 28.2188 372.484 28.375C372.25 28.5052 372.029 28.6354 371.82 28.7656C371.612 28.8958 371.482 28.974 371.43 29C371.299 29.0521 371.221 29.1172 371.195 29.1953C371.169 29.2734 371.156 29.3385 371.156 29.3906V29.9375C371.156 30.0156 371.195 30.1068 371.273 30.2109C371.326 30.2891 371.378 30.3542 371.43 30.4062C371.638 31.3698 371.807 32.2943 371.938 33.1797C372.094 34.0391 372.237 34.9375 372.367 35.875C372.497 36.8385 372.641 37.776 372.797 38.6875C372.953 39.599 373.031 40.5365 373.031 41.5V45.2891C373.057 45.3672 373.083 45.5495 373.109 45.8359C373.135 46.0964 373.161 46.3958 373.188 46.7344C373.214 47.0469 373.24 47.3464 373.266 47.6328C373.292 47.9193 373.305 48.1016 373.305 48.1797L373.031 51.5C373.031 51.7083 373.031 51.9948 373.031 52.3594C373.057 52.6979 373.096 53.0495 373.148 53.4141C373.227 53.7526 373.331 54.0781 373.461 54.3906C373.591 54.7031 373.773 54.9115 374.008 55.0156C374.112 55.0417 374.294 55.0938 374.555 55.1719C374.841 55.25 375.128 55.3411 375.414 55.4453C375.727 55.5495 376.013 55.6536 376.273 55.7578C376.534 55.8359 376.716 55.901 376.82 55.9531C377.341 56.1354 377.719 56.3438 377.953 56.5781C378.188 56.7865 378.305 57.1641 378.305 57.7109C378.305 58.1016 378.214 58.4271 378.031 58.6875C377.849 58.9479 377.615 59.1562 377.328 59.3125C377.042 59.4688 376.716 59.5729 376.352 59.625C376.013 59.7031 375.674 59.7422 375.336 59.7422H374.75L374.008 59.2734H372.172C372.094 59.2474 371.924 59.1953 371.664 59.1172C371.404 59.0651 371.117 59 370.805 58.9219C370.518 58.8177 370.245 58.7396 369.984 58.6875C369.75 58.6094 369.607 58.5573 369.555 58.5312H368.656Z" fill="url(#paint0_diamond_20_13)"/>
</g>
<defs>
<filter id="filter0_d_20_13" x="0.164062" y="0.226562" width="391.086" height="66.9062" filterUnits="userSpaceOnUse" color-interpolation-filters="sRGB">
<feFlood flood-opacity="0" result="BackgroundImageFix"/>
<feColorMatrix in="SourceAlpha" type="matrix" values="0 0 0 0 0 0 0 0 0 0 0 0 0 0 0 0 0 0 127 0" result="hardAlpha"/>
<feOffset dy="3"/>
<feGaussianBlur stdDeviation="2"/>
<feComposite in2="hardAlpha" operator="out"/>
<feColorMatrix type="matrix" values="0 0 0 0 0 0 0 0 0 0 0 0 0 0 0 0 0 0 1 0"/>
<feBlend mode="normal" in2="BackgroundImageFix" result="effect1_dropShadow_20_13"/>
<feBlend mode="normal" in="SourceGraphic" in2="effect1_dropShadow_20_13" result="shape"/>
</filter>
<radialGradient id="paint0_diamond_20_13" cx="0" cy="0" r="1" gradientUnits="userSpaceOnUse" gradientTransform="translate(195.5 33) rotate(90) scale(11 194.5)">
<stop stop-color="#55462F"/>
<stop offset="1" stop-color="#DCC575"/>
</radialGradient>
</defs>
</svg>
