<svg width="263" height="59" viewBox="0 0 263 59" fill="none" xmlns="http://www.w3.org/2000/svg">
<path d="M1 16.5L88.5 13L130 1.5L172 13L262 16.5" stroke="#525252"/>
<path d="M1 41L88.5 44.9667L130 58L172 44.9667L262 41" stroke="#525252"/>
<path d="M96 15.5L130.5 6L164 15.5" stroke="#525252"/>
<path d="M72.5801 22.6172H76.1895C76.4759 22.6172 76.7373 22.6064 76.9736 22.585C77.21 22.5635 77.4714 22.542 77.7578 22.5205C78.0514 22.499 78.4023 22.4775 78.8105 22.4561C79.2188 22.4346 79.738 22.4238 80.3682 22.4238C81.0915 22.4238 81.7181 22.5277 82.248 22.7354C82.778 22.9359 83.2148 23.208 83.5586 23.5518C83.9023 23.8883 84.1566 24.2751 84.3213 24.7119C84.486 25.1488 84.5684 25.5964 84.5684 26.0547C84.5684 26.5775 84.5039 27.0286 84.375 27.4082C84.2461 27.7806 84.0599 28.11 83.8164 28.3965C83.5729 28.6829 83.2757 28.9336 82.9248 29.1484C82.5739 29.3633 82.18 29.571 81.7432 29.7715C81.7288 29.7715 81.7074 29.7786 81.6787 29.793C81.6501 29.8001 81.6357 29.8109 81.6357 29.8252C81.6357 29.8467 81.6715 29.8717 81.7432 29.9004C82.3304 30.1152 82.8353 30.3587 83.2578 30.6309C83.6875 30.8958 84.042 31.2038 84.3213 31.5547C84.6006 31.8984 84.8083 32.2923 84.9443 32.7363C85.0804 33.1803 85.1484 33.6852 85.1484 34.251C85.1484 34.473 85.1126 34.7093 85.041 34.96C84.9694 35.2106 84.8691 35.4613 84.7402 35.7119C84.6113 35.9554 84.4574 36.1917 84.2783 36.4209C84.1064 36.6429 83.9131 36.8398 83.6982 37.0117C83.2542 37.3698 82.6598 37.6312 81.915 37.7959C81.1774 37.9535 80.2894 38.0322 79.251 38.0322C79.0218 38.0322 78.7998 38.0286 78.585 38.0215C78.3701 38.0215 78.1445 38.0179 77.9082 38.0107C77.679 38.0107 77.4355 38.0072 77.1777 38C76.9199 38 76.6335 38 76.3184 38C76.0033 38 75.6989 38.0036 75.4053 38.0107C75.1188 38.0179 74.8324 38.0251 74.5459 38.0322C74.2594 38.0394 73.9658 38.0465 73.665 38.0537C73.3643 38.0609 73.0456 38.068 72.709 38.0752C72.709 38.0107 72.7197 37.9355 72.7412 37.8496C72.7699 37.7637 72.8164 37.7028 72.8809 37.667C73.1029 37.5739 73.3392 37.5094 73.5898 37.4736C73.8405 37.4378 74.0697 37.3877 74.2773 37.3232C74.4922 37.2516 74.6676 37.1406 74.8037 36.9902C74.9469 36.8327 75.0186 36.5856 75.0186 36.249V24.1748C75.0186 24.0889 75.015 24.0029 75.0078 23.917C75.0078 23.8239 74.9971 23.738 74.9756 23.6592C74.9541 23.5732 74.9219 23.498 74.8789 23.4336C74.8359 23.362 74.7751 23.3047 74.6963 23.2617C74.596 23.2116 74.485 23.1794 74.3633 23.165C74.2487 23.1436 74.1126 23.1257 73.9551 23.1113C73.7975 23.097 73.6185 23.0755 73.418 23.0469C73.2174 23.0111 72.9811 22.9538 72.709 22.875C72.623 22.8535 72.5801 22.8105 72.5801 22.7461V22.6172ZM77.2637 30.6416V36.5283C77.543 36.8506 77.8438 37.1084 78.166 37.3018C78.4883 37.4951 78.8643 37.5918 79.2939 37.5918C79.8024 37.5918 80.2464 37.4772 80.626 37.248C81.0127 37.0189 81.3314 36.7253 81.582 36.3672C81.8398 36.0091 82.0332 35.6081 82.1621 35.1641C82.291 34.7129 82.3555 34.2689 82.3555 33.832C82.3555 33.3307 82.2588 32.8617 82.0654 32.4248C81.8721 31.9808 81.6107 31.5977 81.2812 31.2754C80.9518 30.9531 80.5687 30.6989 80.1318 30.5127C79.7021 30.3265 79.2474 30.2334 78.7676 30.2334H78.4668C78.4023 30.2334 78.2985 30.2334 78.1553 30.2334C78.0192 30.2334 77.8402 30.2406 77.6182 30.2549C77.3818 30.2549 77.2637 30.3838 77.2637 30.6416ZM77.2637 22.9824V29.5029C77.2637 29.5817 77.2816 29.6497 77.3174 29.707C77.3604 29.7572 77.4105 29.7965 77.4678 29.8252C77.5251 29.8538 77.5824 29.8753 77.6396 29.8896C77.6969 29.8968 77.7435 29.9004 77.7793 29.9004C78.3379 29.9004 78.8177 29.8431 79.2188 29.7285C79.627 29.6139 79.9671 29.4707 80.2393 29.2988C80.4398 29.1771 80.6331 29.0195 80.8193 28.8262C81.0127 28.6328 81.181 28.4108 81.3242 28.1602C81.4746 27.9095 81.5928 27.6374 81.6787 27.3438C81.7718 27.043 81.8184 26.7243 81.8184 26.3877C81.8184 25.4567 81.6608 24.7298 81.3457 24.207C81.0378 23.6771 80.5436 23.3083 79.8633 23.1006C79.5911 23.0146 79.3011 22.9574 78.9932 22.9287C78.6852 22.8929 78.3451 22.875 77.9727 22.875C77.8438 22.875 77.7184 22.8857 77.5967 22.9072C77.4749 22.9215 77.3639 22.9466 77.2637 22.9824ZM94.9238 37.7422C94.9238 37.5345 94.9453 37.2767 94.9883 36.9688C95.0312 36.6608 95.0527 36.36 95.0527 36.0664C95.0527 36.0163 95.042 35.9554 95.0205 35.8838C95.0062 35.805 94.9668 35.7656 94.9023 35.7656C94.8737 35.7656 94.8379 35.805 94.7949 35.8838C94.7591 35.9554 94.709 36.0306 94.6445 36.1094C94.4154 36.3672 94.1862 36.6107 93.957 36.8398C93.7279 37.0618 93.4844 37.2588 93.2266 37.4307C92.9688 37.6025 92.6895 37.7386 92.3887 37.8389C92.0879 37.932 91.7549 37.9785 91.3896 37.9785C90.6663 37.9785 90.029 37.7386 89.4775 37.2588C89.2985 37.1156 89.1517 36.9616 89.0371 36.7969C88.9297 36.625 88.8438 36.446 88.7793 36.2598C88.7148 36.0736 88.6719 35.8766 88.6504 35.6689C88.6289 35.4613 88.6182 35.2464 88.6182 35.0244V28.6865C88.6182 28.5791 88.6074 28.4824 88.5859 28.3965C88.5716 28.3034 88.5107 28.2568 88.4033 28.2568H86.7275C86.6631 28.2568 86.6094 28.2282 86.5664 28.1709C86.5234 28.1136 86.502 28.0563 86.502 27.999C86.502 27.9704 86.5091 27.9167 86.5234 27.8379C86.5449 27.7591 86.5951 27.7197 86.6738 27.7197H90.2188C90.3333 27.7197 90.3906 27.7699 90.3906 27.8701V34.4658C90.3906 34.738 90.43 35.0065 90.5088 35.2715C90.5876 35.5365 90.7057 35.7728 90.8633 35.9805C91.0208 36.1882 91.2142 36.3564 91.4434 36.4854C91.6797 36.6143 91.9518 36.6787 92.2598 36.6787C92.6178 36.6787 92.9258 36.6465 93.1836 36.582C93.4414 36.5104 93.7064 36.3994 93.9785 36.249C94.2793 36.07 94.5443 35.8122 94.7734 35.4756C94.8594 35.3538 94.9274 35.2393 94.9775 35.1318C95.0277 35.0244 95.0671 34.917 95.0957 34.8096C95.1243 34.7021 95.1423 34.5876 95.1494 34.4658C95.1637 34.3441 95.1745 34.208 95.1816 34.0576L95.2891 28.7295C95.2891 28.708 95.2855 28.665 95.2783 28.6006C95.2783 28.529 95.2676 28.4538 95.2461 28.375C95.2318 28.2962 95.2067 28.2282 95.1709 28.1709C95.1423 28.1064 95.0957 28.0742 95.0312 28.0742C94.9883 28.0742 94.9023 28.0814 94.7734 28.0957C94.6517 28.11 94.5085 28.1172 94.3438 28.1172C94.1862 28.1172 94.0358 28.1208 93.8926 28.1279C93.7565 28.1279 93.6491 28.1279 93.5703 28.1279C93.4199 28.1279 93.2946 28.1208 93.1943 28.1064C93.0941 28.0921 93.0439 28.0384 93.0439 27.9453C93.0439 27.8952 93.0475 27.8415 93.0547 27.7842C93.0618 27.7269 93.0905 27.6803 93.1406 27.6445C93.2051 27.6016 93.2767 27.5729 93.3555 27.5586C93.4414 27.5443 93.5238 27.5371 93.6025 27.5371C93.7028 27.5371 93.8174 27.5443 93.9463 27.5586C94.0752 27.5729 94.2041 27.5872 94.333 27.6016C94.4691 27.6159 94.598 27.6302 94.7197 27.6445C94.8486 27.6589 94.9596 27.666 95.0527 27.666H97.1152C97.1654 27.666 97.1904 27.6911 97.1904 27.7412L96.8574 36.1953V36.3457C96.8574 36.3815 96.8574 36.4102 96.8574 36.4316C96.8574 36.4531 96.861 36.4818 96.8682 36.5176C96.904 36.6393 96.9577 36.7503 97.0293 36.8506C97.1009 36.9508 97.2155 37.001 97.373 37.001C97.4661 37.001 97.5664 36.9938 97.6738 36.9795C97.7812 36.9652 97.8851 36.9473 97.9854 36.9258C98.0856 36.9043 98.1787 36.8864 98.2646 36.8721C98.3577 36.8577 98.4329 36.8506 98.4902 36.8506C98.569 36.8506 98.6156 36.8792 98.6299 36.9365C98.6514 36.9938 98.6621 37.0439 98.6621 37.0869C98.6621 37.1729 98.6299 37.2409 98.5654 37.291C98.5081 37.334 98.4473 37.3734 98.3828 37.4092C98.2253 37.4593 98.082 37.4844 97.9531 37.4844C97.8743 37.4844 97.7992 37.488 97.7275 37.4951C97.6631 37.4951 97.57 37.5023 97.4482 37.5166C97.2191 37.5452 96.9684 37.5918 96.6963 37.6562C96.4313 37.7207 96.1914 37.7852 95.9766 37.8496C95.8333 37.9069 95.6973 37.957 95.5684 38C95.4466 38.0358 95.3105 38.0537 95.1602 38.0537C95.0814 38.0537 95.0205 38.0215 94.9775 37.957C94.9417 37.8926 94.9238 37.821 94.9238 37.7422ZM102.4 37.8926C102.4 37.7135 102.486 37.5954 102.658 37.5381C102.673 37.5238 102.766 37.5166 102.938 37.5166H103.442C103.564 37.5166 103.654 37.5059 103.711 37.4844C103.768 37.4629 103.797 37.3805 103.797 37.2373V34.6377C103.797 34.5231 103.779 34.3799 103.743 34.208C103.707 34.0361 103.657 33.9001 103.593 33.7998L100.488 28.4287C100.424 28.3141 100.359 28.2461 100.295 28.2246C100.23 28.2031 100.159 28.1852 100.08 28.1709C100.044 28.1709 99.9798 28.1673 99.8867 28.1602C99.7936 28.1458 99.6969 28.1351 99.5967 28.1279C99.4964 28.1136 99.3997 28.1029 99.3066 28.0957C99.2135 28.0814 99.1491 28.0742 99.1133 28.0742C99.0632 28.0599 99.0238 28.0348 98.9951 27.999C98.9593 27.9561 98.9414 27.9202 98.9414 27.8916C98.9414 27.8415 98.9486 27.777 98.9629 27.6982C98.9772 27.6123 99.0273 27.5693 99.1133 27.5693C99.4141 27.5693 99.679 27.5729 99.9082 27.5801C100.145 27.5872 100.359 27.5944 100.553 27.6016C100.753 27.6087 100.939 27.6159 101.111 27.623C101.29 27.6302 101.473 27.6338 101.659 27.6338C101.853 27.6338 102.028 27.6302 102.186 27.623C102.343 27.6159 102.501 27.6123 102.658 27.6123C102.837 27.6123 103.02 27.6051 103.206 27.5908C103.399 27.5765 103.632 27.5693 103.904 27.5693C104.019 27.5693 104.101 27.6051 104.151 27.6768C104.209 27.7412 104.237 27.8128 104.237 27.8916C104.237 27.9704 104.187 28.0277 104.087 28.0635C103.994 28.0993 103.915 28.1172 103.851 28.1172H102.852C102.673 28.1172 102.54 28.1602 102.454 28.2461C102.418 28.2819 102.4 28.3249 102.4 28.375C102.4 28.3965 102.433 28.4824 102.497 28.6328L104.968 32.7041C105.082 32.8402 105.201 32.9082 105.322 32.9082C105.358 32.9082 105.451 32.8044 105.602 32.5967L107.159 29.4707C107.238 29.306 107.288 29.1771 107.31 29.084C107.331 28.9837 107.342 28.9014 107.342 28.8369V28.7617C107.342 28.6042 107.274 28.4967 107.138 28.4395C107.009 28.375 106.83 28.3034 106.601 28.2246C106.586 28.2103 106.493 28.2031 106.321 28.2031H106.139C106.053 28.2031 105.995 28.1995 105.967 28.1924C105.816 28.1709 105.741 28.0957 105.741 27.9668C105.741 27.888 105.763 27.8128 105.806 27.7412C105.856 27.6696 105.924 27.6338 106.01 27.6338C106.411 27.6338 106.722 27.6374 106.944 27.6445C107.174 27.6445 107.363 27.6445 107.514 27.6445C107.693 27.6445 107.829 27.6481 107.922 27.6553C108.022 27.6624 108.151 27.666 108.309 27.666C108.409 27.666 108.509 27.6624 108.609 27.6553C108.71 27.6481 108.821 27.6445 108.942 27.6445C109.086 27.6445 109.254 27.6445 109.447 27.6445C109.641 27.6374 109.881 27.6338 110.167 27.6338C110.203 27.6338 110.224 27.6624 110.231 27.7197C110.239 27.7699 110.242 27.8128 110.242 27.8486C110.242 27.863 110.231 27.888 110.21 27.9238C110.188 27.9525 110.163 27.974 110.135 27.9883C110.006 28.0456 109.888 28.0885 109.78 28.1172C109.68 28.1458 109.576 28.1745 109.469 28.2031C109.368 28.2246 109.265 28.2533 109.157 28.2891C109.057 28.3177 108.942 28.3571 108.813 28.4072C108.699 28.443 108.595 28.5111 108.502 28.6113C108.416 28.7116 108.334 28.819 108.255 28.9336C108.19 29.0124 108.133 29.0983 108.083 29.1914C108.04 29.2773 107.979 29.3776 107.9 29.4922L106.149 32.7578C106.114 32.8366 106.067 32.9333 106.01 33.0479C105.952 33.1553 105.895 33.2699 105.838 33.3916C105.781 33.5133 105.73 33.6351 105.688 33.7568C105.652 33.8786 105.634 33.986 105.634 34.0791V37.1836C105.634 37.2839 105.713 37.3447 105.87 37.3662C106.028 37.3877 106.203 37.4056 106.396 37.4199C106.59 37.4342 106.765 37.4629 106.923 37.5059C107.08 37.5417 107.159 37.6276 107.159 37.7637C107.159 37.8711 107.134 37.9391 107.084 37.9678C107.034 37.9893 106.948 38 106.826 38H104.184C104.09 38 104.001 38 103.915 38C103.836 38.0072 103.75 38.0107 103.657 38.0107C103.564 38.0179 103.464 38.0215 103.356 38.0215C103.249 38.0286 103.124 38.0322 102.98 38.0322H102.604C102.468 38.0179 102.4 37.9714 102.4 37.8926ZM123.477 24.3359V36.7969C123.477 36.9616 123.566 37.0869 123.745 37.1729C123.931 37.2588 124.143 37.3232 124.379 37.3662C124.622 37.4092 124.862 37.4414 125.099 37.4629C125.335 37.4772 125.507 37.4951 125.614 37.5166C125.679 37.5954 125.715 37.6527 125.722 37.6885C125.736 37.7171 125.743 37.7637 125.743 37.8281C125.743 37.8926 125.722 37.9463 125.679 37.9893C125.643 38.0322 125.596 38.0645 125.539 38.0859C125.482 38.1146 125.417 38.1361 125.346 38.1504C125.281 38.1647 125.22 38.1719 125.163 38.1719C125.02 38.1719 124.801 38.1576 124.508 38.1289C124.214 38.1003 123.903 38.068 123.573 38.0322C123.251 38.0036 122.936 37.9749 122.628 37.9463C122.327 37.9176 122.094 37.9033 121.93 37.9033C121.65 37.9033 121.382 37.9069 121.124 37.9141C120.866 37.9212 120.598 37.9499 120.318 38C120.261 38 120.168 38.0107 120.039 38.0322C119.917 38.0609 119.781 38.0895 119.631 38.1182C119.48 38.1468 119.33 38.1719 119.18 38.1934C119.036 38.222 118.918 38.2363 118.825 38.2363C118.754 38.2363 118.7 38.2041 118.664 38.1396C118.628 38.0824 118.61 38.0358 118.61 38C118.61 37.9069 118.66 37.8317 118.761 37.7744C118.868 37.7171 118.958 37.6813 119.029 37.667C119.072 37.6455 119.151 37.6204 119.266 37.5918C119.387 37.5632 119.52 37.5345 119.663 37.5059C119.806 37.4701 119.942 37.4378 120.071 37.4092C120.207 37.3734 120.315 37.3411 120.394 37.3125C120.508 37.2839 120.608 37.2552 120.694 37.2266C120.78 37.1908 120.852 37.1478 120.909 37.0977C120.966 37.0404 121.009 36.9688 121.038 36.8828C121.067 36.7897 121.081 36.6715 121.081 36.5283V24.7656C121.081 24.7083 121.077 24.6475 121.07 24.583C121.063 24.5114 121.049 24.4469 121.027 24.3896C121.006 24.3324 120.974 24.2858 120.931 24.25C120.888 24.2142 120.827 24.1963 120.748 24.1963H118.342C118.02 24.1963 117.744 24.2249 117.515 24.2822C117.285 24.3324 117.074 24.4147 116.881 24.5293C116.645 24.651 116.405 24.8158 116.161 25.0234C115.925 25.2311 115.742 25.4495 115.613 25.6787C115.592 25.7145 115.57 25.7646 115.549 25.8291C115.535 25.8936 115.513 25.958 115.484 26.0225C115.456 26.0869 115.424 26.1442 115.388 26.1943C115.352 26.2445 115.309 26.2695 115.259 26.2695C115.23 26.2695 115.198 26.248 115.162 26.2051C115.126 26.1621 115.09 26.1084 115.055 26.0439C115.019 25.9723 114.987 25.8971 114.958 25.8184C114.937 25.7324 114.926 25.6501 114.926 25.5713C114.926 25.4137 114.958 25.249 115.022 25.0771C115.094 24.9053 115.18 24.7227 115.28 24.5293C115.381 24.3359 115.488 24.1283 115.603 23.9062C115.717 23.6771 115.821 23.4264 115.914 23.1543V22.9609C115.914 22.9108 115.925 22.8571 115.946 22.7998C115.982 22.7354 116.032 22.6995 116.097 22.6924C116.168 22.6781 116.243 22.6709 116.322 22.6709C116.387 22.6709 116.44 22.6924 116.483 22.7354C116.526 22.7712 116.569 22.8141 116.612 22.8643C116.655 22.9144 116.702 22.9681 116.752 23.0254C116.809 23.0755 116.877 23.1113 116.956 23.1328C117.042 23.1543 117.207 23.1829 117.45 23.2188C117.694 23.2474 118.027 23.276 118.449 23.3047C118.879 23.3333 119.402 23.3584 120.018 23.3799C120.633 23.4014 121.36 23.4121 122.198 23.4121C122.399 23.4121 122.628 23.4085 122.886 23.4014C123.144 23.387 123.409 23.3727 123.681 23.3584C123.96 23.3441 124.236 23.3333 124.508 23.3262C124.78 23.3118 125.031 23.3047 125.26 23.3047C125.439 23.3047 125.6 23.3118 125.743 23.3262C125.886 23.3405 126.04 23.362 126.205 23.3906C126.291 23.4049 126.384 23.4193 126.484 23.4336C126.585 23.4479 126.685 23.4622 126.785 23.4766C126.885 23.4837 126.979 23.4909 127.064 23.498C127.15 23.5052 127.218 23.5088 127.269 23.5088C127.405 23.5088 127.473 23.4336 127.473 23.2832C127.473 23.2044 127.498 23.1292 127.548 23.0576C127.612 22.9788 127.698 22.8857 127.806 22.7783C127.913 22.6709 128.006 22.6172 128.085 22.6172C128.142 22.6172 128.203 22.6566 128.268 22.7354C128.339 22.8141 128.407 22.9108 128.472 23.0254C128.543 23.1328 128.608 23.2438 128.665 23.3584C128.729 23.4658 128.783 23.5518 128.826 23.6162C128.876 23.7308 128.912 23.8704 128.934 24.0352C128.955 24.1927 128.98 24.3145 129.009 24.4004C129.037 24.4648 129.098 24.5687 129.191 24.7119C129.292 24.8551 129.392 25.0091 129.492 25.1738C129.592 25.3314 129.682 25.4854 129.761 25.6357C129.847 25.7861 129.89 25.9043 129.89 25.9902C129.89 26.1764 129.807 26.2695 129.643 26.2695C129.542 26.2695 129.421 26.2122 129.277 26.0977C129.141 25.9831 128.994 25.8506 128.837 25.7002C128.687 25.5498 128.533 25.3994 128.375 25.249C128.217 25.0915 128.071 24.9697 127.935 24.8838C127.841 24.8265 127.713 24.762 127.548 24.6904C127.39 24.6188 127.222 24.5472 127.043 24.4756C126.864 24.404 126.688 24.3431 126.517 24.293C126.345 24.2428 126.198 24.2106 126.076 24.1963C125.883 24.1605 125.682 24.1426 125.475 24.1426C125.267 24.1354 125.066 24.1318 124.873 24.1318H124.261C124.239 24.1318 124.186 24.1354 124.1 24.1426C124.021 24.1497 123.935 24.1641 123.842 24.1855C123.749 24.1999 123.663 24.2214 123.584 24.25C123.512 24.2715 123.477 24.3001 123.477 24.3359ZM133.478 28.2998V36.7217C133.478 36.7575 133.481 36.8112 133.488 36.8828C133.495 36.9544 133.506 37.0296 133.521 37.1084C133.542 37.18 133.571 37.2445 133.606 37.3018C133.642 37.359 133.692 37.3877 133.757 37.3877H134.938C135.017 37.3877 135.082 37.4199 135.132 37.4844C135.189 37.5488 135.218 37.6204 135.218 37.6992C135.218 37.7637 135.186 37.8317 135.121 37.9033C135.057 37.9678 134.992 38 134.928 38H131.555C131.411 38 131.268 38.0036 131.125 38.0107C130.982 38.0251 130.824 38.0322 130.652 38.0322C130.552 38.0322 130.455 38.0286 130.362 38.0215C130.269 38.0143 130.183 38 130.104 37.9785C130.062 37.9499 130.04 37.8818 130.04 37.7744C130.04 37.624 130.076 37.5381 130.147 37.5166C130.326 37.488 130.48 37.4665 130.609 37.4521C130.738 37.4307 130.874 37.4199 131.018 37.4199C131.132 37.4199 131.211 37.4199 131.254 37.4199C131.304 37.4128 131.361 37.402 131.426 37.3877C131.526 37.3447 131.576 37.1943 131.576 36.9365V28.375C131.576 28.2891 131.533 28.2139 131.447 28.1494C131.368 28.0778 131.29 28.042 131.211 28.042C131.046 28.042 130.917 28.0563 130.824 28.085C130.738 28.1064 130.624 28.1172 130.48 28.1172C130.387 28.1172 130.294 28.11 130.201 28.0957C130.108 28.0742 130.015 28.0492 129.922 28.0205C129.872 27.999 129.847 27.9561 129.847 27.8916C129.825 27.7985 129.832 27.7233 129.868 27.666C129.911 27.6087 129.968 27.5658 130.04 27.5371C130.112 27.5013 130.19 27.4798 130.276 27.4727C130.369 27.4655 130.455 27.4619 130.534 27.4619H134.401C134.588 27.4619 134.706 27.4619 134.756 27.4619C134.806 27.4619 134.838 27.4691 134.853 27.4834C134.989 27.5049 135.057 27.5837 135.057 27.7197C135.057 27.8701 134.974 27.9668 134.81 28.0098C134.645 28.0527 134.462 28.0778 134.262 28.085C134.068 28.0921 133.889 28.1064 133.725 28.1279C133.56 28.1423 133.478 28.1995 133.478 28.2998ZM144.456 27.9238V30.2871C144.456 30.373 144.431 30.4518 144.381 30.5234C144.338 30.5879 144.277 30.6201 144.198 30.6201C144.091 30.6201 143.994 30.57 143.908 30.4697C143.829 30.3695 143.758 30.2549 143.693 30.126C143.629 29.9899 143.568 29.8538 143.511 29.7178C143.461 29.5817 143.41 29.4743 143.36 29.3955C143.282 29.2881 143.206 29.195 143.135 29.1162C143.07 29.0303 142.999 28.9551 142.92 28.8906C142.841 28.819 142.755 28.7546 142.662 28.6973C142.569 28.64 142.465 28.5827 142.351 28.5254C142.179 28.4395 141.982 28.3714 141.76 28.3213C141.545 28.2712 141.291 28.2461 140.997 28.2461C140.711 28.2461 140.421 28.3177 140.127 28.4609C139.833 28.597 139.597 28.7904 139.418 29.041C139.282 29.2272 139.157 29.4421 139.042 29.6855C138.935 29.929 138.838 30.194 138.752 30.4805C138.673 30.7598 138.612 31.0534 138.569 31.3613C138.526 31.6621 138.505 31.9593 138.505 32.2529C138.505 32.3389 138.512 32.4928 138.526 32.7148C138.541 32.9297 138.566 33.1732 138.602 33.4453C138.645 33.7174 138.702 33.9967 138.773 34.2832C138.852 34.5697 138.956 34.8239 139.085 35.0459C139.357 35.583 139.719 36.0234 140.17 36.3672C140.628 36.7109 141.158 36.89 141.76 36.9043C141.939 36.9043 142.111 36.8828 142.275 36.8398C142.447 36.7969 142.605 36.7432 142.748 36.6787C142.777 36.6644 142.823 36.6357 142.888 36.5928C142.952 36.5498 143.02 36.5033 143.092 36.4531C143.163 36.3958 143.231 36.3385 143.296 36.2812C143.368 36.224 143.421 36.1774 143.457 36.1416C143.55 36.0342 143.636 35.916 143.715 35.7871C143.794 35.6582 143.858 35.5329 143.908 35.4111C143.965 35.2822 144.012 35.1676 144.048 35.0674C144.084 34.96 144.109 34.8776 144.123 34.8203C144.145 34.7344 144.213 34.6914 144.327 34.6914C144.363 34.6914 144.392 34.7093 144.413 34.7451C144.435 34.7809 144.449 34.8239 144.456 34.874C144.47 34.917 144.478 34.96 144.478 35.0029C144.485 35.0459 144.488 35.0781 144.488 35.0996C144.488 35.5365 144.392 35.9303 144.198 36.2812C144.012 36.6322 143.758 36.9329 143.436 37.1836C143.128 37.4342 142.795 37.6348 142.437 37.7852C142.078 37.9284 141.699 38 141.298 38C140.804 38 140.349 37.9427 139.934 37.8281C139.525 37.7064 139.153 37.5452 138.816 37.3447C138.487 37.137 138.193 36.8936 137.936 36.6143C137.685 36.3278 137.466 36.0199 137.28 35.6904C137.051 35.2894 136.868 34.8311 136.732 34.3154C136.604 33.7998 136.539 33.2985 136.539 32.8115C136.539 32.0309 136.715 31.304 137.065 30.6309C137.416 29.9505 137.928 29.3096 138.602 28.708C139.003 28.3714 139.407 28.11 139.815 27.9238C140.231 27.7376 140.7 27.6445 141.223 27.6445C141.43 27.6445 141.624 27.6553 141.803 27.6768C141.989 27.6911 142.175 27.7233 142.361 27.7734C142.555 27.8164 142.755 27.8773 142.963 27.9561C143.171 28.0348 143.403 28.1315 143.661 28.2461C143.668 28.2533 143.69 28.2568 143.726 28.2568C143.812 28.2568 143.876 28.2318 143.919 28.1816C143.962 28.1315 143.998 28.0742 144.026 28.0098C144.062 27.9453 144.098 27.888 144.134 27.8379C144.17 27.7878 144.227 27.7627 144.306 27.7627C144.334 27.7627 144.367 27.7806 144.402 27.8164C144.438 27.8522 144.456 27.888 144.456 27.9238ZM149.494 37.0869C149.58 37.3376 149.777 37.4629 150.085 37.4629H150.321H150.525C150.561 37.4629 150.593 37.4665 150.622 37.4736C150.658 37.4808 150.708 37.488 150.772 37.4951C150.844 37.5166 150.88 37.6061 150.88 37.7637C150.88 37.8639 150.848 37.9248 150.783 37.9463C150.726 37.9606 150.654 37.9678 150.568 37.9678C150.296 37.9678 149.992 37.957 149.655 37.9355C149.319 37.9069 148.996 37.8926 148.688 37.8926C148.159 37.8926 147.725 37.9105 147.389 37.9463C147.052 37.9821 146.769 38 146.54 38C146.468 38 146.404 37.9928 146.347 37.9785C146.289 37.9642 146.261 37.9105 146.261 37.8174C146.261 37.7816 146.264 37.7279 146.271 37.6562C146.286 37.5846 146.318 37.5452 146.368 37.5381C146.562 37.5023 146.755 37.4844 146.948 37.4844C147.142 37.4772 147.324 37.4557 147.496 37.4199C147.604 37.4128 147.664 37.3662 147.679 37.2803C147.7 37.1943 147.711 37.1012 147.711 37.001L147.84 28.6543C147.84 28.5898 147.818 28.529 147.775 28.4717C147.74 28.4072 147.672 28.3678 147.571 28.3535L146.701 28.2783C146.622 28.2783 146.562 28.2533 146.519 28.2031C146.483 28.1458 146.465 28.085 146.465 28.0205C146.465 27.863 146.551 27.7842 146.723 27.7842C147.16 27.7842 147.532 27.7985 147.84 27.8271C148.148 27.8558 148.355 27.8701 148.463 27.8701C148.721 27.8701 148.939 27.8665 149.118 27.8594C149.304 27.8522 149.465 27.8451 149.602 27.8379C149.745 27.8236 149.867 27.8128 149.967 27.8057C150.067 27.7985 150.167 27.7949 150.268 27.7949H150.622C150.715 27.7949 150.79 27.8128 150.848 27.8486C150.898 27.8844 150.926 27.9238 150.934 27.9668C150.948 28.0098 150.955 28.0456 150.955 28.0742C150.955 28.153 150.912 28.2031 150.826 28.2246C150.805 28.2389 150.758 28.2497 150.687 28.2568C150.615 28.2568 150.529 28.2604 150.429 28.2676C150.328 28.2747 150.221 28.2819 150.106 28.2891C149.999 28.2962 149.899 28.307 149.806 28.3213C149.705 28.3499 149.645 28.4108 149.623 28.5039C149.609 28.5898 149.602 28.6901 149.602 28.8047L149.548 31.8662C149.548 31.9307 149.598 31.9629 149.698 31.9629C149.741 31.9629 149.813 31.9378 149.913 31.8877C150.013 31.8376 150.128 31.7695 150.257 31.6836C150.386 31.5977 150.515 31.5046 150.644 31.4043C150.78 31.2969 150.901 31.1895 151.009 31.082L152.856 29.5029C152.957 29.4313 153.025 29.3454 153.061 29.2451C153.096 29.1449 153.114 29.0768 153.114 29.041C153.114 28.9264 153.096 28.8154 153.061 28.708C153.032 28.6006 152.967 28.5146 152.867 28.4502C152.853 28.4359 152.813 28.4215 152.749 28.4072C152.692 28.3929 152.624 28.3786 152.545 28.3643C152.473 28.3499 152.398 28.3356 152.319 28.3213C152.241 28.307 152.173 28.2926 152.115 28.2783C152.001 28.2497 151.918 28.2282 151.868 28.2139C151.818 28.1995 151.793 28.1423 151.793 28.042C151.793 28.0133 151.8 27.9775 151.814 27.9346C151.836 27.8916 151.879 27.8701 151.943 27.8701C152.395 27.8701 152.799 27.8665 153.157 27.8594C153.522 27.8522 153.863 27.8451 154.178 27.8379C154.493 27.8236 154.797 27.8128 155.091 27.8057C155.384 27.7913 155.692 27.7842 156.015 27.7842H156.165C156.308 27.7842 156.387 27.7878 156.401 27.7949C156.466 27.8236 156.498 27.8809 156.498 27.9668C156.498 27.9883 156.466 28.0384 156.401 28.1172C156.33 28.1673 156.237 28.2031 156.122 28.2246C156.108 28.2246 156.058 28.2354 155.972 28.2568C155.886 28.2783 155.793 28.3034 155.692 28.332C155.599 28.3607 155.51 28.3893 155.424 28.418C155.338 28.4466 155.291 28.4645 155.284 28.4717C155.241 28.486 155.17 28.5218 155.069 28.5791C154.976 28.6364 154.876 28.6973 154.769 28.7617C154.668 28.8262 154.572 28.887 154.479 28.9443C154.393 29.0016 154.335 29.0339 154.307 29.041C154.199 29.1055 154.074 29.1914 153.931 29.2988C153.787 29.4062 153.644 29.5208 153.501 29.6426C153.358 29.7643 153.215 29.8861 153.071 30.0078C152.935 30.1224 152.821 30.2155 152.728 30.2871C152.663 30.3372 152.588 30.4017 152.502 30.4805C152.416 30.5592 152.326 30.6416 152.233 30.7275C152.14 30.8063 152.047 30.8851 151.954 30.9639C151.868 31.0426 151.797 31.1071 151.739 31.1572C151.689 31.193 151.65 31.2324 151.621 31.2754C151.6 31.3112 151.589 31.3792 151.589 31.4795C151.589 31.5583 151.639 31.6585 151.739 31.7803C151.847 31.902 151.951 32.0166 152.051 32.124C152.151 32.2529 152.323 32.4678 152.566 32.7686C152.81 33.0693 153.082 33.4095 153.383 33.7891C153.684 34.1686 153.995 34.5661 154.317 34.9814C154.64 35.3896 154.937 35.7656 155.209 36.1094C155.324 36.2741 155.456 36.4209 155.606 36.5498C155.764 36.6787 155.929 36.7969 156.101 36.9043C156.272 37.0117 156.448 37.1084 156.627 37.1943C156.806 37.2731 156.978 37.3483 157.143 37.4199C157.307 37.4701 157.429 37.5059 157.508 37.5273C157.587 37.5417 157.683 37.5632 157.798 37.5918C157.869 37.6133 157.905 37.6491 157.905 37.6992C157.905 37.7493 157.869 37.7887 157.798 37.8174C157.726 37.8389 157.64 37.8496 157.54 37.8496H157.271C157.2 37.8496 157.107 37.846 156.992 37.8389C156.885 37.8317 156.767 37.8245 156.638 37.8174C156.509 37.8031 156.376 37.7923 156.24 37.7852C156.104 37.778 155.972 37.7744 155.843 37.7744C155.585 37.7744 155.306 37.7852 155.005 37.8066C154.711 37.8281 154.421 37.8496 154.135 37.8711C153.855 37.8926 153.598 37.9141 153.361 37.9355C153.125 37.957 152.942 37.9678 152.813 37.9678C152.735 37.9678 152.656 37.9427 152.577 37.8926C152.498 37.8424 152.459 37.778 152.459 37.6992C152.459 37.6204 152.488 37.556 152.545 37.5059C152.602 37.4486 152.663 37.4199 152.728 37.4199H153.522C153.587 37.4199 153.648 37.3949 153.705 37.3447C153.77 37.2874 153.802 37.2266 153.802 37.1621C153.802 37.1263 153.787 37.0833 153.759 37.0332C153.737 36.9759 153.712 36.9258 153.684 36.8828C153.655 36.8327 153.619 36.7826 153.576 36.7324C153.018 36.0234 152.455 35.318 151.89 34.6162C151.324 33.9144 150.722 33.209 150.085 32.5C150.035 32.4141 149.935 32.3711 149.784 32.3711C149.741 32.3711 149.691 32.3926 149.634 32.4355C149.576 32.4785 149.548 32.5537 149.548 32.6611L149.494 37.0869ZM162.02 32.6289L163.856 32.5537C164.143 32.5322 164.361 32.4642 164.512 32.3496C164.662 32.2279 164.773 32.0846 164.845 31.9199C164.924 31.748 164.981 31.5618 165.017 31.3613C165.06 31.1608 165.12 30.9639 165.199 30.7705C165.221 30.6846 165.257 30.6416 165.307 30.6416C165.407 30.6416 165.457 30.6667 165.457 30.7168V31.1465C165.457 31.4329 165.443 31.7445 165.414 32.0811C165.393 32.4105 165.382 32.6934 165.382 32.9297C165.382 33.1589 165.4 33.4023 165.436 33.6602C165.479 33.918 165.5 34.1829 165.5 34.4551C165.5 34.4909 165.496 34.5482 165.489 34.627C165.482 34.7057 165.471 34.7881 165.457 34.874C165.443 34.96 165.421 35.0352 165.393 35.0996C165.371 35.1641 165.339 35.1963 165.296 35.1963C165.217 35.1963 165.167 35.1605 165.146 35.0889C165.131 35.0101 165.117 34.9385 165.103 34.874C165.088 34.7881 165.063 34.6842 165.027 34.5625C164.992 34.4408 164.952 34.319 164.909 34.1973C164.866 34.0684 164.827 33.9538 164.791 33.8535C164.755 33.7533 164.73 33.6852 164.716 33.6494C164.651 33.5205 164.526 33.4202 164.34 33.3486C164.154 33.2699 163.942 33.2126 163.706 33.1768C163.477 33.1338 163.237 33.1087 162.986 33.1016C162.743 33.0872 162.528 33.0801 162.342 33.0801H162.02C161.905 33.0801 161.833 33.1051 161.805 33.1553C161.776 33.1982 161.762 33.2699 161.762 33.3701V37.1406C161.762 37.3555 161.83 37.4915 161.966 37.5488H165.231C165.375 37.5488 165.521 37.5488 165.672 37.5488C165.829 37.5417 165.933 37.5238 165.983 37.4951C166.091 37.4665 166.18 37.4056 166.252 37.3125C166.331 37.2122 166.395 37.1191 166.445 37.0332C166.467 36.9974 166.506 36.9222 166.563 36.8076C166.628 36.693 166.692 36.5713 166.757 36.4424C166.828 36.3063 166.893 36.181 166.95 36.0664C167.015 35.9518 167.061 35.8766 167.09 35.8408C167.133 35.7549 167.204 35.7119 167.305 35.7119C167.369 35.7119 167.416 35.737 167.444 35.7871V37.3877C167.444 37.4521 167.437 37.513 167.423 37.5703C167.416 37.6204 167.405 37.6849 167.391 37.7637C167.362 37.8639 167.326 37.932 167.283 37.9678C167.24 37.9964 167.158 38.0251 167.036 38.0537C166.313 38.0537 165.625 38.0501 164.974 38.043C164.329 38.0358 163.674 38.0286 163.008 38.0215C162.342 38.0215 161.64 38.0179 160.902 38.0107C160.165 38.0036 159.341 38 158.432 38C158.31 38 158.249 37.9391 158.249 37.8174C158.249 37.7386 158.288 37.6777 158.367 37.6348C158.446 37.5918 158.518 37.5632 158.582 37.5488C158.625 37.5488 158.693 37.5452 158.786 37.5381C158.886 37.5309 158.994 37.5273 159.108 37.5273C159.223 37.5202 159.334 37.513 159.441 37.5059C159.549 37.4987 159.642 37.4951 159.721 37.4951C159.893 37.4951 159.979 37.359 159.979 37.0869V29.1592C159.979 29.0374 159.964 28.887 159.936 28.708C159.914 28.529 159.868 28.3786 159.796 28.2568C159.746 28.221 159.721 28.2031 159.721 28.2031L158.217 28.0527C158.081 28.0527 158.013 27.9847 158.013 27.8486C158.013 27.8128 158.02 27.7699 158.034 27.7197C158.049 27.6624 158.095 27.6338 158.174 27.6338H159.936C160.623 27.6338 161.3 27.6302 161.966 27.623C162.632 27.6159 163.244 27.6123 163.803 27.6123H165.328C165.443 27.6123 165.561 27.6159 165.683 27.623C165.812 27.623 165.933 27.6266 166.048 27.6338C166.162 27.6338 166.266 27.6374 166.359 27.6445C166.452 27.6445 166.524 27.6445 166.574 27.6445C166.624 27.6517 166.664 27.6768 166.692 27.7197C166.721 27.7627 166.739 27.8164 166.746 27.8809C166.76 27.9382 166.768 27.999 166.768 28.0635C166.775 28.1208 166.778 28.1673 166.778 28.2031V29.9541C166.778 30.0186 166.753 30.0508 166.703 30.0508C166.624 30.0508 166.563 30.0007 166.521 29.9004C166.485 29.793 166.427 29.6676 166.349 29.5244C166.284 29.3669 166.205 29.2093 166.112 29.0518C166.019 28.8942 165.951 28.7725 165.908 28.6865C165.844 28.5648 165.743 28.4717 165.607 28.4072C165.479 28.3356 165.332 28.2819 165.167 28.2461C165.002 28.2031 164.834 28.1709 164.662 28.1494C164.49 28.1279 164.34 28.1029 164.211 28.0742C164.168 28.0742 164.057 28.0706 163.878 28.0635C163.699 28.0563 163.495 28.0527 163.266 28.0527C163.044 28.0456 162.822 28.0384 162.6 28.0312C162.385 28.0241 162.216 28.0205 162.095 28.0205C161.944 28.0205 161.851 28.0635 161.815 28.1494C161.78 28.2354 161.762 28.3643 161.762 28.5361V32.3711C161.762 32.4355 161.783 32.4964 161.826 32.5537C161.876 32.6038 161.941 32.6289 162.02 32.6289ZM170.914 37.8281C170.914 37.7207 170.957 37.6455 171.043 37.6025C171.129 37.5524 171.222 37.513 171.322 37.4844C171.365 37.4844 171.43 37.4808 171.516 37.4736C171.609 37.4665 171.705 37.4593 171.806 37.4521C171.906 37.445 171.999 37.4378 172.085 37.4307C172.171 37.4235 172.232 37.4199 172.268 37.4199C172.411 37.4056 172.482 37.3376 172.482 37.2158V28.7832C172.482 28.7617 172.479 28.7259 172.472 28.6758C172.472 28.6257 172.468 28.5719 172.461 28.5146C172.454 28.4574 172.447 28.4001 172.439 28.3428C172.432 28.2855 172.425 28.2461 172.418 28.2246C172.418 28.2103 172.414 28.1888 172.407 28.1602C172.4 28.1315 172.379 28.11 172.343 28.0957C172.321 28.0957 172.285 28.0957 172.235 28.0957C172.185 28.0885 172.132 28.085 172.074 28.085C172.017 28.085 171.963 28.085 171.913 28.085C171.863 28.0778 171.827 28.0742 171.806 28.0742H171.397C171.283 28.0742 171.158 28.0778 171.021 28.085C170.885 28.0921 170.749 28.1029 170.613 28.1172C170.484 28.1243 170.366 28.1387 170.259 28.1602C170.151 28.1745 170.065 28.196 170.001 28.2246C169.879 28.2747 169.754 28.3786 169.625 28.5361C169.503 28.6865 169.382 28.8477 169.26 29.0195C169.145 29.1842 169.031 29.3311 168.916 29.46C168.809 29.5889 168.708 29.6533 168.615 29.6533C168.465 29.6533 168.39 29.5745 168.39 29.417V29.3633C168.468 29.0983 168.547 28.8333 168.626 28.5684C168.712 28.3034 168.787 28.0348 168.852 27.7627C168.866 27.6982 168.88 27.598 168.895 27.4619C168.916 27.3187 168.945 27.1755 168.98 27.0322C169.016 26.8818 169.066 26.7529 169.131 26.6455C169.195 26.5309 169.281 26.4736 169.389 26.4736C169.475 26.4736 169.543 26.5094 169.593 26.5811C169.643 26.6455 169.686 26.7243 169.722 26.8174C169.765 26.9033 169.811 26.9893 169.861 27.0752C169.911 27.154 169.979 27.2041 170.065 27.2256C170.352 27.2542 170.588 27.2721 170.774 27.2793C170.961 27.2793 171.15 27.2793 171.344 27.2793H171.795C172.54 27.2793 173.267 27.2721 173.976 27.2578C174.685 27.2363 175.411 27.2256 176.156 27.2256H176.715C176.851 27.2256 176.937 27.1755 176.973 27.0752C176.987 27.0537 177.001 27.0179 177.016 26.9678C177.037 26.9105 177.055 26.8496 177.069 26.7852C177.091 26.7207 177.109 26.6598 177.123 26.6025C177.145 26.5381 177.162 26.4951 177.177 26.4736C177.205 26.4307 177.245 26.4056 177.295 26.3984C177.345 26.3913 177.388 26.3877 177.424 26.3877C177.488 26.3877 177.531 26.3913 177.553 26.3984C177.581 26.4056 177.61 26.4307 177.639 26.4736C177.746 26.6383 177.832 26.821 177.896 27.0215C177.961 27.2148 178.022 27.4154 178.079 27.623C178.136 27.8236 178.194 28.0241 178.251 28.2246C178.308 28.4251 178.38 28.6113 178.466 28.7832C178.48 28.819 178.502 28.862 178.53 28.9121C178.559 28.9551 178.588 29.0016 178.616 29.0518C178.645 29.0947 178.67 29.1341 178.691 29.1699C178.72 29.2057 178.738 29.2308 178.745 29.2451C178.752 29.2738 178.767 29.3311 178.788 29.417C178.817 29.4958 178.831 29.571 178.831 29.6426C178.831 29.6855 178.82 29.707 178.799 29.707C178.656 29.707 178.502 29.6533 178.337 29.5459C178.179 29.4313 178.018 29.3024 177.854 29.1592C177.696 29.0088 177.538 28.862 177.381 28.7188C177.23 28.5684 177.094 28.4538 176.973 28.375C176.894 28.3249 176.779 28.2819 176.629 28.2461C176.479 28.2031 176.317 28.1673 176.146 28.1387C175.974 28.11 175.809 28.0885 175.651 28.0742C175.494 28.0599 175.372 28.0527 175.286 28.0527H175.082C175.018 28.0527 174.95 28.0563 174.878 28.0635C174.806 28.0706 174.738 28.085 174.674 28.1064C174.609 28.1279 174.556 28.1602 174.513 28.2031C174.47 28.2461 174.448 28.3034 174.448 28.375V34.0039C174.448 34.3333 174.438 34.6484 174.416 34.9492C174.402 35.2428 174.395 35.515 174.395 35.7656C174.395 35.8516 174.395 35.9697 174.395 36.1201C174.402 36.2705 174.409 36.4281 174.416 36.5928C174.423 36.7503 174.43 36.9007 174.438 37.0439C174.452 37.1872 174.466 37.2946 174.48 37.3662H175.77C175.877 37.3662 175.981 37.4056 176.081 37.4844C176.181 37.556 176.231 37.6527 176.231 37.7744C176.231 37.8102 176.224 37.8568 176.21 37.9141C176.196 37.9714 176.167 38 176.124 38H172.085H171.473H171.064C170.986 38 170.939 37.9893 170.925 37.9678C170.918 37.9463 170.914 37.8997 170.914 37.8281ZM179.97 36.3779C179.97 36.1846 180.013 35.9912 180.099 35.7979C180.185 35.6045 180.253 35.429 180.303 35.2715C180.303 35.2357 180.31 35.1748 180.324 35.0889C180.346 34.9958 180.367 34.8991 180.389 34.7988C180.41 34.6986 180.432 34.6055 180.453 34.5195C180.475 34.4264 180.493 34.3584 180.507 34.3154C180.528 34.2295 180.586 34.1865 180.679 34.1865C180.772 34.1865 180.826 34.2546 180.84 34.3906V34.6377C180.84 34.7523 180.843 34.8311 180.851 34.874C180.858 34.917 180.868 34.9564 180.883 34.9922C180.94 35.3073 181.03 35.6152 181.151 35.916C181.273 36.2096 181.431 36.4746 181.624 36.7109C181.817 36.9401 182.047 37.1263 182.312 37.2695C182.584 37.4128 182.899 37.4844 183.257 37.4844C183.522 37.4844 183.776 37.445 184.02 37.3662C184.263 37.2803 184.478 37.1621 184.664 37.0117C184.857 36.8542 185.008 36.6644 185.115 36.4424C185.23 36.2204 185.287 35.9697 185.287 35.6904C185.287 35.2607 185.208 34.9062 185.051 34.627C184.9 34.3477 184.7 34.1185 184.449 33.9395C184.206 33.7533 183.923 33.5993 183.601 33.4775C183.285 33.3558 182.96 33.2412 182.623 33.1338C182.294 33.0192 181.968 32.8939 181.646 32.7578C181.33 32.6217 181.048 32.4463 180.797 32.2314C180.553 32.0094 180.353 31.7337 180.195 31.4043C180.045 31.0749 179.97 30.6595 179.97 30.1582C179.97 29.9935 179.984 29.8431 180.013 29.707C180.049 29.571 180.091 29.4492 180.142 29.3418C180.192 29.2272 180.242 29.127 180.292 29.041C180.342 28.9551 180.389 28.8763 180.432 28.8047C180.539 28.6328 180.672 28.4645 180.829 28.2998C180.994 28.1279 181.184 27.9775 181.398 27.8486C181.613 27.7197 181.853 27.6159 182.118 27.5371C182.39 27.4512 182.684 27.4082 182.999 27.4082C183.293 27.4082 183.597 27.4655 183.912 27.5801C184.227 27.6875 184.51 27.8343 184.761 28.0205C184.84 28.0993 184.918 28.1781 184.997 28.2568C185.076 28.3356 185.155 28.375 185.233 28.375C185.341 28.375 185.423 28.3428 185.48 28.2783C185.545 28.2067 185.617 28.1136 185.695 27.999C185.71 27.9919 185.72 27.9847 185.728 27.9775C185.742 27.9704 185.756 27.9668 185.771 27.9668C185.792 27.9668 185.806 27.9847 185.813 28.0205C185.828 28.0563 185.839 28.0993 185.846 28.1494C185.86 28.1924 185.867 28.2389 185.867 28.2891C185.874 28.3392 185.878 28.375 185.878 28.3965C185.878 28.418 185.867 28.4896 185.846 28.6113C185.831 28.7331 185.806 28.8799 185.771 29.0518C185.742 29.2165 185.706 29.3955 185.663 29.5889C185.627 29.7751 185.584 29.9505 185.534 30.1152C185.491 30.2728 185.445 30.4053 185.395 30.5127C185.352 30.6201 185.309 30.6738 185.266 30.6738C185.251 30.6738 185.241 30.6702 185.233 30.6631C185.212 30.6488 185.198 30.6344 185.19 30.6201C185.133 30.5127 185.09 30.4232 185.062 30.3516C185.04 30.2799 185.022 30.2119 185.008 30.1475C185.001 30.083 184.993 30.0186 184.986 29.9541C184.986 29.8896 184.979 29.8145 184.965 29.7285C184.951 29.6211 184.915 29.5173 184.857 29.417C184.771 29.1807 184.675 28.9873 184.567 28.8369C184.467 28.6865 184.327 28.5326 184.148 28.375C184.041 28.2461 183.937 28.1494 183.837 28.085C183.744 28.0133 183.64 27.9632 183.525 27.9346C183.411 27.8988 183.282 27.8809 183.139 27.8809C182.995 27.8737 182.82 27.8701 182.612 27.8701C182.412 27.8701 182.226 27.9167 182.054 28.0098C181.889 28.1029 181.746 28.2246 181.624 28.375C181.502 28.5254 181.406 28.7008 181.334 28.9014C181.27 29.0947 181.237 29.2952 181.237 29.5029C181.237 29.8538 181.312 30.1439 181.463 30.373C181.62 30.5951 181.825 30.7848 182.075 30.9424C182.333 31.0928 182.623 31.2253 182.945 31.3398C183.268 31.4473 183.593 31.5618 183.923 31.6836C184.259 31.7982 184.589 31.9342 184.911 32.0918C185.233 32.2422 185.52 32.4427 185.771 32.6934C186.028 32.9368 186.232 33.2412 186.383 33.6064C186.54 33.9717 186.619 34.4264 186.619 34.9707C186.619 35.3359 186.53 35.6976 186.351 36.0557C186.179 36.4137 185.946 36.7467 185.652 37.0547C185.523 37.1979 185.359 37.3268 185.158 37.4414C184.958 37.556 184.736 37.6562 184.492 37.7422C184.256 37.821 184.002 37.8854 183.729 37.9355C183.465 37.9785 183.203 38 182.945 38C182.688 38 182.387 37.9463 182.043 37.8389C181.699 37.7243 181.373 37.5882 181.065 37.4307C180.757 37.266 180.496 37.0905 180.281 36.9043C180.074 36.7109 179.97 36.5355 179.97 36.3779Z" fill="#878787"/>
</svg>
