<svg width="335" height="201" viewBox="0 0 335 201" fill="none" xmlns="http://www.w3.org/2000/svg">
<rect x="50" width="50" height="50" fill="#121212"/>
<rect x="52.1666" y="2.16675" width="45.6667" height="45.6667" fill="#121212" stroke="#555555"/>
<rect x="50" width="50" height="50" fill="#121212"/>
<rect x="52.1666" y="2.16675" width="45.6667" height="45.6667" fill="#121212" stroke="#555555"/>
<rect x="50" width="50" height="50" fill="#121212"/>
<rect x="52.1666" y="2.16675" width="45.6667" height="45.6667" fill="#121212" stroke="#555555"/>
<rect x="50" width="50" height="50" fill="#121212"/>
<rect x="52.1666" y="2.16675" width="45.6667" height="45.6667" fill="#121212" stroke="#555555"/>
<rect x="129" width="50" height="50" fill="#121212"/>
<rect x="131.167" y="2.16675" width="45.6667" height="45.6667" fill="#121212" stroke="#555555"/>
<rect x="129" width="50" height="50" fill="#121212"/>
<rect x="131.167" y="2.16675" width="45.6667" height="45.6667" fill="#121212" stroke="#555555"/>
<rect x="129" width="50" height="50" fill="#121212"/>
<rect x="131.167" y="2.16675" width="45.6667" height="45.6667" fill="#121212" stroke="#555555"/>
<rect x="129" width="50" height="50" fill="#121212"/>
<rect x="131.167" y="2.16675" width="45.6667" height="45.6667" fill="#121212" stroke="#555555"/>
<rect x="207" width="50" height="50" fill="#121212"/>
<rect x="209.167" y="2.16675" width="45.6667" height="45.6667" fill="#121212" stroke="#555555"/>
<rect x="207" width="50" height="50" fill="#121212"/>
<rect x="209.167" y="2.16675" width="45.6667" height="45.6667" fill="#121212" stroke="#555555"/>
<rect x="207" width="50" height="50" fill="#121212"/>
<rect x="209.167" y="2.16675" width="45.6667" height="45.6667" fill="#121212" stroke="#555555"/>
<rect x="207" width="50" height="50" fill="#121212"/>
<rect x="209.167" y="2.16675" width="45.6667" height="45.6667" fill="#121212" stroke="#555555"/>
<rect x="207" width="50" height="50" fill="#121212"/>
<rect x="209.167" y="2.16675" width="45.6667" height="45.6667" fill="#121212" stroke="#555555"/>
<rect x="207" width="50" height="50" fill="#121212"/>
<rect x="209.167" y="2.16675" width="45.6667" height="45.6667" fill="#121212" stroke="#555555"/>
<rect x="207" width="50" height="50" fill="#121212"/>
<rect x="209.167" y="2.16675" width="45.6667" height="45.6667" fill="#121212" stroke="#555555"/>
<rect x="207" width="50" height="50" fill="#121212"/>
<rect x="209.167" y="2.16675" width="45.6667" height="45.6667" fill="#121212" stroke="#555555"/>
<rect x="285" width="50" height="50" fill="#121212"/>
<rect x="287.167" y="2.16675" width="45.6667" height="45.6667" fill="#121212" stroke="#555555"/>
<rect x="285" width="50" height="50" fill="#121212"/>
<rect x="287.167" y="2.16675" width="45.6667" height="45.6667" fill="#121212" stroke="#555555"/>
<rect x="285" width="50" height="50" fill="#121212"/>
<rect x="287.167" y="2.16675" width="45.6667" height="45.6667" fill="#121212" stroke="#555555"/>
<rect x="285" width="50" height="50" fill="#121212"/>
<rect x="287.167" y="2.16675" width="45.6667" height="45.6667" fill="#121212" stroke="#555555"/>
<rect x="285" width="50" height="50" fill="#121212"/>
<rect x="287.167" y="2.16675" width="45.6667" height="45.6667" fill="#121212" stroke="#555555"/>
<rect x="285" width="50" height="50" fill="#121212"/>
<rect x="287.167" y="2.16675" width="45.6667" height="45.6667" fill="#121212" stroke="#555555"/>
<rect x="285" width="50" height="50" fill="#121212"/>
<rect x="287.167" y="2.16675" width="45.6667" height="45.6667" fill="#121212" stroke="#555555"/>
<rect x="285" width="50" height="50" fill="#121212"/>
<rect x="287.167" y="2.16675" width="45.6667" height="45.6667" fill="#121212" stroke="#555555"/>
<g filter="url(#filter0_d_198_3)">
<path d="M65.9995 32.7363C66.0142 32.6631 66.0654 32.5166 66.1533 32.2969C66.2559 32.0625 66.3438 31.8647 66.417 31.7036C66.4756 31.6157 66.5854 31.5205 66.7466 31.418C66.9224 31.3154 67.1055 31.2129 67.2959 31.1104C67.501 31.0078 67.6987 30.9126 67.8892 30.8247C68.0796 30.7222 68.2188 30.6343 68.3066 30.561C68.5557 30.3706 68.812 30.2021 69.0757 30.0557C69.354 29.8945 69.6323 29.7334 69.9106 29.5723C70.189 29.4111 70.46 29.2427 70.7236 29.0669C71.002 28.8911 71.2583 28.6934 71.4927 28.4736C71.9468 28.0781 72.4229 27.5947 72.9209 27.0234C73.4189 26.4521 73.873 25.8442 74.2832 25.1997C74.6934 24.5405 75.0303 23.8667 75.2939 23.1782C75.5576 22.4897 75.6895 21.8232 75.6895 21.1787C75.6895 20.8711 75.6162 20.5708 75.4697 20.2778C75.3232 19.9849 75.1255 19.7285 74.8765 19.5088C74.6421 19.2744 74.3638 19.084 74.0415 18.9375C73.7339 18.791 73.4043 18.7178 73.0527 18.7178L72.2178 19.0034H71.3828C71.251 19.0034 71.1118 19.0181 70.9653 19.0474C70.8188 19.062 70.6797 19.1499 70.5479 19.311C70.3281 19.4722 70.1304 19.6919 69.9546 19.9702C69.7788 20.2339 69.5957 20.4902 69.4053 20.7393C69.2295 20.9883 69.0317 21.208 68.812 21.3984C68.5923 21.5742 68.3213 21.6621 67.999 21.6621C67.8379 21.6621 67.6768 21.6548 67.5156 21.6401C67.3545 21.6108 67.2227 21.5303 67.1201 21.3984V20.7612C67.1201 20.3657 67.1494 20.0728 67.208 19.8823C67.2812 19.6919 67.3765 19.5381 67.4937 19.4209C67.6108 19.3037 67.75 19.1938 67.9111 19.0913C68.0723 18.9741 68.2407 18.7837 68.4165 18.52L68.7241 18.1465C69.061 17.707 69.4126 17.2896 69.7788 16.894C70.1597 16.4985 70.6431 16.2129 71.229 16.0371L72.8989 15.8174L73.9756 15.5977C74.3271 15.5977 74.7373 15.627 75.2061 15.6855C75.6895 15.7441 76.1729 15.8394 76.6562 15.9712C77.1543 16.103 77.623 16.2788 78.0625 16.4985C78.502 16.7183 78.8608 16.9893 79.1392 17.3115C79.2417 17.4434 79.3296 17.5898 79.4028 17.751C79.4761 17.9121 79.542 18 79.6006 18.0146L80.2817 19.1353V21.6621C80.2817 21.9404 80.1792 22.1968 79.9741 22.4312C79.7837 22.6509 79.6079 22.8633 79.4468 23.0684C79.4321 23.083 79.4175 23.1123 79.4028 23.1562C79.3882 23.2002 79.3589 23.2808 79.3149 23.3979C79.271 23.5151 79.2124 23.6763 79.1392 23.8813C79.0659 24.0864 78.9634 24.3501 78.8315 24.6724C78.8169 24.7017 78.8022 24.7236 78.7876 24.7383C78.7583 24.7676 78.7363 24.7822 78.7217 24.7822C78.5605 24.8848 78.4434 24.9946 78.3701 25.1118C78.2969 25.229 78.231 25.3535 78.1724 25.4854C78.1284 25.6025 78.0771 25.7271 78.0186 25.8589C77.96 25.9761 77.8647 26.0859 77.7329 26.1885C77.5718 26.3203 77.418 26.4229 77.2715 26.4961C77.125 26.5547 76.9712 26.606 76.8101 26.6499C76.6636 26.6792 76.5098 26.7085 76.3486 26.7378C76.2021 26.7671 76.0557 26.8257 75.9092 26.9136C75.8945 26.9136 75.8359 26.9575 75.7334 27.0454C75.6455 27.1187 75.543 27.2065 75.4258 27.3091C75.3232 27.4116 75.2207 27.5068 75.1182 27.5947C75.0156 27.6826 74.9497 27.7339 74.9204 27.7485C74.9058 27.7485 74.8398 27.7852 74.7227 27.8584C74.6055 27.9316 74.481 28.0195 74.3491 28.1221C74.2173 28.2246 74.0928 28.3198 73.9756 28.4077C73.8584 28.4956 73.7925 28.5469 73.7778 28.5615C73.7046 28.6201 73.6021 28.7153 73.4702 28.8472C73.3384 28.979 73.2065 29.1182 73.0747 29.2646C72.9575 29.4111 72.855 29.5576 72.7671 29.7041C72.6792 29.8506 72.6353 29.9604 72.6353 30.0337C72.6353 30.1069 72.6792 30.1436 72.7671 30.1436H73.4702C73.8511 30.1436 74.2026 30.1655 74.5249 30.2095C74.8472 30.2388 75.1548 30.3193 75.4478 30.4512H76.5684C77.3447 30.4512 78.1284 30.3926 78.9194 30.2754C79.7104 30.1582 80.4575 29.9385 81.1606 29.6162C81.2925 29.543 81.3657 29.4551 81.3804 29.3525C81.395 29.25 81.4316 29.1475 81.4902 29.0449C81.6953 28.7959 81.9517 28.5762 82.2593 28.3857C82.5669 28.1953 82.8745 28.0195 83.1821 27.8584L83.5117 28.979C83.5117 29.228 83.4531 29.4844 83.3359 29.748C83.2334 29.9971 83.1016 30.2681 82.9404 30.561C82.8965 30.6636 82.8525 30.8467 82.8086 31.1104C82.7646 31.374 82.6987 31.645 82.6108 31.9233C82.5229 32.2017 82.4058 32.4507 82.2593 32.6704C82.1128 32.8901 81.9224 33 81.688 33L81.3145 33.0439C80.7432 33.1172 80.1792 33.1978 79.6226 33.2856C79.0806 33.3735 78.5312 33.4175 77.9746 33.4175C77.7988 33.4175 77.623 33.3882 77.4473 33.3296C77.2861 33.271 77.125 33.2051 76.9639 33.1318C76.8027 33.0586 76.6416 32.9927 76.4805 32.9341C76.3193 32.8755 76.1582 32.8462 75.9971 32.8462C75.6895 32.8462 75.3452 32.8682 74.9644 32.9121C74.5981 32.9561 74.2905 33.0073 74.0415 33.0659C73.9829 33.0659 73.8877 33.1025 73.7559 33.1758C73.6387 33.2637 73.5435 33.3442 73.4702 33.4175L71.4707 32.8462C71.2949 32.8462 71.1191 32.8975 70.9434 33C70.7822 33.1025 70.5991 33.1685 70.394 33.1978C70.1157 33.2271 69.8521 33.249 69.603 33.2637C69.3687 33.293 69.1196 33.3149 68.856 33.3296C68.6069 33.3589 68.3433 33.3809 68.0649 33.3955C67.8013 33.4102 67.501 33.4175 67.1641 33.4175C66.915 33.4175 66.6587 33.3735 66.395 33.2856C66.1313 33.2124 65.9995 33.0513 65.9995 32.8022V32.7363Z" fill="url(#paint0_diamond_198_3)"/>
</g>
<g filter="url(#filter1_d_198_3)">
<path d="M149.131 41.2397C149.131 40.8589 149.249 40.4634 149.483 40.0532C149.717 39.6431 150.032 39.3574 150.428 39.1963C151.043 38.6396 151.607 38.083 152.12 37.5264C152.647 36.9844 153.064 36.4277 153.372 35.8564C153.489 35.6514 153.548 35.3804 153.548 35.0435C153.548 34.9116 153.562 34.7798 153.592 34.6479C153.621 34.5308 153.643 34.4282 153.658 34.3403L154.075 33.2197C154.075 33.0879 154.083 33 154.097 32.9561C154.112 32.9121 154.119 32.8535 154.119 32.7803C154.119 32.707 154.134 32.6484 154.163 32.6045C154.207 32.5459 154.251 32.4873 154.295 32.4287C154.354 32.3701 154.397 32.2969 154.427 32.209C154.471 32.1064 154.493 31.9673 154.493 31.7915L154.383 30.8687L154.625 29.6821C154.625 29.5796 154.559 29.4111 154.427 29.1768C154.295 28.9424 154.134 28.6934 153.943 28.4297C153.753 28.166 153.555 27.9097 153.35 27.6606C153.16 27.397 152.999 27.1846 152.867 27.0234C152.837 27.0088 152.815 26.9868 152.801 26.9575C152.786 26.9136 152.757 26.877 152.713 26.8477L152.669 26.7598C152.596 26.6572 152.449 26.5254 152.229 26.3643C152.01 26.1885 151.783 26.0127 151.548 25.8369C151.314 25.6465 151.094 25.4707 150.889 25.3096C150.699 25.1338 150.589 24.9873 150.56 24.8701L150.428 24.189C150.311 23.9839 150.208 23.8081 150.12 23.6616C150.032 23.5005 149.959 23.354 149.9 23.2222C149.842 23.0757 149.791 22.9219 149.747 22.7607C149.717 22.585 149.703 22.3726 149.703 22.1235C149.703 21.9331 149.703 21.7646 149.703 21.6182C149.717 21.457 149.739 21.3105 149.769 21.1787C149.798 21.0322 149.834 20.8784 149.878 20.7173C149.937 20.5415 150.01 20.3438 150.098 20.124C150.069 20.0508 150.04 19.9629 150.01 19.8604C149.996 19.7578 149.988 19.6772 149.988 19.6187C149.988 19.2817 150.025 18.9961 150.098 18.7617C150.171 18.5127 150.259 18.2856 150.362 18.0806C150.479 17.8755 150.604 17.6777 150.735 17.4873C150.882 17.2969 151.021 17.0845 151.153 16.8501V16.2788L151.834 15.5537C152.068 15.2607 152.266 15.019 152.427 14.8286C152.603 14.6235 152.786 14.4624 152.977 14.3452C153.182 14.228 153.409 14.1475 153.658 14.1035C153.921 14.0596 154.251 14.0376 154.646 14.0376C154.969 14.0376 155.298 14.0669 155.635 14.1255C155.987 14.1841 156.338 14.2573 156.69 14.3452C157.042 14.4185 157.386 14.4844 157.723 14.543C158.074 14.6016 158.404 14.6309 158.711 14.6309C159.078 14.6309 159.415 14.543 159.722 14.3672C160.044 14.1768 160.337 13.9717 160.601 13.752C160.865 13.5176 161.099 13.3125 161.304 13.1367C161.524 12.9463 161.714 12.8511 161.875 12.8511C161.934 12.8511 161.978 12.8804 162.007 12.939C162.037 12.9976 162.059 13.0708 162.073 13.1587C162.088 13.2466 162.095 13.3345 162.095 13.4224C162.095 13.5103 162.095 13.5835 162.095 13.6421V13.686C162.007 14.0669 161.927 14.4111 161.854 14.7188C161.78 14.9824 161.714 15.2241 161.656 15.4438C161.597 15.6636 161.546 15.7881 161.502 15.8174C161.502 15.8906 161.465 15.9712 161.392 16.0591C161.333 16.147 161.29 16.2202 161.26 16.2788L160.843 16.6963C160.77 16.8428 160.711 17.0186 160.667 17.2236C160.638 17.4287 160.586 17.6265 160.513 17.8169C160.455 18.0073 160.359 18.1758 160.228 18.3223C160.11 18.4541 159.935 18.52 159.7 18.52C159.144 18.52 158.616 18.4761 158.118 18.3882C157.635 18.2856 157.159 18.1758 156.69 18.0586C156.221 17.9268 155.745 17.8169 155.262 17.729C154.793 17.6265 154.31 17.5752 153.812 17.5752H152.801C152.566 17.6484 152.383 17.8242 152.251 18.1025C152.134 18.3809 152.076 18.6445 152.076 18.8936C152.076 18.9961 152.244 19.2378 152.581 19.6187C152.918 19.9995 153.306 20.417 153.746 20.8711L154.537 21.6621C154.786 21.9551 155.027 22.2627 155.262 22.585C155.496 22.8926 155.672 23.1489 155.789 23.354C155.921 23.6763 156.111 23.9766 156.36 24.2549C156.609 24.5332 156.851 24.8408 157.085 25.1777L157.437 26.0347C157.715 26.269 157.876 26.4302 157.92 26.5181C157.979 26.5913 158.008 26.6646 158.008 26.7378C158.008 26.9868 158.023 27.2139 158.052 27.4189C158.082 27.624 158.177 27.7632 158.338 27.8364V28.7812L158.162 30.9126L158.338 31.4839C158.338 31.6011 158.331 31.7476 158.316 31.9233C158.301 32.0991 158.279 32.2822 158.25 32.4727C158.221 32.6631 158.184 32.8462 158.14 33.022C158.111 33.2124 158.074 33.3662 158.03 33.4834L157.547 34.0327C157.474 34.1499 157.422 34.2891 157.393 34.4502C157.364 34.626 157.334 34.8018 157.305 34.9775C157.291 35.168 157.261 35.3511 157.217 35.5269C157.188 35.7173 157.144 35.8857 157.085 36.0322C156.939 36.2812 156.727 36.6182 156.448 37.043C156.17 37.4678 155.848 37.9219 155.481 38.4053C155.115 38.8887 154.72 39.3794 154.295 39.8774C153.885 40.3901 153.467 40.8442 153.042 41.2397C152.632 41.6499 152.229 41.9795 151.834 42.2285C151.453 42.4922 151.102 42.624 150.779 42.624C150.618 42.624 150.435 42.5874 150.23 42.5142C150.04 42.4556 149.864 42.3677 149.703 42.2505C149.542 42.1333 149.402 41.9868 149.285 41.811C149.183 41.6353 149.131 41.4448 149.131 41.2397Z" fill="url(#paint1_diamond_198_3)"/>
</g>
<g filter="url(#filter2_d_198_3)">
<path d="M226.033 36.4048C226.033 36.1265 226.047 35.8994 226.077 35.7236C226.106 35.5625 226.165 35.4307 226.252 35.3281C226.34 35.2402 226.465 35.167 226.626 35.1084C226.802 35.0645 227.029 35.0059 227.307 34.9326C227.454 34.874 227.644 34.7935 227.878 34.6909C228.113 34.603 228.296 34.5591 228.428 34.5591C228.647 34.5591 228.86 34.6104 229.065 34.7129C229.27 34.8301 229.468 34.9546 229.658 35.0864C229.863 35.2183 230.076 35.3354 230.295 35.438C230.515 35.5552 230.75 35.6138 230.999 35.6138C231.35 35.6138 231.687 35.5479 232.009 35.416C232.346 35.2988 232.654 35.1304 232.932 34.9106C233.225 34.7056 233.489 34.4639 233.723 34.1855C233.958 33.9072 234.155 33.6216 234.316 33.3286C234.346 33.27 234.368 33.1528 234.382 32.9771C234.412 32.8013 234.426 32.6768 234.426 32.6035C234.485 32.5449 234.551 32.4937 234.624 32.4497C234.712 32.4204 234.792 32.3838 234.866 32.3398C234.939 32.2959 235.005 32.2373 235.063 32.1641C235.122 32.1055 235.151 32.0103 235.151 31.8784V29.6812C235.151 29.5933 235.115 29.4834 235.042 29.3516C234.983 29.2197 234.91 29.0879 234.822 28.9561C234.749 28.8242 234.668 28.7144 234.58 28.6265C234.507 28.5239 234.456 28.458 234.426 28.4287C234.192 28.1064 233.943 27.8281 233.679 27.5938C233.43 27.3447 233.159 27.1177 232.866 26.9126C232.588 26.6929 232.295 26.4878 231.987 26.2974C231.694 26.0923 231.394 25.8799 231.086 25.6602C231.072 25.6309 231.035 25.5869 230.977 25.5283C230.933 25.4551 230.874 25.3818 230.801 25.3086C230.742 25.2354 230.684 25.1768 230.625 25.1328C230.566 25.0742 230.515 25.0449 230.471 25.0449C230.31 25.0449 230.142 25.0815 229.966 25.1548C229.79 25.2134 229.614 25.2793 229.438 25.3525C229.263 25.4258 229.087 25.499 228.911 25.5723C228.735 25.6309 228.574 25.6602 228.428 25.6602C228.252 25.6602 228.076 25.5576 227.9 25.3525C227.739 25.1475 227.659 24.957 227.659 24.7812C227.659 24.4736 227.783 24.2173 228.032 24.0122C228.281 23.7925 228.567 23.6094 228.889 23.4629C229.226 23.3018 229.563 23.1699 229.9 23.0674C230.237 22.9648 230.5 22.877 230.691 22.8037C230.706 22.7891 230.742 22.7524 230.801 22.6938C230.859 22.6206 230.925 22.5474 230.999 22.4741C231.072 22.3862 231.145 22.313 231.218 22.2544C231.292 22.1812 231.35 22.1372 231.394 22.1226C231.541 21.9907 231.694 21.8735 231.855 21.771C232.031 21.6685 232.192 21.5732 232.339 21.4854C232.5 21.3828 232.654 21.2729 232.8 21.1558C232.947 21.0386 233.071 20.8921 233.174 20.7163L233.438 20.3428C233.833 19.6982 234.199 19.0391 234.536 18.3652C234.873 17.6914 235.042 16.9883 235.042 16.2559C235.042 16.2266 234.998 16.1606 234.91 16.0581C234.822 15.9556 234.712 15.8384 234.58 15.7065C234.448 15.5747 234.316 15.4355 234.185 15.2891C234.053 15.1279 233.943 14.9814 233.855 14.8496C233.723 14.6299 233.518 14.4907 233.24 14.4321C232.976 14.3589 232.727 14.3223 232.493 14.3223C231.951 14.498 231.497 14.6372 231.13 14.7397C230.764 14.8423 230.339 14.8936 229.856 14.8936L228.845 14.8496C228.611 14.835 228.457 14.7251 228.384 14.52C228.311 14.3003 228.274 14.1099 228.274 13.9487C228.274 13.6118 228.311 13.4067 228.384 13.3335L228.955 13.0259C229.263 12.8647 229.504 12.667 229.68 12.4326C229.871 12.1982 230.098 11.9712 230.361 11.7515C230.625 11.5757 230.911 11.4219 231.218 11.29C231.541 11.1582 231.87 11.0483 232.207 10.9604C232.544 10.8579 232.881 10.7847 233.218 10.7407C233.569 10.6968 233.906 10.6748 234.229 10.6748C234.536 10.6748 234.807 10.7407 235.042 10.8726C235.291 10.9897 235.569 11.1289 235.876 11.29C236.389 11.4805 236.807 11.6709 237.129 11.8613C237.451 12.0371 237.708 12.2495 237.898 12.4985C238.103 12.7476 238.264 13.0405 238.381 13.3774C238.513 13.7144 238.638 14.1318 238.755 14.6299C238.784 14.791 238.828 14.9521 238.887 15.1133C238.96 15.2598 238.997 15.4136 238.997 15.5747C238.997 15.897 238.938 16.2632 238.821 16.6733C238.718 17.0688 238.579 17.4717 238.403 17.8818C238.228 18.292 238.022 18.6802 237.788 19.0464C237.568 19.4126 237.349 19.7275 237.129 19.9912C237.026 20.1377 236.909 20.2476 236.777 20.3208C236.646 20.394 236.514 20.46 236.382 20.5186C236.25 20.5625 236.111 20.6138 235.964 20.6724C235.833 20.731 235.715 20.8188 235.613 20.936C235.378 21.1704 235.225 21.3975 235.151 21.6172C235.093 21.8369 234.976 22.042 234.8 22.2324C234.507 22.335 234.36 22.54 234.36 22.8477C234.36 22.9062 234.36 22.9429 234.36 22.9575C234.375 22.9575 234.382 22.9722 234.382 23.0015C234.47 23.1919 234.646 23.4043 234.91 23.6387C235.188 23.873 235.481 24.1147 235.789 24.3638C236.111 24.6128 236.418 24.8545 236.711 25.0889C237.004 25.3086 237.217 25.499 237.349 25.6602C237.393 26.085 237.48 26.4438 237.612 26.7368C237.759 27.0151 237.898 27.2861 238.03 27.5498C238.176 27.8135 238.301 28.0991 238.403 28.4067C238.521 28.6997 238.579 29.0879 238.579 29.5713C238.579 29.7324 238.564 29.9668 238.535 30.2744C238.506 30.582 238.462 30.9043 238.403 31.2412C238.359 31.5781 238.301 31.8931 238.228 32.186C238.169 32.479 238.103 32.6841 238.03 32.8013L237.458 33.5264C237.371 33.6289 237.29 33.7534 237.217 33.8999C237.158 34.0464 237.1 34.1929 237.041 34.3394C236.982 34.4858 236.917 34.6323 236.843 34.7788C236.77 34.9253 236.675 35.0498 236.558 35.1523C236.177 35.5625 235.649 36.0093 234.976 36.4927C234.302 36.9761 233.577 37.4229 232.8 37.833C232.024 38.2432 231.248 38.5801 230.471 38.8438C229.695 39.1221 229.021 39.2612 228.45 39.2612C228.201 39.2612 227.988 39.166 227.812 38.9756C227.651 38.7852 227.483 38.5874 227.307 38.3823C227.102 38.2651 226.919 38.1479 226.758 38.0308C226.611 37.9136 226.479 37.7817 226.362 37.6353C226.26 37.4888 226.179 37.3203 226.121 37.1299C226.062 36.9395 226.033 36.6978 226.033 36.4048Z" fill="url(#paint2_diamond_198_3)"/>
</g>
<g filter="url(#filter3_d_198_3)">
<path d="M309.723 39.2612L309.569 39.0635L309.723 38.3604C309.649 38.1992 309.613 37.9795 309.613 37.7012C309.613 37.5547 309.649 37.4009 309.723 37.2397L309.569 36.5586C309.759 36.2217 309.935 35.8701 310.096 35.5039C310.257 35.1523 310.389 34.7935 310.492 34.4272L310.865 33.1748C310.938 32.8379 311.07 32.5083 311.261 32.186C311.466 31.8638 311.598 31.5342 311.656 31.1973C311.715 30.6992 311.817 30.2598 311.964 29.8789C312.11 29.498 312.25 29.0513 312.381 28.5386C312.44 28.3774 312.477 28.2529 312.491 28.165C312.521 28.0771 312.535 27.9746 312.535 27.8574C312.535 27.7842 312.521 27.7183 312.491 27.6597C312.462 27.6011 312.447 27.5059 312.447 27.374L312.535 26.8687L312.579 26.7368C312.608 26.6343 312.63 26.5757 312.645 26.561C312.689 26.5317 312.748 26.4805 312.821 26.4072C312.894 26.3193 312.967 26.2314 313.041 26.1436C313.128 26.0557 313.202 25.9751 313.26 25.9019C313.319 25.814 313.355 25.7554 313.37 25.7261L313.568 25.0449C313.714 24.5908 313.861 24.1074 314.007 23.5947C314.154 23.082 314.374 22.6279 314.667 22.2324V21.6611C314.667 21.2949 314.696 20.9434 314.754 20.6064C314.813 20.2695 314.879 19.9326 314.952 19.5957C315.025 19.2588 315.099 18.9072 315.172 18.541C315.245 18.1748 315.304 17.772 315.348 17.3325C315.348 16.9663 315.274 16.666 315.128 16.4316C314.981 16.1973 314.791 16.0215 314.557 15.9043C314.337 15.7725 314.081 15.6846 313.788 15.6406C313.495 15.5967 313.202 15.5747 312.909 15.5747H311.283C310.667 15.5161 310.067 15.4575 309.481 15.3989C308.91 15.3403 308.302 15.311 307.657 15.311H307.284L307.02 15.1353H303.482C303.292 15.1353 303.131 15.2964 302.999 15.6187C302.867 15.9263 302.713 16.2705 302.538 16.6514C302.362 17.0322 302.142 17.3838 301.878 17.7061C301.615 18.0137 301.263 18.1675 300.824 18.1675C300.75 18.1675 300.714 18.1016 300.714 17.9697L300.758 17.4424C300.758 17.1641 300.78 16.915 300.824 16.6953C300.868 16.4609 300.912 16.2485 300.956 16.0581C301.014 15.8677 301.065 15.6919 301.109 15.5308C301.168 15.355 301.197 15.1792 301.197 15.0034C301.241 14.7983 301.271 14.4761 301.285 14.0366C301.3 13.5972 301.344 13.1577 301.417 12.7183C301.505 12.2642 301.644 11.8687 301.834 11.5317C302.025 11.1948 302.311 11.0264 302.691 11.0264C302.867 11.0557 302.992 11.0923 303.065 11.1362C303.138 11.1802 303.189 11.2388 303.219 11.312C303.248 11.3706 303.277 11.4365 303.307 11.5098C303.336 11.583 303.395 11.6636 303.482 11.7515C303.497 11.7661 303.629 11.8101 303.878 11.8833C304.142 11.9419 304.427 12.0078 304.735 12.0811C305.057 12.1396 305.35 12.1982 305.614 12.2568C305.892 12.3008 306.068 12.3228 306.141 12.3228C306.214 12.3228 306.28 12.3154 306.339 12.3008C306.412 12.2861 306.485 12.2642 306.559 12.2349C306.632 12.2056 306.698 12.1909 306.756 12.1909C306.83 12.1909 306.917 12.1909 307.02 12.1909C307.328 12.1909 307.628 12.2275 307.921 12.3008C308.229 12.3594 308.536 12.4033 308.844 12.4326C309.386 12.4473 309.906 12.4912 310.404 12.5645C310.902 12.623 311.4 12.6523 311.898 12.6523C312.176 12.6523 312.477 12.6011 312.799 12.4985C313.062 12.4546 313.341 12.4326 313.634 12.4326C313.795 12.4326 313.912 12.4473 313.985 12.4766C314.059 12.5059 314.198 12.6011 314.403 12.7622H316.798C316.842 12.7622 316.9 12.7915 316.974 12.8501C317.062 12.894 317.142 12.9526 317.215 13.0259C317.303 13.0991 317.376 13.1724 317.435 13.2456C317.494 13.3188 317.523 13.3774 317.523 13.4214C317.523 13.6851 317.494 13.9414 317.435 14.1904C317.391 14.4248 317.333 14.6592 317.259 14.8936C317.201 15.1133 317.142 15.333 317.083 15.5527C317.04 15.7725 317.018 15.9849 317.018 16.1899L317.215 17.6621C317.142 17.999 317.069 18.3799 316.996 18.8047C316.937 19.2148 316.864 19.6323 316.776 20.0571C316.688 20.4673 316.563 20.8628 316.402 21.2437C316.256 21.6245 316.058 21.9541 315.809 22.2324V24.0562C315.633 24.2612 315.494 24.4883 315.392 24.7373C315.289 24.9863 315.135 25.228 314.93 25.4624C314.872 25.5649 314.791 25.6821 314.688 25.814C314.601 25.9458 314.557 26.0483 314.557 26.1216L314.82 26.8687C314.806 26.8979 314.769 26.9565 314.71 27.0444C314.667 27.1177 314.608 27.1982 314.535 27.2861C314.476 27.374 314.41 27.4619 314.337 27.5498C314.278 27.623 314.234 27.6743 314.205 27.7036C314.088 27.894 314.022 28.0991 314.007 28.3188C313.993 28.5239 313.971 28.729 313.941 28.9341C313.927 29.1245 313.883 29.3076 313.81 29.4834C313.736 29.6592 313.59 29.8057 313.37 29.9229V30.2964C313.37 30.5161 313.355 30.7651 313.326 31.0435C313.297 31.3218 313.26 31.5928 313.216 31.8564C313.172 32.1348 313.128 32.3984 313.084 32.6475C313.041 32.9111 312.997 33.1382 312.953 33.3286C312.953 33.4312 312.916 33.519 312.843 33.5923C312.682 33.8853 312.564 34.1636 312.491 34.4272C312.433 34.7056 312.389 34.9839 312.359 35.2622C312.345 35.5405 312.337 35.8262 312.337 36.1191C312.337 36.4121 312.315 36.7124 312.271 37.02C312.213 37.2837 312.096 37.5181 311.92 37.7231C311.744 37.9282 311.62 38.1479 311.546 38.3823L311.437 38.7778C311.319 39.0708 311.188 39.2759 311.041 39.3931C310.909 39.5103 310.609 39.5688 310.14 39.5688C309.92 39.5688 309.781 39.4663 309.723 39.2612Z" fill="url(#paint3_diamond_198_3)"/>
</g>
<path d="M2.94744 120H0.639205L7.31534 101.818H9.58807L16.2642 120H13.956L8.52273 104.695H8.38068L2.94744 120ZM3.79972 112.898H13.1037V114.851H3.79972V112.898Z" fill="white"/>
<path d="M68.8821 120V118.402L74.8835 111.832C75.5878 111.063 76.1679 110.394 76.6236 109.826C77.0793 109.252 77.4167 108.713 77.6357 108.21C77.8606 107.701 77.973 107.169 77.973 106.612C77.973 105.973 77.8191 105.42 77.5114 104.952C77.2095 104.484 76.7952 104.123 76.2685 103.869C75.7417 103.614 75.1499 103.487 74.4929 103.487C73.7945 103.487 73.1849 103.632 72.6641 103.922C72.1491 104.206 71.7496 104.606 71.4656 105.121C71.1874 105.636 71.0483 106.239 71.0483 106.932H68.9531C68.9531 105.866 69.1987 104.931 69.69 104.126C70.1812 103.321 70.85 102.694 71.6964 102.244C72.5487 101.795 73.5045 101.57 74.5639 101.57C75.6293 101.57 76.5733 101.795 77.396 102.244C78.2186 102.694 78.8638 103.301 79.3313 104.064C79.7989 104.828 80.0327 105.677 80.0327 106.612C80.0327 107.281 79.9113 107.935 79.6687 108.574C79.4319 109.208 79.0176 109.915 78.4258 110.696C77.8398 111.471 77.026 112.418 75.9844 113.537L71.9006 117.905V118.047H80.3523V120H68.8821Z" fill="white"/>
<path d="M153.564 120.249C152.522 120.249 151.584 120.041 150.75 119.627C149.915 119.213 149.246 118.645 148.743 117.923C148.24 117.201 147.965 116.378 147.918 115.455H150.048C150.131 116.277 150.504 116.958 151.167 117.496C151.836 118.029 152.635 118.295 153.564 118.295C154.31 118.295 154.973 118.121 155.553 117.772C156.138 117.422 156.597 116.943 156.929 116.333C157.266 115.718 157.435 115.022 157.435 114.247C157.435 113.454 157.26 112.747 156.911 112.125C156.568 111.498 156.094 111.004 155.49 110.643C154.887 110.282 154.197 110.098 153.422 110.092C152.866 110.086 152.294 110.172 151.708 110.35C151.123 110.521 150.64 110.743 150.261 111.016L148.202 110.767L149.303 101.818H158.749V103.771H151.149L150.51 109.134H150.616C150.989 108.838 151.457 108.592 152.019 108.397C152.581 108.201 153.167 108.104 153.777 108.104C154.89 108.104 155.881 108.37 156.751 108.903C157.627 109.429 158.314 110.152 158.811 111.069C159.314 111.986 159.565 113.034 159.565 114.212C159.565 115.372 159.305 116.407 158.784 117.319C158.269 118.224 157.559 118.941 156.653 119.467C155.748 119.988 154.718 120.249 153.564 120.249Z" fill="white"/>
<path d="M231.706 120.249C230.487 120.249 229.41 120.033 228.474 119.6C227.545 119.163 226.82 118.562 226.299 117.798C225.779 117.029 225.521 116.153 225.527 115.17C225.521 114.401 225.672 113.691 225.98 113.04C226.288 112.383 226.708 111.835 227.24 111.397C227.779 110.953 228.38 110.672 229.043 110.554V110.447C228.173 110.223 227.48 109.734 226.965 108.983C226.45 108.225 226.196 107.364 226.202 106.399C226.196 105.476 226.43 104.65 226.903 103.922C227.377 103.194 228.028 102.62 228.856 102.2C229.691 101.78 230.641 101.57 231.706 101.57C232.759 101.57 233.701 101.78 234.529 102.2C235.358 102.62 236.009 103.194 236.482 103.922C236.962 104.65 237.204 105.476 237.21 106.399C237.204 107.364 236.941 108.225 236.42 108.983C235.905 109.734 235.222 110.223 234.369 110.447V110.554C235.026 110.672 235.618 110.953 236.145 111.397C236.672 111.835 237.092 112.383 237.406 113.04C237.719 113.691 237.879 114.401 237.885 115.17C237.879 116.153 237.613 117.029 237.086 117.798C236.565 118.562 235.84 119.163 234.911 119.6C233.988 120.033 232.919 120.249 231.706 120.249ZM231.706 118.295C232.529 118.295 233.239 118.162 233.837 117.896C234.434 117.63 234.896 117.254 235.222 116.768C235.547 116.283 235.713 115.715 235.719 115.064C235.713 114.377 235.535 113.771 235.186 113.244C234.837 112.717 234.36 112.303 233.757 112.001C233.159 111.699 232.475 111.548 231.706 111.548C230.931 111.548 230.238 111.699 229.629 112.001C229.025 112.303 228.548 112.717 228.199 113.244C227.856 113.771 227.687 114.377 227.693 115.064C227.687 115.715 227.844 116.283 228.164 116.768C228.489 117.254 228.954 117.63 229.558 117.896C230.161 118.162 230.877 118.295 231.706 118.295ZM231.706 109.666C232.357 109.666 232.934 109.536 233.437 109.276C233.946 109.015 234.346 108.651 234.636 108.184C234.926 107.716 235.074 107.169 235.08 106.541C235.074 105.926 234.929 105.39 234.645 104.934C234.36 104.473 233.967 104.118 233.464 103.869C232.961 103.614 232.375 103.487 231.706 103.487C231.025 103.487 230.431 103.614 229.922 103.869C229.413 104.118 229.019 104.473 228.741 104.934C228.463 105.39 228.326 105.926 228.332 106.541C228.326 107.169 228.466 107.716 228.75 108.184C229.04 108.651 229.439 109.015 229.948 109.276C230.457 109.536 231.043 109.666 231.706 109.666Z" fill="#8A8A8A"/>
<path d="M305.45 120L313.582 103.913V103.771H304.207V101.818H315.855V103.878L307.759 120H305.45Z" fill="#8A8A8A"/>
<path d="M74.8125 192.249C73.4749 192.249 72.3356 191.885 71.3945 191.157C70.4535 190.423 69.7344 189.36 69.2372 187.969C68.7401 186.573 68.4915 184.886 68.4915 182.909C68.4915 180.944 68.7401 179.266 69.2372 177.875C69.7403 176.479 70.4624 175.413 71.4034 174.679C72.3504 173.94 73.4867 173.57 74.8125 173.57C76.1383 173.57 77.2717 173.94 78.2127 174.679C79.1597 175.413 79.8817 176.479 80.3789 177.875C80.882 179.266 81.1335 180.944 81.1335 182.909C81.1335 184.886 80.8849 186.573 80.3878 187.969C79.8906 189.36 79.1715 190.423 78.2305 191.157C77.2894 191.885 76.1501 192.249 74.8125 192.249ZM74.8125 190.295C76.1383 190.295 77.1681 189.656 77.902 188.378C78.6359 187.099 79.0028 185.277 79.0028 182.909C79.0028 181.335 78.8342 179.994 78.4968 178.887C78.1654 177.781 77.686 176.937 77.0586 176.357C76.4371 175.777 75.6884 175.487 74.8125 175.487C73.4986 175.487 72.4717 176.135 71.7319 177.431C70.9921 178.722 70.6222 180.548 70.6222 182.909C70.6222 184.483 70.7879 185.821 71.1193 186.922C71.4508 188.023 71.9272 188.86 72.5487 189.434C73.176 190.008 73.9306 190.295 74.8125 190.295Z" fill="#8A8A8A"/>
<path d="M153.564 192.249C152.522 192.249 151.584 192.041 150.75 191.627C149.915 191.213 149.246 190.645 148.743 189.923C148.24 189.201 147.965 188.378 147.918 187.455H150.048C150.131 188.277 150.504 188.958 151.167 189.496C151.836 190.029 152.635 190.295 153.564 190.295C154.31 190.295 154.973 190.121 155.553 189.772C156.138 189.422 156.597 188.943 156.929 188.333C157.266 187.718 157.435 187.022 157.435 186.247C157.435 185.454 157.26 184.747 156.911 184.125C156.568 183.498 156.094 183.004 155.49 182.643C154.887 182.282 154.197 182.098 153.422 182.092C152.866 182.086 152.294 182.172 151.708 182.35C151.123 182.521 150.64 182.743 150.261 183.016L148.202 182.767L149.303 173.818H158.749V175.771H151.149L150.51 181.134H150.616C150.989 180.838 151.457 180.592 152.019 180.397C152.581 180.201 153.167 180.104 153.777 180.104C154.89 180.104 155.881 180.37 156.751 180.903C157.627 181.429 158.314 182.152 158.811 183.069C159.314 183.986 159.565 185.034 159.565 186.212C159.565 187.372 159.305 188.407 158.784 189.319C158.269 190.224 157.559 190.941 156.653 191.467C155.748 191.988 154.718 192.249 153.564 192.249Z" fill="#8A8A8A"/>
<path d="M232.026 192.249C230.854 192.249 229.809 192.047 228.892 191.645C227.98 191.242 227.255 190.683 226.717 189.967C226.184 189.245 225.894 188.407 225.847 187.455H228.084C228.131 188.04 228.332 188.547 228.688 188.973C229.043 189.393 229.507 189.718 230.081 189.949C230.655 190.18 231.292 190.295 231.99 190.295C232.771 190.295 233.464 190.159 234.067 189.887C234.671 189.615 235.145 189.236 235.488 188.751C235.831 188.265 236.003 187.703 236.003 187.064C236.003 186.395 235.837 185.806 235.506 185.297C235.174 184.782 234.689 184.38 234.05 184.09C233.411 183.8 232.629 183.655 231.706 183.655H230.25V181.702H231.706C232.428 181.702 233.061 181.571 233.606 181.311C234.156 181.051 234.585 180.684 234.893 180.21C235.207 179.737 235.364 179.18 235.364 178.541C235.364 177.926 235.228 177.39 234.955 176.934C234.683 176.479 234.298 176.123 233.801 175.869C233.31 175.614 232.73 175.487 232.061 175.487C231.434 175.487 230.842 175.603 230.286 175.833C229.735 176.058 229.285 176.387 228.936 176.819C228.587 177.245 228.397 177.76 228.368 178.364H226.237C226.273 177.411 226.56 176.576 227.098 175.86C227.637 175.138 228.341 174.576 229.211 174.173C230.087 173.771 231.049 173.57 232.097 173.57C233.221 173.57 234.186 173.797 234.991 174.253C235.796 174.703 236.414 175.298 236.846 176.038C237.278 176.777 237.494 177.576 237.494 178.435C237.494 179.459 237.225 180.332 236.686 181.054C236.154 181.776 235.429 182.276 234.511 182.554V182.696C235.66 182.885 236.556 183.374 237.201 184.161C237.846 184.942 238.169 185.91 238.169 187.064C238.169 188.052 237.9 188.94 237.361 189.727C236.828 190.509 236.1 191.124 235.177 191.574C234.254 192.024 233.203 192.249 232.026 192.249Z" fill="#8A8A8A"/>
<path d="M305.45 192L313.582 175.913V175.771H304.207V173.818H315.855V175.878L307.759 192H305.45Z" fill="#8A8A8A"/>
<path d="M2.2017 192V173.818H8.55824C9.82481 173.818 10.8694 174.037 11.6921 174.475C12.5148 174.907 13.1274 175.49 13.5298 176.224C13.9323 176.952 14.1335 177.76 14.1335 178.648C14.1335 179.429 13.9944 180.074 13.7163 180.583C13.444 181.092 13.083 181.495 12.6332 181.79C12.1893 182.086 11.7069 182.305 11.1861 182.447V182.625C11.7424 182.661 12.3017 182.856 12.864 183.211C13.4263 183.566 13.8968 184.075 14.2756 184.738C14.6544 185.401 14.8438 186.212 14.8438 187.17C14.8438 188.082 14.6366 188.902 14.2223 189.63C13.808 190.358 13.154 190.935 12.2603 191.361C11.3666 191.787 10.2036 192 8.77131 192H2.2017ZM4.40341 190.047H8.77131C10.2095 190.047 11.2305 189.769 11.8342 189.212C12.4438 188.65 12.7486 187.969 12.7486 187.17C12.7486 186.555 12.5917 185.987 12.2781 185.466C11.9644 184.939 11.5175 184.519 10.9375 184.205C10.3575 183.886 9.67093 183.726 8.87784 183.726H4.40341V190.047ZM4.40341 181.808H8.48722C9.1501 181.808 9.74787 181.678 10.2805 181.418C10.8191 181.157 11.2453 180.79 11.5589 180.317C11.8786 179.843 12.0384 179.287 12.0384 178.648C12.0384 177.849 11.7602 177.171 11.2038 176.615C10.6475 176.052 9.76563 175.771 8.55824 175.771H4.40341V181.808Z" fill="white"/>
<g filter="url(#filter4_d_198_3)">
<line x1="69.1212" y1="82.9748" x2="72.5748" y2="86.3476" stroke="#7FD271" stroke-width="3" stroke-linecap="round"/>
</g>
<g filter="url(#filter5_d_198_3)">
<line x1="81" y1="79.1213" x2="73.3213" y2="86.8" stroke="#7FD271" stroke-width="3" stroke-linecap="round"/>
</g>
<g filter="url(#filter6_d_198_3)">
<line x1="149.121" y1="82.9748" x2="152.575" y2="86.3476" stroke="#7FD271" stroke-width="3" stroke-linecap="round"/>
</g>
<g filter="url(#filter7_d_198_3)">
<line x1="161" y1="79.1213" x2="153.321" y2="86.8" stroke="#7FD271" stroke-width="3" stroke-linecap="round"/>
</g>
<g filter="url(#filter8_d_198_3)">
<line x1="148.121" y1="154.975" x2="151.575" y2="158.348" stroke="#7FD271" stroke-width="3" stroke-linecap="round"/>
</g>
<g filter="url(#filter9_d_198_3)">
<line x1="160" y1="151.121" x2="152.321" y2="158.8" stroke="#7FD271" stroke-width="3" stroke-linecap="round"/>
</g>
<g filter="url(#filter10_d_198_3)">
<line x1="227.121" y1="154.975" x2="230.575" y2="158.348" stroke="#7FD271" stroke-width="3" stroke-linecap="round"/>
</g>
<g filter="url(#filter11_d_198_3)">
<line x1="239" y1="151.121" x2="231.321" y2="158.8" stroke="#7FD271" stroke-width="3" stroke-linecap="round"/>
</g>
<g filter="url(#filter12_d_198_3)">
<line x1="305.121" y1="154.975" x2="308.575" y2="158.348" stroke="#7FD271" stroke-width="3" stroke-linecap="round"/>
</g>
<g filter="url(#filter13_d_198_3)">
<line x1="317" y1="151.121" x2="309.321" y2="158.8" stroke="#7FD271" stroke-width="3" stroke-linecap="round"/>
</g>
<g filter="url(#filter14_d_198_3)">
<line x1="306.121" y1="83.9748" x2="309.575" y2="87.3476" stroke="#7FD271" stroke-width="3" stroke-linecap="round"/>
</g>
<g filter="url(#filter15_d_198_3)">
<line x1="318" y1="80.1213" x2="310.321" y2="87.8" stroke="#7FD271" stroke-width="3" stroke-linecap="round"/>
</g>
<g filter="url(#filter16_d_198_3)">
<line x1="229.121" y1="79.6273" x2="236.048" y2="86.8792" stroke="#DE5858" stroke-width="3" stroke-linecap="round"/>
</g>
<g filter="url(#filter17_d_198_3)">
<line x1="237" y1="79.1213" x2="229.121" y2="87" stroke="#DE5858" stroke-width="3" stroke-linecap="round"/>
</g>
<g filter="url(#filter18_d_198_3)">
<line x1="70.1208" y1="152.627" x2="77.0485" y2="159.879" stroke="#DE5858" stroke-width="3" stroke-linecap="round"/>
</g>
<g filter="url(#filter19_d_198_3)">
<line x1="78" y1="152.121" x2="70.1213" y2="160" stroke="#DE5858" stroke-width="3" stroke-linecap="round"/>
</g>
<rect x="47" y="93" width="134" height="35" rx="4" stroke="url(#paint4_linear_198_3)" stroke-width="2"/>
<rect x="47" y="165" width="285" height="35" rx="4" fill="#C4C4C4" fill-opacity="0.15" stroke="#555555" stroke-width="2"/>
<defs>
<filter id="filter0_d_198_3" x="61.9995" y="14.5977" width="25.5122" height="25.8198" filterUnits="userSpaceOnUse" color-interpolation-filters="sRGB">
<feFlood flood-opacity="0" result="BackgroundImageFix"/>
<feColorMatrix in="SourceAlpha" type="matrix" values="0 0 0 0 0 0 0 0 0 0 0 0 0 0 0 0 0 0 127 0" result="hardAlpha"/>
<feOffset dy="3"/>
<feGaussianBlur stdDeviation="2"/>
<feComposite in2="hardAlpha" operator="out"/>
<feColorMatrix type="matrix" values="0 0 0 0 0 0 0 0 0 0 0 0 0 0 0 0 0 0 1 0"/>
<feBlend mode="normal" in2="BackgroundImageFix" result="effect1_dropShadow_198_3"/>
<feBlend mode="normal" in="SourceGraphic" in2="effect1_dropShadow_198_3" result="shape"/>
</filter>
<filter id="filter1_d_198_3" x="145.131" y="11.8511" width="20.9639" height="37.7729" filterUnits="userSpaceOnUse" color-interpolation-filters="sRGB">
<feFlood flood-opacity="0" result="BackgroundImageFix"/>
<feColorMatrix in="SourceAlpha" type="matrix" values="0 0 0 0 0 0 0 0 0 0 0 0 0 0 0 0 0 0 127 0" result="hardAlpha"/>
<feOffset dy="3"/>
<feGaussianBlur stdDeviation="2"/>
<feComposite in2="hardAlpha" operator="out"/>
<feColorMatrix type="matrix" values="0 0 0 0 0 0 0 0 0 0 0 0 0 0 0 0 0 0 1 0"/>
<feBlend mode="normal" in2="BackgroundImageFix" result="effect1_dropShadow_198_3"/>
<feBlend mode="normal" in="SourceGraphic" in2="effect1_dropShadow_198_3" result="shape"/>
</filter>
<filter id="filter2_d_198_3" x="222.033" y="9.6748" width="20.9639" height="36.5864" filterUnits="userSpaceOnUse" color-interpolation-filters="sRGB">
<feFlood flood-opacity="0" result="BackgroundImageFix"/>
<feColorMatrix in="SourceAlpha" type="matrix" values="0 0 0 0 0 0 0 0 0 0 0 0 0 0 0 0 0 0 127 0" result="hardAlpha"/>
<feOffset dy="3"/>
<feGaussianBlur stdDeviation="2"/>
<feComposite in2="hardAlpha" operator="out"/>
<feColorMatrix type="matrix" values="0 0 0 0 0 0 0 0 0 0 0 0 0 0 0 0 0 0 1 0"/>
<feBlend mode="normal" in2="BackgroundImageFix" result="effect1_dropShadow_198_3"/>
<feBlend mode="normal" in="SourceGraphic" in2="effect1_dropShadow_198_3" result="shape"/>
</filter>
<filter id="filter3_d_198_3" x="296.714" y="10.0264" width="24.8091" height="36.5425" filterUnits="userSpaceOnUse" color-interpolation-filters="sRGB">
<feFlood flood-opacity="0" result="BackgroundImageFix"/>
<feColorMatrix in="SourceAlpha" type="matrix" values="0 0 0 0 0 0 0 0 0 0 0 0 0 0 0 0 0 0 127 0" result="hardAlpha"/>
<feOffset dy="3"/>
<feGaussianBlur stdDeviation="2"/>
<feComposite in2="hardAlpha" operator="out"/>
<feColorMatrix type="matrix" values="0 0 0 0 0 0 0 0 0 0 0 0 0 0 0 0 0 0 1 0"/>
<feBlend mode="normal" in2="BackgroundImageFix" result="effect1_dropShadow_198_3"/>
<feBlend mode="normal" in="SourceGraphic" in2="effect1_dropShadow_198_3" result="shape"/>
</filter>
<filter id="filter4_d_198_3" x="63.6212" y="81.4749" width="14.4537" height="14.3728" filterUnits="userSpaceOnUse" color-interpolation-filters="sRGB">
<feFlood flood-opacity="0" result="BackgroundImageFix"/>
<feColorMatrix in="SourceAlpha" type="matrix" values="0 0 0 0 0 0 0 0 0 0 0 0 0 0 0 0 0 0 127 0" result="hardAlpha"/>
<feOffset dy="4"/>
<feGaussianBlur stdDeviation="2"/>
<feComposite in2="hardAlpha" operator="out"/>
<feColorMatrix type="matrix" values="0 0 0 0 0 0 0 0 0 0 0 0 0 0 0 0 0 0 0.25 0"/>
<feBlend mode="normal" in2="BackgroundImageFix" result="effect1_dropShadow_198_3"/>
<feBlend mode="normal" in="SourceGraphic" in2="effect1_dropShadow_198_3" result="shape"/>
</filter>
<filter id="filter5_d_198_3" x="67.8214" y="77.6213" width="18.6786" height="18.6787" filterUnits="userSpaceOnUse" color-interpolation-filters="sRGB">
<feFlood flood-opacity="0" result="BackgroundImageFix"/>
<feColorMatrix in="SourceAlpha" type="matrix" values="0 0 0 0 0 0 0 0 0 0 0 0 0 0 0 0 0 0 127 0" result="hardAlpha"/>
<feOffset dy="4"/>
<feGaussianBlur stdDeviation="2"/>
<feComposite in2="hardAlpha" operator="out"/>
<feColorMatrix type="matrix" values="0 0 0 0 0 0 0 0 0 0 0 0 0 0 0 0 0 0 0.25 0"/>
<feBlend mode="normal" in2="BackgroundImageFix" result="effect1_dropShadow_198_3"/>
<feBlend mode="normal" in="SourceGraphic" in2="effect1_dropShadow_198_3" result="shape"/>
</filter>
<filter id="filter6_d_198_3" x="143.621" y="81.4749" width="14.4537" height="14.3728" filterUnits="userSpaceOnUse" color-interpolation-filters="sRGB">
<feFlood flood-opacity="0" result="BackgroundImageFix"/>
<feColorMatrix in="SourceAlpha" type="matrix" values="0 0 0 0 0 0 0 0 0 0 0 0 0 0 0 0 0 0 127 0" result="hardAlpha"/>
<feOffset dy="4"/>
<feGaussianBlur stdDeviation="2"/>
<feComposite in2="hardAlpha" operator="out"/>
<feColorMatrix type="matrix" values="0 0 0 0 0 0 0 0 0 0 0 0 0 0 0 0 0 0 0.25 0"/>
<feBlend mode="normal" in2="BackgroundImageFix" result="effect1_dropShadow_198_3"/>
<feBlend mode="normal" in="SourceGraphic" in2="effect1_dropShadow_198_3" result="shape"/>
</filter>
<filter id="filter7_d_198_3" x="147.821" y="77.6213" width="18.6786" height="18.6787" filterUnits="userSpaceOnUse" color-interpolation-filters="sRGB">
<feFlood flood-opacity="0" result="BackgroundImageFix"/>
<feColorMatrix in="SourceAlpha" type="matrix" values="0 0 0 0 0 0 0 0 0 0 0 0 0 0 0 0 0 0 127 0" result="hardAlpha"/>
<feOffset dy="4"/>
<feGaussianBlur stdDeviation="2"/>
<feComposite in2="hardAlpha" operator="out"/>
<feColorMatrix type="matrix" values="0 0 0 0 0 0 0 0 0 0 0 0 0 0 0 0 0 0 0.25 0"/>
<feBlend mode="normal" in2="BackgroundImageFix" result="effect1_dropShadow_198_3"/>
<feBlend mode="normal" in="SourceGraphic" in2="effect1_dropShadow_198_3" result="shape"/>
</filter>
<filter id="filter8_d_198_3" x="142.621" y="153.475" width="14.4537" height="14.3728" filterUnits="userSpaceOnUse" color-interpolation-filters="sRGB">
<feFlood flood-opacity="0" result="BackgroundImageFix"/>
<feColorMatrix in="SourceAlpha" type="matrix" values="0 0 0 0 0 0 0 0 0 0 0 0 0 0 0 0 0 0 127 0" result="hardAlpha"/>
<feOffset dy="4"/>
<feGaussianBlur stdDeviation="2"/>
<feComposite in2="hardAlpha" operator="out"/>
<feColorMatrix type="matrix" values="0 0 0 0 0 0 0 0 0 0 0 0 0 0 0 0 0 0 0.25 0"/>
<feBlend mode="normal" in2="BackgroundImageFix" result="effect1_dropShadow_198_3"/>
<feBlend mode="normal" in="SourceGraphic" in2="effect1_dropShadow_198_3" result="shape"/>
</filter>
<filter id="filter9_d_198_3" x="146.821" y="149.621" width="18.6786" height="18.6787" filterUnits="userSpaceOnUse" color-interpolation-filters="sRGB">
<feFlood flood-opacity="0" result="BackgroundImageFix"/>
<feColorMatrix in="SourceAlpha" type="matrix" values="0 0 0 0 0 0 0 0 0 0 0 0 0 0 0 0 0 0 127 0" result="hardAlpha"/>
<feOffset dy="4"/>
<feGaussianBlur stdDeviation="2"/>
<feComposite in2="hardAlpha" operator="out"/>
<feColorMatrix type="matrix" values="0 0 0 0 0 0 0 0 0 0 0 0 0 0 0 0 0 0 0.25 0"/>
<feBlend mode="normal" in2="BackgroundImageFix" result="effect1_dropShadow_198_3"/>
<feBlend mode="normal" in="SourceGraphic" in2="effect1_dropShadow_198_3" result="shape"/>
</filter>
<filter id="filter10_d_198_3" x="221.621" y="153.475" width="14.4537" height="14.3728" filterUnits="userSpaceOnUse" color-interpolation-filters="sRGB">
<feFlood flood-opacity="0" result="BackgroundImageFix"/>
<feColorMatrix in="SourceAlpha" type="matrix" values="0 0 0 0 0 0 0 0 0 0 0 0 0 0 0 0 0 0 127 0" result="hardAlpha"/>
<feOffset dy="4"/>
<feGaussianBlur stdDeviation="2"/>
<feComposite in2="hardAlpha" operator="out"/>
<feColorMatrix type="matrix" values="0 0 0 0 0 0 0 0 0 0 0 0 0 0 0 0 0 0 0.25 0"/>
<feBlend mode="normal" in2="BackgroundImageFix" result="effect1_dropShadow_198_3"/>
<feBlend mode="normal" in="SourceGraphic" in2="effect1_dropShadow_198_3" result="shape"/>
</filter>
<filter id="filter11_d_198_3" x="225.821" y="149.621" width="18.6786" height="18.6787" filterUnits="userSpaceOnUse" color-interpolation-filters="sRGB">
<feFlood flood-opacity="0" result="BackgroundImageFix"/>
<feColorMatrix in="SourceAlpha" type="matrix" values="0 0 0 0 0 0 0 0 0 0 0 0 0 0 0 0 0 0 127 0" result="hardAlpha"/>
<feOffset dy="4"/>
<feGaussianBlur stdDeviation="2"/>
<feComposite in2="hardAlpha" operator="out"/>
<feColorMatrix type="matrix" values="0 0 0 0 0 0 0 0 0 0 0 0 0 0 0 0 0 0 0.25 0"/>
<feBlend mode="normal" in2="BackgroundImageFix" result="effect1_dropShadow_198_3"/>
<feBlend mode="normal" in="SourceGraphic" in2="effect1_dropShadow_198_3" result="shape"/>
</filter>
<filter id="filter12_d_198_3" x="299.621" y="153.475" width="14.4537" height="14.3728" filterUnits="userSpaceOnUse" color-interpolation-filters="sRGB">
<feFlood flood-opacity="0" result="BackgroundImageFix"/>
<feColorMatrix in="SourceAlpha" type="matrix" values="0 0 0 0 0 0 0 0 0 0 0 0 0 0 0 0 0 0 127 0" result="hardAlpha"/>
<feOffset dy="4"/>
<feGaussianBlur stdDeviation="2"/>
<feComposite in2="hardAlpha" operator="out"/>
<feColorMatrix type="matrix" values="0 0 0 0 0 0 0 0 0 0 0 0 0 0 0 0 0 0 0.25 0"/>
<feBlend mode="normal" in2="BackgroundImageFix" result="effect1_dropShadow_198_3"/>
<feBlend mode="normal" in="SourceGraphic" in2="effect1_dropShadow_198_3" result="shape"/>
</filter>
<filter id="filter13_d_198_3" x="303.821" y="149.621" width="18.6786" height="18.6787" filterUnits="userSpaceOnUse" color-interpolation-filters="sRGB">
<feFlood flood-opacity="0" result="BackgroundImageFix"/>
<feColorMatrix in="SourceAlpha" type="matrix" values="0 0 0 0 0 0 0 0 0 0 0 0 0 0 0 0 0 0 127 0" result="hardAlpha"/>
<feOffset dy="4"/>
<feGaussianBlur stdDeviation="2"/>
<feComposite in2="hardAlpha" operator="out"/>
<feColorMatrix type="matrix" values="0 0 0 0 0 0 0 0 0 0 0 0 0 0 0 0 0 0 0.25 0"/>
<feBlend mode="normal" in2="BackgroundImageFix" result="effect1_dropShadow_198_3"/>
<feBlend mode="normal" in="SourceGraphic" in2="effect1_dropShadow_198_3" result="shape"/>
</filter>
<filter id="filter14_d_198_3" x="300.621" y="82.4749" width="14.4537" height="14.3728" filterUnits="userSpaceOnUse" color-interpolation-filters="sRGB">
<feFlood flood-opacity="0" result="BackgroundImageFix"/>
<feColorMatrix in="SourceAlpha" type="matrix" values="0 0 0 0 0 0 0 0 0 0 0 0 0 0 0 0 0 0 127 0" result="hardAlpha"/>
<feOffset dy="4"/>
<feGaussianBlur stdDeviation="2"/>
<feComposite in2="hardAlpha" operator="out"/>
<feColorMatrix type="matrix" values="0 0 0 0 0 0 0 0 0 0 0 0 0 0 0 0 0 0 0.25 0"/>
<feBlend mode="normal" in2="BackgroundImageFix" result="effect1_dropShadow_198_3"/>
<feBlend mode="normal" in="SourceGraphic" in2="effect1_dropShadow_198_3" result="shape"/>
</filter>
<filter id="filter15_d_198_3" x="304.821" y="78.6213" width="18.6786" height="18.6787" filterUnits="userSpaceOnUse" color-interpolation-filters="sRGB">
<feFlood flood-opacity="0" result="BackgroundImageFix"/>
<feColorMatrix in="SourceAlpha" type="matrix" values="0 0 0 0 0 0 0 0 0 0 0 0 0 0 0 0 0 0 127 0" result="hardAlpha"/>
<feOffset dy="4"/>
<feGaussianBlur stdDeviation="2"/>
<feComposite in2="hardAlpha" operator="out"/>
<feColorMatrix type="matrix" values="0 0 0 0 0 0 0 0 0 0 0 0 0 0 0 0 0 0 0.25 0"/>
<feBlend mode="normal" in2="BackgroundImageFix" result="effect1_dropShadow_198_3"/>
<feBlend mode="normal" in="SourceGraphic" in2="effect1_dropShadow_198_3" result="shape"/>
</filter>
<filter id="filter16_d_198_3" x="223.621" y="78.1274" width="17.9277" height="18.2517" filterUnits="userSpaceOnUse" color-interpolation-filters="sRGB">
<feFlood flood-opacity="0" result="BackgroundImageFix"/>
<feColorMatrix in="SourceAlpha" type="matrix" values="0 0 0 0 0 0 0 0 0 0 0 0 0 0 0 0 0 0 127 0" result="hardAlpha"/>
<feOffset dy="4"/>
<feGaussianBlur stdDeviation="2"/>
<feComposite in2="hardAlpha" operator="out"/>
<feColorMatrix type="matrix" values="0 0 0 0 0 0 0 0 0 0 0 0 0 0 0 0 0 0 0.25 0"/>
<feBlend mode="normal" in2="BackgroundImageFix" result="effect1_dropShadow_198_3"/>
<feBlend mode="normal" in="SourceGraphic" in2="effect1_dropShadow_198_3" result="shape"/>
</filter>
<filter id="filter17_d_198_3" x="223.621" y="77.6213" width="18.8787" height="18.8787" filterUnits="userSpaceOnUse" color-interpolation-filters="sRGB">
<feFlood flood-opacity="0" result="BackgroundImageFix"/>
<feColorMatrix in="SourceAlpha" type="matrix" values="0 0 0 0 0 0 0 0 0 0 0 0 0 0 0 0 0 0 127 0" result="hardAlpha"/>
<feOffset dy="4"/>
<feGaussianBlur stdDeviation="2"/>
<feComposite in2="hardAlpha" operator="out"/>
<feColorMatrix type="matrix" values="0 0 0 0 0 0 0 0 0 0 0 0 0 0 0 0 0 0 0.25 0"/>
<feBlend mode="normal" in2="BackgroundImageFix" result="effect1_dropShadow_198_3"/>
<feBlend mode="normal" in="SourceGraphic" in2="effect1_dropShadow_198_3" result="shape"/>
</filter>
<filter id="filter18_d_198_3" x="64.6208" y="151.127" width="17.9277" height="18.2517" filterUnits="userSpaceOnUse" color-interpolation-filters="sRGB">
<feFlood flood-opacity="0" result="BackgroundImageFix"/>
<feColorMatrix in="SourceAlpha" type="matrix" values="0 0 0 0 0 0 0 0 0 0 0 0 0 0 0 0 0 0 127 0" result="hardAlpha"/>
<feOffset dy="4"/>
<feGaussianBlur stdDeviation="2"/>
<feComposite in2="hardAlpha" operator="out"/>
<feColorMatrix type="matrix" values="0 0 0 0 0 0 0 0 0 0 0 0 0 0 0 0 0 0 0.25 0"/>
<feBlend mode="normal" in2="BackgroundImageFix" result="effect1_dropShadow_198_3"/>
<feBlend mode="normal" in="SourceGraphic" in2="effect1_dropShadow_198_3" result="shape"/>
</filter>
<filter id="filter19_d_198_3" x="64.6213" y="150.621" width="18.8787" height="18.8787" filterUnits="userSpaceOnUse" color-interpolation-filters="sRGB">
<feFlood flood-opacity="0" result="BackgroundImageFix"/>
<feColorMatrix in="SourceAlpha" type="matrix" values="0 0 0 0 0 0 0 0 0 0 0 0 0 0 0 0 0 0 127 0" result="hardAlpha"/>
<feOffset dy="4"/>
<feGaussianBlur stdDeviation="2"/>
<feComposite in2="hardAlpha" operator="out"/>
<feColorMatrix type="matrix" values="0 0 0 0 0 0 0 0 0 0 0 0 0 0 0 0 0 0 0.25 0"/>
<feBlend mode="normal" in2="BackgroundImageFix" result="effect1_dropShadow_198_3"/>
<feBlend mode="normal" in="SourceGraphic" in2="effect1_dropShadow_198_3" result="shape"/>
</filter>
<radialGradient id="paint0_diamond_198_3" cx="0" cy="0" r="1" gradientUnits="userSpaceOnUse" gradientTransform="translate(75 21) rotate(90) scale(15 11)">
<stop stop-color="#55462F"/>
<stop offset="1" stop-color="#DCC575"/>
</radialGradient>
<radialGradient id="paint1_diamond_198_3" cx="0" cy="0" r="1" gradientUnits="userSpaceOnUse" gradientTransform="translate(155.5 21) rotate(90) scale(15 8.5)">
<stop stop-color="#55462F"/>
<stop offset="1" stop-color="#DCC575"/>
</radialGradient>
<radialGradient id="paint2_diamond_198_3" cx="0" cy="0" r="1" gradientUnits="userSpaceOnUse" gradientTransform="translate(233.5 17) rotate(90) scale(15 8.5)">
<stop stop-color="#55462F"/>
<stop offset="1" stop-color="#DCC575"/>
</radialGradient>
<radialGradient id="paint3_diamond_198_3" cx="0" cy="0" r="1" gradientUnits="userSpaceOnUse" gradientTransform="translate(309.5 17) rotate(90) scale(15 10.5)">
<stop stop-color="#55462F"/>
<stop offset="1" stop-color="#DCC575"/>
</radialGradient>
<linearGradient id="paint4_linear_198_3" x1="49.5" y1="111" x2="182" y2="111" gradientUnits="userSpaceOnUse">
<stop stop-color="#4E4938"/>
<stop offset="1" stop-color="#DCC575"/>
</linearGradient>
</defs>
</svg>
