<svg width="128" height="129" viewBox="0 0 128 129" fill="none" xmlns="http://www.w3.org/2000/svg">
<path fill-rule="evenodd" clip-rule="evenodd" d="M102.3 25.4C101.8 24.9 101.5 24.4 101.5 23.7C101.5 23 101.8 22.5 102.3 22C103.3 21.1 104.9 21.1 106 22C106.5 22.5 106.8 23 106.8 23.7C106.8 24.4 106.5 24.9 106 25.4C105.5 25.8 104.8 26.1 104.2 26.1C103.5 26.2 102.8 26 102.3 25.4Z" fill="white"/>
<path fill-rule="evenodd" clip-rule="evenodd" d="M95.9 32.3C95.5 31.8 95.2 31.3 95.2 30.6C95.2 29.9 95.5 29.4 95.9 28.9C96.8 28 98.4 28 99.3 28.9C99.7 29.4 100 29.9 100 30.6C100 31.3 99.7 31.8 99.3 32.3C98.8 32.7 98.3 33 97.6 33C96.9 33 96.4 32.7 95.9 32.3Z" fill="white"/>
<path fill-rule="evenodd" clip-rule="evenodd" d="M88.9 38.9C88.5 38.5 88.2 37.9 88.2 37.2C88.2 36.5 88.5 36 88.9 35.5C89.8 34.6 91.4 34.6 92.3 35.5C92.7 35.9 93 36.5 93 37.2C93 37.9 92.7 38.4 92.3 38.9C91.8 39.4 91.3 39.6 90.6 39.6C89.9 39.6 89.3 39.3 88.9 38.9Z" fill="white"/>
<path fill-rule="evenodd" clip-rule="evenodd" d="M82.2 45.6C81.7 45.2 81.4 44.6 81.4 43.9C81.4 43.2 81.7 42.7 82.2 42.2C83.2 41.3 84.8 41.3 85.9 42.2C86.4 42.6 86.7 43.2 86.7 43.9C86.7 44.6 86.4 45.2 85.9 45.6C85.4 46.1 84.7 46.3 84.1 46.3C83.4 46.3 82.8 46.2 82.2 45.6Z" fill="white"/>
<path fill-rule="evenodd" clip-rule="evenodd" d="M75.8 52.3C75.3 51.9 75.1 51.3 75.1 50.6C75.1 49.9 75.4 49.4 75.8 48.9C76.7 48 78.3 48 79.2 48.9C79.7 49.3 79.9 49.9 79.9 50.6C79.9 51.3 79.6 51.9 79.2 52.3C78.8 52.8 78.2 53 77.5 53C76.9 53.1 76.2 52.9 75.8 52.3Z" fill="white"/>
<path fill-rule="evenodd" clip-rule="evenodd" d="M68.1 57.3C68.1 56.6 68.4 56.1 68.8 55.6C69.7 54.7 71.3 54.7 72.2 55.6C72.7 56.1 72.9 56.6 72.9 57.3C72.9 58 72.6 58.5 72.2 59C71.8 59.4 71.2 59.7 70.5 59.7C69.8 59.7 69.3 59.4 68.8 59C68.3 58.6 68.1 58 68.1 57.3Z" fill="white"/>
<path fill-rule="evenodd" clip-rule="evenodd" d="M55.6 72.1C55.2 71.7 54.9 71.1 54.9 70.4C54.9 69.7 55.2 69.2 55.6 68.7C56.5 67.8 58.1 67.8 59 68.7C59.5 69.2 59.7 69.7 59.7 70.4C59.7 71.1 59.4 71.6 59 72.1C58.6 72.6 58 72.8 57.3 72.8C56.7 72.9 56.1 72.7 55.6 72.1Z" fill="white"/>
<path fill-rule="evenodd" clip-rule="evenodd" d="M48.7 78.8C48.2 78.4 47.9 77.8 47.9 77.1C47.9 76.4 48.2 75.9 48.7 75.4C49.7 74.5 51.3 74.5 52.4 75.4C52.9 75.9 53.2 76.4 53.2 77.1C53.2 77.8 52.9 78.3 52.4 78.8C51.9 79.3 51.2 79.5 50.6 79.5C49.8 79.6 49.2 79.3 48.7 78.8Z" fill="white"/>
<path fill-rule="evenodd" clip-rule="evenodd" d="M42.2 85.6C41.8 85.2 41.5 84.6 41.5 83.9C41.5 83.2 41.8 82.6 42.2 82.2C43.1 81.3 44.7 81.3 45.6 82.2C46 82.6 46.3 83.2 46.3 83.9C46.3 84.6 46 85.1 45.6 85.6C45.1 86.1 44.6 86.3 43.9 86.3C43.2 86.3 42.8 86 42.2 85.6Z" fill="white"/>
<path fill-rule="evenodd" clip-rule="evenodd" d="M35.5 92.3C35 91.9 34.8 91.3 34.8 90.6C34.8 89.9 35.1 89.4 35.5 88.9C36.4 88 38 88 38.9 88.9C39.3 89.4 39.6 89.9 39.6 90.6C39.6 91.3 39.3 91.9 38.9 92.3C38.4 92.8 37.9 93 37.2 93C36.6 93 35.9 92.8 35.5 92.3Z" fill="white"/>
<path fill-rule="evenodd" clip-rule="evenodd" d="M28.6 99C28.1 98.6 27.8 98 27.8 97.3C27.8 96.6 28.1 96.1 28.6 95.6C29.6 94.7 31.2 94.7 32.1 95.6C32.6 96.1 32.9 96.6 32.9 97.3C32.9 98 32.6 98.6 32.1 99C31.6 99.4 30.9 99.7 30.3 99.7C29.6 99.7 29 99.5 28.6 99Z" fill="white"/>
<path fill-rule="evenodd" clip-rule="evenodd" d="M22 105.7C21.5 105.2 21.3 104.7 21.3 104C21.3 103.3 21.6 102.8 22 102.3C22.9 101.4 24.5 101.4 25.4 102.3C25.9 102.8 26.1 103.3 26.1 104C26.1 104.7 25.8 105.2 25.4 105.7C25 106.1 24.4 106.4 23.7 106.4C23.2 106.5 22.6 106.2 22 105.7Z" fill="white"/>
<path fill-rule="evenodd" clip-rule="evenodd" d="M25.4 25.4C25.8 24.9 26.1 24.4 26.1 23.7C26.1 23 25.8 22.5 25.4 22C24.5 21.1 22.9 21.1 22 22C21.5 22.5 21.3 23 21.3 23.7C21.3 24.4 21.6 24.9 22 25.4C22.4 25.8 23 26.1 23.7 26.1C24.4 26.2 25 26 25.4 25.4Z" fill="white"/>
<path fill-rule="evenodd" clip-rule="evenodd" d="M32.1 32.3C32.6 31.8 32.9 31.3 32.9 30.6C32.9 29.9 32.6 29.4 32.1 28.9C31.1 28 29.5 28 28.4 28.9C27.9 29.4 27.6 29.9 27.6 30.6C27.6 31.3 27.9 31.8 28.4 32.3C28.9 32.7 29.6 33 30.2 33C30.9 32.9 31.6 32.7 32.1 32.3Z" fill="white"/>
<path fill-rule="evenodd" clip-rule="evenodd" d="M38.9 38.9C39.3 38.5 39.6 37.9 39.6 37.2C39.6 36.5 39.3 36 38.9 35.5C38 34.6 36.4 34.6 35.5 35.5C35.1 35.9 34.8 36.5 34.8 37.2C34.8 37.9 35.1 38.4 35.5 38.9C36 39.4 36.5 39.6 37.2 39.6C37.8 39.6 38.4 39.3 38.9 38.9Z" fill="white"/>
<path fill-rule="evenodd" clip-rule="evenodd" d="M45.6 45.6C46 45.2 46.3 44.6 46.3 43.9C46.3 43.2 46 42.7 45.6 42.2C44.7 41.3 43.1 41.3 42.2 42.2C41.8 42.6 41.5 43.2 41.5 43.9C41.5 44.6 41.8 45.2 42.2 45.6C42.7 46.1 43.2 46.3 43.9 46.3C44.5 46.3 45.1 46.2 45.6 45.6Z" fill="white"/>
<path fill-rule="evenodd" clip-rule="evenodd" d="M52.2 52.3C52.7 51.9 53 51.3 53 50.6C53 49.9 52.7 49.4 52.2 48.9C51.3 48 49.6 48 48.7 48.9C48.2 49.3 47.9 49.9 47.9 50.6C47.9 51.3 48.2 51.9 48.7 52.3C49.2 52.8 49.9 53 50.5 53C51.1 53.1 51.8 52.9 52.2 52.3Z" fill="white"/>
<path fill-rule="evenodd" clip-rule="evenodd" d="M59.7 57.3C59.7 56.6 59.4 56.1 59 55.6C58.1 54.7 56.5 54.7 55.6 55.6C55.1 56.1 54.9 56.6 54.9 57.3C54.9 58 55.2 58.5 55.6 59C56 59.4 56.6 59.7 57.3 59.7C58 59.7 58.5 59.4 59 59C59.5 58.6 59.7 58 59.7 57.3Z" fill="white"/>
<path fill-rule="evenodd" clip-rule="evenodd" d="M65.7 65.8C66.2 65.3 66.4 64.8 66.4 64.1C66.4 63.4 66.1 62.9 65.7 62.4C64.8 61.5 63.2 61.5 62.3 62.4C61.8 62.9 61.6 63.4 61.6 64.1C61.6 64.8 61.9 65.3 62.3 65.8C62.7 66.2 63.3 66.5 64 66.5C64.7 66.5 65.3 66.2 65.7 65.8Z" fill="white"/>
<path fill-rule="evenodd" clip-rule="evenodd" d="M72.4 72.1C72.9 71.7 73.2 71.1 73.2 70.4C73.2 69.7 72.9 69.2 72.4 68.7C71.4 67.8 69.8 67.8 68.9 68.7C68.4 69.2 68.1 69.7 68.1 70.4C68.1 71.1 68.4 71.6 68.9 72.1C69.4 72.6 70.1 72.8 70.7 72.8C71.2 72.9 71.9 72.7 72.4 72.1Z" fill="white"/>
<path fill-rule="evenodd" clip-rule="evenodd" d="M79.2 78.8C79.6 78.4 79.9 77.8 79.9 77.1C79.9 76.4 79.6 75.9 79.2 75.4C78.3 74.5 76.7 74.5 75.8 75.4C75.4 75.9 75.1 76.4 75.1 77.1C75.1 77.8 75.4 78.3 75.8 78.8C76.3 79.3 76.8 79.5 77.5 79.5C78 79.6 78.7 79.3 79.2 78.8Z" fill="white"/>
<path fill-rule="evenodd" clip-rule="evenodd" d="M85.9 85.6C86.3 85.2 86.6 84.6 86.6 83.9C86.6 83.2 86.3 82.6 85.9 82.2C85 81.3 83.4 81.3 82.5 82.2C82.1 82.6 81.8 83.2 81.8 83.9C81.8 84.6 82.1 85.1 82.5 85.6C83 86.1 83.5 86.3 84.2 86.3C84.9 86.3 85.4 86 85.9 85.6Z" fill="white"/>
<path fill-rule="evenodd" clip-rule="evenodd" d="M92.2 92.3C92.7 91.9 92.9 91.3 92.9 90.6C92.9 89.9 92.6 89.4 92.2 88.9C91.3 88 89.7 88 88.8 88.9C88.4 89.4 88.1 89.9 88.1 90.6C88.1 91.3 88.4 91.9 88.8 92.3C89.3 92.8 89.8 93 90.5 93C91.1 93 91.8 92.8 92.2 92.3Z" fill="white"/>
<path fill-rule="evenodd" clip-rule="evenodd" d="M99.3 99C99.8 98.6 100 98 100 97.3C100 96.6 99.7 96.1 99.3 95.6C98.4 94.7 96.8 94.7 95.9 95.6C95.4 96.1 95.2 96.6 95.2 97.3C95.2 98 95.5 98.6 95.9 99C96.3 99.4 96.9 99.7 97.6 99.7C98.3 99.7 98.9 99.5 99.3 99Z" fill="white"/>
<path fill-rule="evenodd" clip-rule="evenodd" d="M106 105.7C106.5 105.2 106.8 104.7 106.8 104C106.8 103.3 106.5 102.8 106 102.3C105 101.4 103.4 101.4 102.5 102.3C102 102.8 101.7 103.3 101.7 104C101.7 104.7 102 105.2 102.5 105.7C103 106.1 103.7 106.4 104.3 106.4C104.8 106.5 105.4 106.2 106 105.7Z" fill="white"/>
<path fill-rule="evenodd" clip-rule="evenodd" d="M41.3 27.3C48.1 22.8 55.6 20.7 63.9 20.6C72 20.6 79.5 22.8 86.5 27.3L100.9 12.9C89.6 4.3 77.4 0 63.9 0C50.4 0 38 4.3 27 12.9L41.3 27.3Z" fill="white"/>
<path fill-rule="evenodd" clip-rule="evenodd" d="M26.9 86.4C22.3 79.4 20.1 72 20.1 64C20.1 55.9 22.3 48.4 26.9 41.6L12.6 27.3C4.2 38.3 0 50.5 0 64.1C0 77.5 4.2 89.8 12.7 101L26.9 86.4Z" fill="white"/>
<path fill-rule="evenodd" clip-rule="evenodd" d="M86.4 100.7C79.6 105.3 72.1 107.7 64 107.8C55.7 107.8 48.1 105.6 41.3 100.8L26.9 115.1C38 123.8 50.4 128.1 64 128C77.5 127.9 89.7 123.5 100.7 115.1L86.4 100.7Z" fill="white"/>
<path fill-rule="evenodd" clip-rule="evenodd" d="M100.5 41.4C105.1 48.4 107.5 56 107.3 64.2C107.2 72.2 104.9 79.5 100.5 86.2L114.9 100.5C123.4 89.5 127.8 77.3 127.8 63.9C127.9 50.3 123.6 37.9 114.9 26.8L100.5 41.4Z" fill="white"/>
<path fill-rule="evenodd" clip-rule="evenodd" d="M115.5 105.2C121 105.2 125.6 109.7 125.6 115.3C125.6 120.8 121.1 125.4 115.5 125.4C110 125.4 105.4 120.9 105.4 115.3C105.4 109.7 109.9 105.2 115.5 105.2Z" fill="white"/>
<path fill-rule="evenodd" clip-rule="evenodd" d="M12.5 105.2C18 105.2 22.5 109.7 22.5 115.3C22.5 120.8 18 125.4 12.5 125.4C7 125.4 2.5 120.9 2.5 115.3C2.5 109.7 7 105.2 12.5 105.2Z" fill="white"/>
<path fill-rule="evenodd" clip-rule="evenodd" d="M115.7 2.2C121.2 2.2 125.7 6.7 125.7 12.3C125.7 17.9 121.2 22.4 115.7 22.4C110.2 22.4 105.7 17.9 105.7 12.3C105.7 6.7 110.2 2.2 115.7 2.2Z" fill="white"/>
<path fill-rule="evenodd" clip-rule="evenodd" d="M12.3 2.2C17.8 2.2 22.4 6.7 22.4 12.2C22.4 17.7 17.9 22.2 12.3 22.2C6.80001 22.2 2.20001 17.7 2.20001 12.2C2.20001 6.7 6.70001 2.2 12.3 2.2Z" fill="white"/>
</svg>
